<?xml version="1.0" standalone="no"?>
<!DOCTYPE svg PUBLIC "-//W3C//DTD SVG 1.1//EN"
"http://www.w3.org/Graphics/SVG/1.1/DTD/svg11.dtd">
<svg width="203.112" height="231.912" viewBox="0 0 4231.5 4831.5" version="1.1"
xmlns="http://www.w3.org/2000/svg"
xmlns:xlink="http://www.w3.org/1999/xlink">
<g fill-rule="evenodd"><path d="M 15.748,1865.83 L 15.748,25.748 L 15.9402,23.7971 L 17.4333,20.1923 L 18.677,18.677 L 21.9212,16.5092 L 25.748,15.748 L 4205.75,15.748 L 4207.7,15.9402 L 4211.3,17.4333 L 4214.06,20.1923 L 4215.56,23.7971 L 4215.75,25.748 L 4215.75,4805.75 L 4215.56,4807.7 L 4214.06,4811.3 L 4211.3,4814.06 L 4209.57,4814.99 L 4205.75,4815.75 L 25.748,4815.75 L 22.6579,4815.26 L 19.8702,4813.84 L 18.3166,4812.44 L 16.6126,4809.82 L 15.9666,4807.83 L 15.748,4805.75 L 15.748,1865.83M 1295.75,4182.68 L 1248.82,4182.68 L 1248.82,4135.75 L 1215.46,4135.75 L 1208.8,4142.41 L 1208.58,4182.21 L 1209.4,4190.52 L 1211.69,4198.06 L 1215.4,4205.01 L 1220.4,4211.1 L 1226.49,4216.1 L 1233.44,4219.81 L 1240.98,4222.1 L 1249.28,4222.92 L 1289.08,4222.7 L 1295.75,4216.04 L 1295.75,4182.68M 1335.75,4182.68 L 1335.75,4216.04 L 1342.41,4222.7 L 1382.21,4222.92 L 1390.52,4222.1 L 1398.06,4219.81 L 1405.01,4216.1 L 1411.1,4211.1 L 1416.1,4205.01 L 1419.81,4198.06 L 1422.1,4190.52 L 1422.92,4182.21 L 1422.7,4142.41 L 1416.04,4135.75 L 1382.68,4135.75 L 1382.68,4182.68 L 1335.75,4182.68M 1248.82,4095.75 L 1248.82,4048.82 L 1382.68,4048.82 L 1382.68,4095.75 L 1416.04,4095.75 L 1422.7,4089.08 L 1422.92,4049.28 L 1422.1,4040.98 L 1419.81,4033.44 L 1416.1,4026.49 L 1411.1,4020.4 L 1405.01,4015.4 L 1398.06,4011.68 L 1393.29,4010.24 L 1391.39,4009.44 L 1389.7,4008.27 L 1388.28,4006.78 L 1387.19,4005.03 L 1386.49,4003.1 L 1386.2,4001.06 L 1386.33,3999.01 L 1386.88,3997.02 L 1387.82,3995.19 L 1398.81,3983.91 L 1410.51,3966.4 L 1418.57,3946.94 L 1422.68,3926.28 L 1422.68,3905.22 L 1418.57,3884.56 L 1410.51,3865.1 L 1398.81,3847.58 L 1388.93,3837.44 L 1388.01,3835.71 L 1387.24,3831.88 L 1387.24,3517.99 L 1387.86,3514.53 L 1389.64,3511.5 L 1394.51,3507.3 L 1401.95,3498.23 L 1407.49,3487.88 L 1410.89,3476.64 L 1412.09,3464.47 L 1412.09,3367.03 L 1411.26,3356.38 L 1411.71,3354.34 L 1412.56,3352.44 L 1413.79,3350.76 L 1415.34,3349.37 L 1417.15,3348.34 L 1419.13,3347.7 L 1421.2,3347.48 L 1976.04,3347.48 L 1978.11,3347.7 L 1980.1,3348.34 L 1981.9,3349.37 L 1983.45,3350.76 L 1984.68,3352.44 L 1985.54,3354.34 L 1985.98,3356.38 L 1985.15,3367.03 L 1985.15,3464.47 L 1986.35,3476.64 L 1989.76,3487.88 L 1995.29,3498.23 L 2002.74,3507.3 L 2011.81,3514.75 L 2022.16,3520.28 L 2033.4,3523.69 L 2045.57,3524.89 L 2117.42,3524.89 L 2129.6,3523.69 L 2140.83,3520.28 L 2151.18,3514.75 L 2160.25,3507.3 L 2167.7,3498.23 L 2173.23,3487.88 L 2176.64,3476.64 L 2177.84,3464.47 L 2177.84,3367.02 L 2176.64,3354.85 L 2173.23,3343.62 L 2167.7,3333.27 L 2160.25,3324.19 L 2151.18,3316.75 L 2147.27,3314.66 L 2144.25,3312.18 L 2141.23,3306.94 L 2132.3,3296.05 L 2129.22,3293.46 L 2096.7,3260.67 L 2095.21,3257.07 L 2095.02,3255.12 L 2095.78,3251.29 L 2097.94,3248.05 L 2101.19,3245.88 L 2103.06,3245.31 L 3061.81,3245.31 L 3063.69,3245.88 L 3066.93,3248.05 L 3361.98,3543.36 L 3363.47,3546.96 L 3363.66,3548.91 L 3357.64,3580.18 L 3357.64,3611.32 L 3363.71,3641.87 L 3375.63,3670.64 L 3392.94,3696.54 L 3414.96,3718.56 L 3440.86,3735.86 L 3469.63,3747.78 L 3500.17,3753.86 L 3531.32,3753.86 L 3561.87,3747.78 L 3590.64,3735.86 L 3616.54,3718.56 L 3638.56,3696.54 L 3655.86,3670.64 L 3667.78,3641.87 L 3673.86,3611.32 L 3673.86,3580.18 L 3667.78,3549.63 L 3655.86,3520.85 L 3638.56,3494.96 L 3616.54,3472.94 L 3590.64,3455.63 L 3561.87,3443.71 L 3531.32,3437.64 L 3500.17,3437.64 L 3468.91,3443.66 L 3466.96,3443.47 L 3463.36,3441.98 L 3147.01,3125.9 L 3144.42,3122.82 L 3133.53,3113.89 L 3121.11,3107.25 L 3107.64,3103.16 L 3093.62,3101.78 L 3089.62,3102.12 L 1955.61,3102.12 L 1953.54,3101.91 L 1951.56,3101.27 L 1949.75,3100.23 L 1948.2,3098.84 L 1946.97,3097.16 L 1946.11,3095.26 L 1945.67,3093.23 L 1945.66,3091.14 L 1946.34,3084.18 L 1946.12,3042.41 L 1939.46,3035.75 L 1906.1,3035.75 L 1906.1,3064.96 L 1905.25,3070.67 L 1902.78,3075.9 L 1900.34,3078.88 L 1895.7,3082.32 L 1890.26,3084.27 L 1886.42,3084.65 L 1813.58,3084.65 L 1809.74,3084.27 L 1804.3,3082.32 L 1799.66,3078.88 L 1797.22,3075.9 L 1795.4,3072.49 L 1793.99,3066.89 L 1793.99,2964.61 L 1795.4,2959 L 1797.22,2955.6 L 1799.66,2952.62 L 1802.65,2950.17 L 1806.05,2948.35 L 1811.65,2946.95 L 1886.42,2946.85 L 1890.26,2947.23 L 1893.95,2948.35 L 1897.35,2950.17 L 1900.34,2952.62 L 1902.78,2955.6 L 1905.25,2960.82 L 1906.1,2966.54 L 1906.1,2995.75 L 1939.46,2995.75 L 1946.12,2989.08 L 1946.3,2955.3 L 1947.08,2951.49 L 1948,2949.77 L 1950.76,2947.03 L 1952.49,2946.11 L 1956.3,2945.35 L 3393.64,2945.35 L 3397.64,2945.7 L 3411.65,2944.32 L 3425.13,2940.23 L 3437.55,2933.59 L 3448.44,2924.66 L 3451.02,2921.58 L 3461.84,2910.76 L 3463.36,2909.52 L 3466.96,2908.03 L 3470.86,2908.03 L 3500.17,2913.86 L 3531.32,2913.86 L 3561.87,2907.78 L 3590.64,2895.86 L 3616.54,2878.56 L 3638.56,2856.54 L 3655.86,2830.64 L 3667.78,2801.87 L 3673.86,2771.32 L 3673.86,2740.18 L 3667.78,2709.63 L 3655.86,2680.85 L 3638.56,2654.96 L 3616.54,2632.94 L 3590.64,2615.63 L 3561.87,2603.71 L 3531.32,2597.64 L 3500.17,2597.64 L 3469.63,2603.71 L 3440.86,2615.63 L 3414.96,2632.94 L 3392.94,2654.96 L 3375.63,2680.85 L 3363.71,2709.63 L 3357.64,2740.18 L 3357.64,2771.32 L 3361.44,2790.41 L 3361.44,2794.31 L 3360.87,2796.19 L 3358.7,2799.43 L 3357.18,2800.68 L 3353.58,2802.17 L 1844.47,2802.36 L 1840.64,2801.6 L 1837.39,2799.43 L 1777.29,2739.33 L 1776.01,2737.75 L 1775.07,2735.95 L 1774.51,2733.99 L 1774.37,2731.96 L 1774.64,2729.94 L 1775.31,2728.02 L 1776.35,2726.27 L 1777.73,2724.77 L 1779.38,2723.59 L 1781.24,2722.76 L 1783.23,2722.32 L 1785.27,2722.3 L 1787.27,2722.69 L 1791.8,2724.07 L 1800.1,2724.88 L 1829.08,2724.68 L 1835.75,2718 L 1835.75,2684.65 L 1819.33,2684.65 L 1813.62,2683.8 L 1810.05,2682.32 L 1806.84,2680.18 L 1802.96,2675.9 L 1801.14,2672.49 L 1799.74,2666.89 L 1799.65,2635.75 L 1766.29,2635.75 L 1759.62,2642.41 L 1759.41,2684.18 L 1760.22,2692.49 L 1761.6,2697.03 L 1761.99,2699.02 L 1761.97,2701.06 L 1761.53,2703.05 L 1760.7,2704.91 L 1759.52,2706.56 L 1758.02,2707.94 L 1756.27,2708.98 L 1754.35,2709.66 L 1752.33,2709.92 L 1750.3,2709.78 L 1748.35,2709.22 L 1746.54,2708.29 L 1719.8,2681.84 L 1717.79,2678.96 L 1716.9,2675.56 L 1717.84,2664.47 L 1717.84,2567.03 L 1716.64,2554.85 L 1713.23,2543.62 L 1707.7,2533.27 L 1700.25,2524.19 L 1691.18,2516.75 L 1680.83,2511.21 L 1669.6,2507.81 L 1657.42,2506.61 L 1585.57,2506.61 L 1573.4,2507.81 L 1562.17,2511.21 L 1551.81,2516.75 L 1542.74,2524.19 L 1535.29,2533.27 L 1532.25,2538.97 L 1530.02,2541.77 L 1526.95,2543.61 L 1523.43,2544.25 L 1412.03,2544.09 L 1410.29,2543.61 L 1407.22,2541.77 L 1405,2538.97 L 1401.95,2533.27 L 1394.51,2524.19 L 1385.43,2516.75 L 1375.08,2511.21 L 1363.85,2507.81 L 1351.67,2506.61 L 1279.82,2506.61 L 1267.65,2507.81 L 1256.42,2511.21 L 1246.06,2516.75 L 1236.99,2524.19 L 1229.54,2533.27 L 1224.01,2543.62 L 1220.6,2554.85 L 1219.4,2567.03 L 1219.4,2664.47 L 1220.6,2676.64 L 1224.01,2687.87 L 1229.54,2698.23 L 1236.99,2707.3 L 1246.06,2714.75 L 1256.42,2720.28 L 1267.65,2723.69 L 1279.82,2724.89 L 1351.68,2724.89 L 1363.85,2723.69 L 1375.08,2720.28 L 1385.43,2714.75 L 1394.51,2707.3 L 1401.95,2698.23 L 1405,2692.53 L 1407.22,2689.73 L 1410.29,2687.89 L 1412.03,2687.41 L 1523.43,2687.24 L 1525.22,2687.41 L 1528.57,2688.67 L 1531.26,2691.03 L 1535.29,2698.23 L 1542.74,2707.3 L 1551.81,2714.75 L 1557.35,2717.93 L 1559.83,2720.94 L 1561.76,2724.56 L 1570.7,2735.45 L 1573.77,2738.03 L 1756.32,2920.82 L 1757.8,2924.13 L 1758.01,2927.75 L 1754.48,2939.01 L 1753.66,2947.32 L 1753.88,2989.08 L 1764.71,3000.19 L 1765.64,3001.92 L 1766.4,3005.75 L 1766.21,3007.7 L 1764.71,3011.3 L 1763.47,3012.82 L 1760.22,3014.99 L 1756.4,3015.75 L 1750.25,3015.75 L 1747.72,3017.32 L 1743.9,3018.08 L 1740.07,3017.32 L 1736.83,3015.15 L 1715.02,2993.35 L 1712.85,2990.1 L 1712.09,2986.28 L 1712.09,2967.03 L 1710.89,2954.85 L 1707.49,2943.62 L 1701.95,2933.27 L 1694.51,2924.19 L 1685.43,2916.75 L 1675.08,2911.21 L 1663.85,2907.81 L 1651.68,2906.61 L 1579.82,2906.61 L 1567.65,2907.81 L 1556.42,2911.21 L 1546.06,2916.75 L 1536.99,2924.2 L 1529.54,2933.27 L 1526.5,2938.97 L 1524.27,2941.77 L 1521.2,2943.61 L 1517.68,2944.25 L 1412.03,2944.09 L 1408.68,2942.83 L 1407.22,2941.77 L 1405,2938.97 L 1401.95,2933.27 L 1394.51,2924.19 L 1385.43,2916.75 L 1375.08,2911.21 L 1363.85,2907.81 L 1351.68,2906.61 L 1279.82,2906.61 L 1267.65,2907.81 L 1256.42,2911.21 L 1246.06,2916.75 L 1236.99,2924.19 L 1229.54,2933.27 L 1224.01,2943.62 L 1220.6,2954.85 L 1219.4,2967.03 L 1219.4,3064.47 L 1220.6,3076.64 L 1224.01,3087.88 L 1229.54,3098.23 L 1236.99,3107.3 L 1246.06,3114.75 L 1256.42,3120.28 L 1267.65,3123.69 L 1279.82,3124.89 L 1351.67,3124.89 L 1363.85,3123.69 L 1375.08,3120.28 L 1385.43,3114.75 L 1394.51,3107.3 L 1401.95,3098.23 L 1405,3092.53 L 1407.22,3089.73 L 1408.68,3088.67 L 1412.03,3087.41 L 1519.47,3087.41 L 1522.82,3088.67 L 1525.51,3091.03 L 1529.54,3098.23 L 1536.99,3107.3 L 1546.06,3114.75 L 1556.42,3120.28 L 1567.65,3123.69 L 1579.82,3124.89 L 1640.2,3124.89 L 1642.15,3125.08 L 1645.75,3126.57 L 1708.11,3188.93 L 1709.6,3192.54 L 1709.8,3194.49 L 1709.04,3198.31 L 1706.87,3201.56 L 1705.35,3202.8 L 1701.75,3204.3 L 1699.8,3204.49 L 1009.74,3204.49 L 1005.91,3203.73 L 1002.67,3201.56 L 725.606,2924.5 L 724.362,2922.98 L 722.869,2919.38 L 722.677,2905.22 L 718.568,2884.56 L 710.508,2865.1 L 698.805,2847.58 L 683.911,2832.69 L 669.483,2822.82 L 667.316,2819.57 L 666.554,2815.75 L 667.316,2811.92 L 669.483,2808.68 L 683.873,2799.06 L 687.7,2798.3 L 689.651,2798.49 L 691.527,2799.06 L 694.771,2801.23 L 957.014,3063.47 L 959.599,3066.55 L 970.487,3075.48 L 982.906,3082.12 L 985.26,3083.04 L 986.89,3084.12 L 989.366,3087.14 L 995.292,3098.23 L 1002.74,3107.3 L 1011.81,3114.75 L 1022.17,3120.28 L 1033.4,3123.69 L 1045.57,3124.89 L 1117.42,3124.89 L 1129.6,3123.69 L 1140.83,3120.28 L 1151.18,3114.75 L 1160.25,3107.3 L 1167.7,3098.23 L 1173.23,3087.88 L 1176.64,3076.64 L 1177.84,3064.47 L 1177.84,2967.03 L 1176.64,2954.85 L 1173.23,2943.62 L 1167.7,2933.27 L 1160.25,2924.19 L 1151.18,2916.75 L 1140.83,2911.21 L 1129.6,2907.81 L 1117.43,2906.61 L 1045.57,2906.61 L 1033.4,2907.81 L 1022.16,2911.22 L 1018.81,2913.01 L 1015.35,2914.11 L 1011.73,2913.91 L 1008.42,2912.43 L 763.786,2668.02 L 761.2,2664.95 L 750.313,2656.01 L 737.893,2649.37 L 724.417,2645.29 L 710.4,2643.91 L 706.398,2644.25 L 699.615,2644.25 L 695.788,2643.49 L 692.544,2641.32 L 683.911,2632.69 L 669.483,2622.82 L 667.316,2619.57 L 666.554,2615.75 L 667.316,2611.92 L 669.483,2608.68 L 683.911,2598.81 L 694.059,2588.93 L 697.664,2587.44 L 949.69,2587.44 L 953.295,2588.93 L 954.81,2590.17 L 982.223,2617.59 L 984.391,2620.83 L 985.152,2624.66 L 985.152,2664.47 L 986.35,2676.64 L 989.758,2687.87 L 995.291,2698.23 L 1002.74,2707.3 L 1011.81,2714.75 L 1022.16,2720.28 L 1033.4,2723.69 L 1045.57,2724.89 L 1117.43,2724.89 L 1129.6,2723.69 L 1140.83,2720.28 L 1151.18,2714.75 L 1160.25,2707.3 L 1167.7,2698.23 L 1173.23,2687.87 L 1176.64,2676.64 L 1177.84,2664.47 L 1177.84,2567.03 L 1176.64,2554.85 L 1173.23,2543.62 L 1167.7,2533.27 L 1160.25,2524.19 L 1151.18,2516.75 L 1140.83,2511.21 L 1129.6,2507.81 L 1117.42,2506.61 L 1077.61,2506.61 L 1073.78,2505.85 L 1070.54,2503.68 L 1034.88,2468.02 L 1032.3,2464.95 L 1021.41,2456.01 L 1008.99,2449.37 L 995.512,2445.29 L 981.496,2443.91 L 977.494,2444.25 L 697.664,2444.06 L 694.059,2442.57 L 683.911,2432.69 L 669.483,2422.82 L 667.316,2419.57 L 666.554,2415.75 L 666.746,2413.8 L 668.24,2410.19 L 670.999,2407.43 L 683.911,2398.81 L 694.059,2388.93 L 695.788,2388.01 L 699.615,2387.24 L 1586.39,2387.24 L 1590.39,2387.59 L 1604.41,2386.21 L 1617.89,2382.12 L 1630.31,2375.48 L 1641.19,2366.55 L 1643.78,2363.47 L 1669.22,2338.03 L 1672.3,2335.45 L 1681.23,2324.56 L 1684.25,2319.31 L 1687.27,2316.84 L 1691.18,2314.75 L 1700.25,2307.3 L 1707.7,2298.23 L 1713.23,2287.88 L 1716.64,2276.64 L 1717.84,2264.47 L 1717.84,2167.03 L 1716.64,2154.85 L 1713.23,2143.62 L 1707.7,2133.27 L 1700.25,2124.19 L 1695.39,2120 L 1693.61,2116.97 L 1692.99,2113.51 L 1692.99,1205.5 L 1693.34,1201.5 L 1691.96,1187.48 L 1687.87,1174 L 1681.23,1161.58 L 1672.29,1150.7 L 1669.22,1148.11 L 1544.18,1022.8 L 1542.69,1019.2 L 1542.5,1017.24 L 1543.26,1013.42 L 1545.43,1010.17 L 1546.94,1008.93 L 1550.55,1007.44 L 1921.99,1007.24 L 1925.82,1008.01 L 1929.06,1010.17 L 2161.32,1242.43 L 2163.49,1245.68 L 2164.25,1249.5 L 2164.25,1571.75 L 2163.91,1575.75 L 2165.29,1589.76 L 2169.37,1603.24 L 2176.01,1615.66 L 2184.95,1626.55 L 2188.02,1629.13 L 2560.92,2002.03 L 2564.95,2006.86 L 2568.02,2009.45 L 2652.13,2093.55 L 2654.71,2096.63 L 2665.6,2105.56 L 2678.02,2112.2 L 2691.5,2116.29 L 2705.51,2117.67 L 2709.51,2117.32 L 2748.61,2117.32 L 2751.83,2117.85 L 2760.66,2120.68 L 2768.99,2121.5 L 2862.5,2121.5 L 2870.83,2120.68 L 2879.67,2117.85 L 2882.88,2117.32 L 3021.67,2117.32 L 3025.67,2117.67 L 3039.69,2116.29 L 3053.16,2112.2 L 3065.58,2105.56 L 3076.47,2096.63 L 3079.06,2093.55 L 3182.43,1990.17 L 3185.68,1988.01 L 3189.5,1987.24 L 3369.97,1987.44 L 3371.84,1988.01 L 3375.09,1990.17 L 3392.94,2016.54 L 3414.96,2038.56 L 3440.86,2055.86 L 3469.63,2067.78 L 3500.17,2073.86 L 3531.32,2073.86 L 3561.87,2067.78 L 3590.64,2055.86 L 3619.4,2036.77 L 3623.23,2036.01 L 3627.06,2036.77 L 3630.3,2038.94 L 3632.47,2042.18 L 3633.23,2046.01 L 3633.23,2147.4 L 3633.04,2149.35 L 3631.54,2152.95 L 3628.78,2155.71 L 3627.06,2156.63 L 3623.23,2157.4 L 3398.13,2157.4 L 3389.8,2158.22 L 3382.26,2160.5 L 3375.31,2164.22 L 3369.22,2169.22 L 3364.22,2175.31 L 3360.5,2182.26 L 3358.22,2189.8 L 3357.4,2198.13 L 3357.2,2236.2 L 3355.71,2239.81 L 3354.47,2241.32 L 3352.95,2242.57 L 3349.35,2244.06 L 2897.96,2244.25 L 2894.59,2243.67 L 2893.03,2242.95 L 2885.32,2236.82 L 2878.37,2233.1 L 2870.83,2230.82 L 2862.5,2229.99 L 2768.99,2229.99 L 2760.66,2230.82 L 2753.12,2233.1 L 2746.17,2236.82 L 2740.08,2241.81 L 2735.08,2247.91 L 2731.37,2254.85 L 2729.08,2262.39 L 2728.26,2270.73 L 2728.26,2340.61 L 2729.08,2348.94 L 2731.37,2356.48 L 2735.08,2363.43 L 2740.08,2369.52 L 2746.17,2374.52 L 2753.12,2378.24 L 2760.66,2380.52 L 2769,2381.34 L 2796,2381.48 L 2811.81,2386.21 L 2825.83,2387.59 L 2829.83,2387.24 L 3347.4,2387.24 L 3349.35,2387.44 L 3352.95,2388.93 L 3355.71,2391.69 L 3357.2,2395.29 L 3357.4,2433.37 L 3358.22,2441.7 L 3360.5,2449.24 L 3364.22,2456.19 L 3369.22,2462.28 L 3375.31,2467.28 L 3382.26,2470.99 L 3389.8,2473.28 L 3398.13,2474.1 L 3633.37,2474.1 L 3641.7,2473.28 L 3649.24,2470.99 L 3656.19,2467.28 L 3662.28,2462.28 L 3667.28,2456.19 L 3670.99,2449.24 L 3673.28,2441.7 L 3674.1,2433.37 L 3674.1,2397.24 L 3674.29,2395.29 L 3675.79,2391.69 L 3678.54,2388.93 L 3682.15,2387.44 L 3692.85,2387.24 L 3696.85,2387.59 L 3710.87,2386.21 L 3724.34,2382.12 L 3736.76,2375.48 L 3747.65,2366.55 L 3750.24,2363.47 L 3755.52,2358.67 L 3764.46,2347.79 L 3771.1,2335.37 L 3775.19,2321.89 L 3776.57,2307.87 L 3776.22,2303.87 L 3776.22,1487.62 L 3776.57,1483.62 L 3775.89,1476.73 L 3776.57,1467.87 L 3776.22,1463.87 L 3776.22,754.075 L 3776.57,750.073 L 3775.19,736.056 L 3771.1,722.579 L 3764.46,710.159 L 3755.52,699.272 L 3752.45,696.687 L 3483.79,428.024 L 3481.2,424.948 L 3470.31,416.014 L 3457.89,409.375 L 3444.42,405.287 L 3430.4,403.906 L 3426.4,404.252 L 3419.61,404.252 L 3415.79,403.491 L 3412.54,401.323 L 3403.91,392.691 L 3386.4,380.988 L 3366.94,372.928 L 3346.28,368.819 L 3325.21,368.819 L 3304.56,372.928 L 3285.1,380.988 L 3267.58,392.691 L 3252.69,407.585 L 3240.99,425.099 L 3232.93,444.559 L 3228.82,465.217 L 3228.82,486.279 L 3232.93,506.937 L 3240.99,526.397 L 3252.69,543.911 L 3263.67,555.194 L 3264.62,557.024 L 3265.17,559.007 L 3265.3,561.061 L 3265.01,563.098 L 3264.3,565.032 L 3263.22,566.782 L 3261.8,568.272 L 3260.11,569.441 L 3258.21,570.238 L 3253.44,571.685 L 3246.49,575.399 L 3240.4,580.398 L 3235.4,586.489 L 3231.68,593.438 L 3229.4,600.977 L 3228.58,609.283 L 3228.8,649.084 L 3235.46,655.748 L 3268.82,655.748 L 3268.82,608.819 L 3402.68,608.819 L 3402.68,655.748 L 3436.04,655.748 L 3442.7,649.083 L 3442.89,613.44 L 3443.67,609.626 L 3445.85,606.398 L 3449.09,604.245 L 3452.91,603.494 L 3454.86,603.689 L 3458.45,605.182 L 3630.3,776.758 L 3632.47,780.002 L 3633.23,783.829 L 3633.23,945.485 L 3632.47,949.311 L 3630.3,952.556 L 3628.78,953.799 L 3625.18,955.292 L 3621.28,955.292 L 3619.4,954.723 L 3590.64,935.632 L 3561.87,923.714 L 3531.32,917.638 L 3500.18,917.638 L 3469.63,923.714 L 3440.86,935.632 L 3414.96,952.936 L 3392.94,974.958 L 3375.09,1001.32 L 3371.84,1003.49 L 3369.97,1004.06 L 2941.33,1004.25 L 2937.32,1003.91 L 2923.31,1005.29 L 2909.83,1009.37 L 2897.41,1016.01 L 2886.52,1024.95 L 2883.94,1028.02 L 2768.02,1143.94 L 2764.95,1146.52 L 2756.01,1157.41 L 2749.37,1169.83 L 2745.29,1183.31 L 2743.91,1197.32 L 2744.25,1201.33 L 2744.25,1209.24 L 2743.49,1213.06 L 2742.57,1214.79 L 2739.81,1217.55 L 2738.08,1218.47 L 2734.25,1219.24 L 2730.43,1218.47 L 2727.18,1216.31 L 2410.17,899.299 L 2408.01,896.054 L 2407.24,892.228 L 2407.24,714.311 L 2407.86,710.85 L 2408.62,709.255 L 2410.9,706.581 L 2417.46,701.198 L 2429.8,686.459 L 2433.22,684.622 L 2437.07,684.224 L 2438.99,684.591 L 2442.42,686.39 L 2455.42,701.583 L 2472.98,715.677 L 2493.09,726.146 L 2505.63,730.229 L 2515.75,725.294 L 2515.75,691.493 L 2512.57,690.817 L 2498.25,684.44 L 2485.56,675.224 L 2475.07,663.572 L 2467.23,649.993 L 2462.39,635.082 L 2460.75,619.488 L 2460.75,612.008 L 2462.39,596.414 L 2467.23,581.503 L 2475.07,567.924 L 2485.56,556.272 L 2498.25,547.056 L 2512.57,540.679 L 2515.75,540.004 L 2515.75,506.202 L 2505.63,501.267 L 2493.09,505.349 L 2472.98,515.819 L 2455.42,529.913 L 2442.42,545.106 L 2438.99,546.905 L 2437.07,547.272 L 2433.22,546.874 L 2429.8,545.037 L 2417.46,530.296 L 2399.95,515.926 L 2379.97,505.248 L 2358.29,498.672 L 2335.75,496.451 L 2313.2,498.672 L 2291.53,505.248 L 2271.55,515.926 L 2260.77,524.524 L 2257.04,525.656 L 2255.08,525.656 L 2251.34,524.524 L 2248.33,522.048 L 2244.17,514.678 L 2239.17,508.585 L 2233.08,503.588 L 2226.13,499.874 L 2218.59,497.587 L 2214.46,497.01 L 2212.75,496.338 L 2211.19,495.364 L 2208.73,492.652 L 2207.91,491.005 L 2207.24,487.406 L 2207.24,478.019 L 2207.59,474.015 L 2206.21,460 L 2202.12,446.523 L 2195.48,434.103 L 2186.55,423.217 L 2183.47,420.63 L 2070.87,308.024 L 2068.28,304.948 L 2057.39,296.014 L 2044.97,289.375 L 2031.5,285.287 L 2017.48,283.906 L 2013.48,284.252 L 759.75,284.252 L 755.748,283.906 L 741.732,285.287 L 728.255,289.375 L 715.834,296.014 L 704.948,304.948 L 702.362,308.023 L 588.024,422.362 L 584.948,424.948 L 576.014,435.835 L 569.375,448.255 L 565.287,461.732 L 563.906,475.748 L 564.252,479.75 L 564.252,1031.75 L 563.906,1035.75 L 565.287,1049.76 L 569.375,1063.24 L 576.014,1075.66 L 584.947,1086.55 L 588.023,1089.13 L 1025.44,1526.82 L 1026.93,1530.43 L 1027.13,1532.38 L 1027.13,1713.51 L 1026.51,1716.97 L 1024.73,1720 L 1019.86,1724.19 L 1012.42,1733.27 L 1006.88,1743.62 L 1003.48,1754.86 L 1002.28,1767.02 L 1002.28,1864.47 L 1003.21,1875.56 L 1002.92,1877.3 L 1001.45,1880.49 L 840.834,2041.32 L 837.59,2043.49 L 833.763,2044.25 L 697.664,2044.06 L 694.059,2042.57 L 683.91,2032.69 L 668.835,2022.37 L 667.57,2020.81 L 666.645,2019.02 L 666.096,2017.09 L 665.946,2015.08 L 666.2,2013.08 L 666.848,2011.18 L 667.865,2009.44 L 669.208,2007.95 L 670.825,2006.75 L 679.183,2001.77 L 694.746,1987.74 L 707.273,1970.95 L 716.384,1951.82 L 718.487,1944.88 L 713.668,1935.75 L 679.237,1935.75 L 676.891,1942.97 L 669.895,1955.09 L 660.532,1965.49 L 649.213,1973.71 L 636.43,1979.4 L 622.744,1982.31 L 608.752,1982.31 L 595.066,1979.4 L 582.283,1973.71 L 570.964,1965.49 L 561.601,1955.09 L 554.605,1942.97 L 552.259,1935.75 L 517.828,1935.75 L 513.009,1944.88 L 515.113,1951.82 L 524.224,1970.95 L 536.75,1987.74 L 552.314,2001.77 L 562.288,2007.95 L 563.631,2009.44 L 564.648,2011.18 L 565.296,2013.08 L 565.551,2015.08 L 565.4,2017.09 L 564.851,2019.02 L 563.926,2020.81 L 562.661,2022.37 L 547.586,2032.69 L 532.691,2047.58 L 520.988,2065.1 L 512.928,2084.56 L 508.819,2105.22 L 508.819,2126.28 L 512.928,2146.94 L 520.988,2166.4 L 532.691,2183.91 L 547.585,2198.81 L 562.013,2208.68 L 564.181,2211.92 L 564.942,2215.75 L 564.181,2219.57 L 562.013,2222.82 L 547.585,2232.69 L 532.691,2247.58 L 520.988,2265.1 L 512.928,2284.56 L 508.819,2305.22 L 508.819,2326.28 L 512.928,2346.94 L 520.988,2366.4 L 532.691,2383.91 L 547.585,2398.81 L 562.013,2408.68 L 564.181,2411.92 L 564.942,2415.75 L 564.181,2419.57 L 562.013,2422.82 L 547.585,2432.69 L 532.691,2447.58 L 520.989,2465.1 L 512.928,2484.56 L 508.819,2505.22 L 508.819,2526.28 L 512.928,2546.94 L 520.989,2566.4 L 532.691,2583.91 L 547.585,2598.81 L 562.013,2608.68 L 564.181,2611.92 L 564.942,2615.75 L 564.181,2619.57 L 562.013,2622.82 L 547.585,2632.69 L 532.691,2647.58 L 520.988,2665.1 L 512.928,2684.56 L 508.819,2705.22 L 508.819,2726.28 L 512.928,2746.94 L 520.988,2766.4 L 532.691,2783.91 L 547.585,2798.81 L 562.013,2808.68 L 564.181,2811.92 L 564.942,2815.75 L 564.181,2819.57 L 562.013,2822.82 L 547.585,2832.69 L 532.691,2847.58 L 520.988,2865.1 L 512.928,2884.56 L 508.819,2905.22 L 508.819,2926.28 L 512.928,2946.94 L 520.988,2966.4 L 532.691,2983.91 L 547.585,2998.81 L 562.013,3008.68 L 564.181,3011.92 L 564.942,3015.75 L 564.181,3019.57 L 562.013,3022.82 L 547.585,3032.69 L 532.691,3047.58 L 520.989,3065.1 L 512.928,3084.56 L 508.819,3105.22 L 508.819,3126.28 L 512.928,3146.94 L 520.989,3166.4 L 532.691,3183.91 L 541.323,3192.54 L 543.491,3195.79 L 544.252,3199.61 L 544.252,3206.4 L 543.906,3210.4 L 545.286,3224.41 L 549.375,3237.89 L 556.014,3250.31 L 564.948,3261.2 L 568.023,3263.79 L 767.71,3463.47 L 770.297,3466.55 L 781.183,3475.48 L 793.604,3482.12 L 807.08,3486.21 L 821.096,3487.59 L 825.098,3487.24 L 985.217,3487.41 L 988.568,3488.67 L 990.021,3489.73 L 992.246,3492.53 L 995.291,3498.23 L 1002.74,3507.3 L 1011.81,3514.75 L 1022.16,3520.28 L 1033.4,3523.69 L 1045.57,3524.89 L 1117.42,3524.89 L 1129.6,3523.69 L 1140.83,3520.28 L 1151.18,3514.75 L 1160.25,3507.3 L 1167.7,3498.23 L 1173.23,3487.88 L 1176.64,3476.64 L 1177.84,3464.47 L 1177.84,3367.03 L 1177.01,3356.38 L 1177.45,3354.34 L 1178.31,3352.44 L 1179.54,3350.76 L 1181.09,3349.37 L 1182.9,3348.34 L 1184.88,3347.7 L 1186.95,3347.48 L 1212.37,3347.7 L 1214.35,3348.34 L 1216.15,3349.37 L 1217.71,3350.76 L 1218.94,3352.44 L 1219.79,3354.34 L 1220.23,3356.38 L 1219.4,3367.03 L 1219.4,3464.47 L 1220.6,3476.64 L 1224.01,3487.88 L 1229.54,3498.23 L 1236.99,3507.3 L 1241.86,3511.5 L 1243.63,3514.53 L 1244.25,3517.99 L 1244.25,3831.88 L 1243.49,3835.71 L 1242.57,3837.44 L 1232.69,3847.59 L 1220.99,3865.1 L 1212.93,3884.56 L 1208.82,3905.21 L 1208.82,3926.28 L 1212.93,3946.94 L 1220.99,3966.4 L 1232.69,3983.91 L 1243.67,3995.19 L 1244.62,3997.02 L 1245.17,3999.01 L 1245.3,4001.06 L 1245.01,4003.1 L 1244.3,4005.03 L 1243.22,4006.78 L 1241.8,4008.27 L 1240.11,4009.44 L 1238.21,4010.24 L 1233.44,4011.68 L 1226.49,4015.4 L 1220.4,4020.4 L 1215.4,4026.49 L 1211.69,4033.44 L 1209.4,4040.98 L 1208.58,4049.28 L 1208.8,4089.08 L 1215.46,4095.75 L 1248.82,4095.75M 1835.75,2546.85 L 1835.75,2513.49 L 1829.08,2506.82 L 1800.1,2506.61 L 1791.8,2507.43 L 1784.26,2509.72 L 1777.32,2513.43 L 1771.22,2518.43 L 1766.23,2524.52 L 1762.51,2531.47 L 1760.22,2539.01 L 1759.41,2547.32 L 1759.62,2589.08 L 1766.29,2595.75 L 1799.65,2595.75 L 1799.74,2564.61 L 1801.14,2559 L 1802.96,2555.6 L 1806.84,2551.32 L 1810.05,2549.17 L 1813.62,2547.7 L 1819.33,2546.85 L 1835.75,2546.85M 1875.75,2684.65 L 1875.75,2718 L 1882.42,2724.68 L 1911.4,2724.88 L 1919.69,2724.07 L 1927.23,2721.78 L 1934.18,2718.07 L 1940.27,2713.07 L 1945.27,2706.98 L 1948.98,2700.03 L 1951.27,2692.49 L 1952.09,2684.18 L 1951.87,2642.41 L 1945.21,2635.75 L 1911.85,2635.75 L 1911.76,2666.89 L 1910.35,2672.49 L 1908.53,2675.9 L 1904.65,2680.18 L 1901.44,2682.32 L 1897.88,2683.8 L 1892.17,2684.65 L 1875.75,2684.65M 1875.75,2546.85 L 1892.17,2546.85 L 1897.88,2547.7 L 1901.44,2549.17 L 1904.65,2551.32 L 1908.53,2555.6 L 1910.35,2559 L 1911.76,2564.61 L 1911.85,2595.75 L 1945.21,2595.75 L 1951.87,2589.08 L 1952.09,2547.32 L 1951.27,2539.01 L 1948.98,2531.47 L 1945.27,2524.52 L 1940.27,2518.43 L 1934.18,2513.43 L 1927.23,2509.72 L 1919.69,2507.43 L 1911.4,2506.61 L 1882.42,2506.82 L 1875.75,2513.49 L 1875.75,2546.85M 552.259,1895.75 L 554.605,1888.53 L 561.601,1876.41 L 570.964,1866.01 L 582.283,1857.79 L 595.066,1852.09 L 608.752,1849.19 L 622.744,1849.19 L 636.43,1852.09 L 649.213,1857.79 L 660.532,1866.01 L 669.895,1876.41 L 676.891,1888.53 L 679.238,1895.75 L 713.668,1895.75 L 718.487,1886.62 L 716.384,1879.68 L 707.273,1860.55 L 694.745,1843.75 L 687.563,1837.03 L 686.562,1835.4 L 685.577,1831.71 L 686.048,1827.92 L 686.815,1826.16 L 689.275,1823.24 L 692.651,1821.45 L 698.059,1819.81 L 705.007,1816.1 L 711.098,1811.1 L 716.097,1805.01 L 719.811,1798.06 L 722.098,1790.52 L 722.919,1782.18 L 722.919,1649.31 L 722.098,1640.98 L 719.811,1633.44 L 716.097,1626.49 L 711.098,1620.4 L 705.007,1615.4 L 698.059,1611.69 L 690.519,1609.4 L 682.184,1608.58 L 549.312,1608.58 L 540.977,1609.4 L 533.438,1611.68 L 526.489,1615.4 L 520.398,1620.4 L 515.399,1626.49 L 511.685,1633.44 L 509.872,1638.84 L 507.651,1641.71 L 506.189,1642.79 L 504.554,1643.59 L 500.988,1644.25 L 489.829,1644.25 L 485.828,1643.91 L 471.813,1645.29 L 458.334,1649.37 L 445.914,1656.01 L 435.026,1664.95 L 432.441,1668.02 L 288.024,1812.44 L 284.948,1815.03 L 276.014,1825.91 L 269.375,1838.33 L 265.287,1851.81 L 263.906,1865.83 L 264.252,1869.83 L 264.252,3651.75 L 263.906,3655.75 L 265.287,3669.76 L 269.375,3683.24 L 276.014,3695.66 L 284.948,3706.55 L 288.023,3709.13 L 1082.36,4503.47 L 1084.95,4506.55 L 1095.83,4515.48 L 1108.25,4522.12 L 1121.73,4526.21 L 1135.75,4527.59 L 1139.75,4527.24 L 3232.85,4527.24 L 3236.85,4527.59 L 3250.86,4526.21 L 3264.34,4522.12 L 3276.76,4515.48 L 3287.65,4506.55 L 3290.24,4503.47 L 3563.47,4230.24 L 3566.55,4227.65 L 3575.48,4216.76 L 3582.12,4204.34 L 3586.21,4190.87 L 3587.59,4176.85 L 3587.24,4172.85 L 3587.44,4162.15 L 3588.93,4158.54 L 3590.17,4157.03 L 3593.42,4154.86 L 3597.24,4154.1 L 3633.37,4154.1 L 3641.7,4153.28 L 3649.24,4150.99 L 3656.19,4147.28 L 3662.28,4142.28 L 3667.28,4136.19 L 3670.99,4129.24 L 3673.28,4121.7 L 3674.1,4113.37 L 3674.1,4077.24 L 3674.86,4073.42 L 3677.03,4070.17 L 3678.54,4068.93 L 3682.15,4067.44 L 3692.85,4067.24 L 3696.85,4067.59 L 3710.87,4066.21 L 3724.34,4062.12 L 3736.76,4055.48 L 3747.65,4046.55 L 3750.24,4043.47 L 3843.47,3950.24 L 3846.55,3947.65 L 3855.48,3936.76 L 3862.12,3924.34 L 3866.21,3910.87 L 3867.59,3896.85 L 3867.24,3892.85 L 3867.24,3258.65 L 3867.59,3254.65 L 3866.21,3240.63 L 3862.12,3227.15 L 3855.48,3214.73 L 3846.55,3203.85 L 3843.47,3201.26 L 3750.24,3108.02 L 3747.65,3104.95 L 3736.76,3096.01 L 3724.34,3089.37 L 3710.87,3085.29 L 3696.85,3083.91 L 3692.85,3084.25 L 3682.15,3084.06 L 3678.54,3082.57 L 3677.03,3081.32 L 3675.79,3079.81 L 3674.29,3076.2 L 3674.1,3038.13 L 3673.28,3029.8 L 3670.99,3022.26 L 3667.28,3015.31 L 3662.28,3009.22 L 3656.19,3004.22 L 3649.24,3000.5 L 3641.7,2998.22 L 3633.37,2997.4 L 3398.13,2997.4 L 3389.8,2998.22 L 3382.26,3000.5 L 3375.31,3004.22 L 3369.22,3009.22 L 3364.22,3015.31 L 3360.5,3022.26 L 3358.22,3029.8 L 3357.4,3038.13 L 3357.4,3273.37 L 3358.22,3281.7 L 3360.5,3289.24 L 3364.22,3296.19 L 3369.22,3302.28 L 3375.31,3307.28 L 3382.26,3310.99 L 3389.8,3313.28 L 3398.13,3314.1 L 3633.37,3314.1 L 3641.7,3313.28 L 3649.24,3310.99 L 3656.19,3307.28 L 3662.28,3302.28 L 3667.28,3296.19 L 3670.99,3289.24 L 3673.28,3281.7 L 3674.1,3273.37 L 3674.1,3258.25 L 3674.86,3254.42 L 3677.03,3251.18 L 3678.54,3249.94 L 3680.27,3249.01 L 3684.1,3248.25 L 3687.93,3249.01 L 3691.17,3251.18 L 3721.32,3281.33 L 3723.49,3284.58 L 3724.25,3288.4 L 3724.06,3865.04 L 3723.49,3866.92 L 3721.32,3870.16 L 3691.17,3900.32 L 3687.93,3902.48 L 3684.1,3903.25 L 3680.27,3902.48 L 3678.54,3901.56 L 3677.03,3900.32 L 3674.86,3897.07 L 3674.1,3893.25 L 3674.1,3878.13 L 3673.28,3869.8 L 3670.99,3862.26 L 3667.28,3855.31 L 3662.28,3849.22 L 3656.19,3844.22 L 3649.24,3840.5 L 3641.7,3838.22 L 3633.37,3837.4 L 3398.13,3837.4 L 3389.8,3838.22 L 3382.26,3840.5 L 3375.31,3844.22 L 3369.22,3849.22 L 3364.22,3855.31 L 3360.5,3862.26 L 3358.22,3869.8 L 3357.4,3878.13 L 3357.4,4113.37 L 3358.22,4121.7 L 3360.5,4129.24 L 3364.22,4136.19 L 3369.22,4142.28 L 3375.31,4147.28 L 3382.26,4150.99 L 3389.8,4153.28 L 3398.13,4154.1 L 3413.25,4154.1 L 3417.07,4154.86 L 3418.8,4155.79 L 3421.56,4158.54 L 3423.05,4162.15 L 3423.05,4166.05 L 3421.56,4169.66 L 3420.32,4171.17 L 3208.65,4382.57 L 3206.92,4383.49 L 3203.09,4384.25 L 1169.5,4384.25 L 1167.55,4384.06 L 1163.95,4382.57 L 410.173,3629.06 L 408.929,3627.55 L 407.436,3623.94 L 407.244,1899.58 L 408.005,1895.76 L 410.173,1892.51 L 499.692,1802.99 L 501.299,1801.69 L 503.139,1800.74 L 505.134,1800.2 L 507.199,1800.07 L 509.246,1800.38 L 511.186,1801.1 L 512.937,1802.2 L 514.424,1803.64 L 520.398,1811.1 L 526.489,1816.1 L 533.438,1819.81 L 538.845,1821.45 L 542.221,1823.24 L 544.681,1826.16 L 545.866,1829.79 L 545.604,1833.6 L 543.933,1837.03 L 536.751,1843.75 L 524.223,1860.55 L 515.113,1879.68 L 513.009,1886.62 L 517.829,1895.75 L 552.259,1895.75M 1835.75,2146.85 L 1835.75,2113.49 L 1829.08,2106.82 L 1800.1,2106.61 L 1791.8,2107.43 L 1784.26,2109.72 L 1777.31,2113.43 L 1771.22,2118.43 L 1766.23,2124.52 L 1762.51,2131.47 L 1760.22,2139.01 L 1759.41,2147.32 L 1759.62,2189.08 L 1766.29,2195.75 L 1799.65,2195.75 L 1799.74,2164.61 L 1801.14,2159 L 1802.96,2155.6 L 1806.84,2151.32 L 1810.05,2149.17 L 1813.62,2147.7 L 1819.33,2146.85 L 1835.75,2146.85M 1835.75,2284.65 L 1819.33,2284.65 L 1813.62,2283.8 L 1810.05,2282.32 L 1806.84,2280.18 L 1802.96,2275.9 L 1801.14,2272.49 L 1799.74,2266.89 L 1799.65,2235.75 L 1766.29,2235.75 L 1759.62,2242.41 L 1759.41,2284.18 L 1760.22,2292.49 L 1762.51,2300.03 L 1766.23,2306.98 L 1771.23,2313.07 L 1777.31,2318.06 L 1784.26,2321.78 L 1791.8,2324.07 L 1800.1,2324.88 L 1829.08,2324.68 L 1835.75,2318 L 1835.75,2284.65M 1875.75,2146.85 L 1892.17,2146.85 L 1897.88,2147.7 L 1901.44,2149.17 L 1904.65,2151.32 L 1908.53,2155.6 L 1910.35,2159 L 1911.76,2164.61 L 1911.85,2195.75 L 1945.21,2195.75 L 1951.87,2189.08 L 1952.09,2147.32 L 1951.27,2139.01 L 1948.98,2131.47 L 1945.27,2124.52 L 1940.27,2118.43 L 1934.18,2113.43 L 1927.23,2109.72 L 1919.69,2107.43 L 1911.39,2106.61 L 1882.42,2106.82 L 1875.75,2113.49 L 1875.75,2146.85M 1911.85,2235.75 L 1911.76,2266.89 L 1910.35,2272.49 L 1908.53,2275.9 L 1904.65,2280.18 L 1901.44,2282.32 L 1897.88,2283.8 L 1892.17,2284.65 L 1875.75,2284.65 L 1875.75,2318 L 1882.42,2324.68 L 1911.4,2324.88 L 1919.69,2324.07 L 1927.23,2321.78 L 1934.18,2318.07 L 1940.27,2313.07 L 1945.27,2306.98 L 1948.98,2300.03 L 1951.27,2292.49 L 1952.09,2284.18 L 1951.87,2242.41 L 1945.21,2235.75 L 1911.85,2235.75M 2295.75,4182.68 L 2248.82,4182.68 L 2248.82,4135.75 L 2215.46,4135.75 L 2208.8,4142.41 L 2208.58,4182.21 L 2209.4,4190.52 L 2211.69,4198.06 L 2215.4,4205.01 L 2220.4,4211.1 L 2226.49,4216.1 L 2233.44,4219.81 L 2240.98,4222.1 L 2249.28,4222.92 L 2289.08,4222.7 L 2295.75,4216.04 L 2295.75,4182.68M 2335.75,4182.68 L 2335.75,4216.04 L 2342.41,4222.7 L 2382.21,4222.92 L 2390.52,4222.1 L 2398.06,4219.81 L 2405.01,4216.1 L 2411.1,4211.1 L 2416.1,4205.01 L 2419.81,4198.06 L 2422.1,4190.52 L 2422.92,4182.21 L 2422.7,4142.41 L 2416.04,4135.75 L 2382.68,4135.75 L 2382.68,4182.68 L 2335.75,4182.68M 2382.68,4095.75 L 2416.04,4095.75 L 2422.7,4089.08 L 2422.92,4049.28 L 2422.1,4040.98 L 2419.81,4033.44 L 2416.1,4026.49 L 2411.1,4020.4 L 2405.01,4015.4 L 2398.06,4011.68 L 2393.29,4010.24 L 2391.39,4009.44 L 2389.7,4008.27 L 2388.28,4006.78 L 2387.19,4005.03 L 2386.49,4003.1 L 2386.2,4001.06 L 2386.33,3999.01 L 2386.88,3997.02 L 2387.82,3995.19 L 2398.81,3983.91 L 2410.51,3966.4 L 2418.57,3946.94 L 2422.68,3926.28 L 2422.68,3905.22 L 2418.57,3884.56 L 2410.51,3865.1 L 2398.81,3847.58 L 2388.93,3837.44 L 2387.44,3833.83 L 2387.24,3831.88 L 2387.24,3517.99 L 2387.86,3514.53 L 2389.64,3511.5 L 2394.51,3507.3 L 2401.95,3498.23 L 2407.49,3487.88 L 2410.89,3476.64 L 2412.09,3464.47 L 2412.09,3367.02 L 2410.89,3354.85 L 2407.49,3343.62 L 2401.95,3333.27 L 2394.51,3324.19 L 2385.43,3316.75 L 2375.08,3311.21 L 2363.85,3307.81 L 2351.67,3306.61 L 2279.82,3306.61 L 2267.65,3307.81 L 2256.42,3311.21 L 2246.06,3316.75 L 2236.99,3324.19 L 2229.54,3333.27 L 2224.01,3343.62 L 2220.6,3354.85 L 2219.4,3367.03 L 2219.4,3464.47 L 2220.6,3476.64 L 2224.01,3487.88 L 2229.54,3498.23 L 2236.99,3507.3 L 2241.86,3511.5 L 2243.63,3514.53 L 2244.25,3517.99 L 2244.25,3831.88 L 2244.06,3833.83 L 2242.57,3837.44 L 2232.69,3847.58 L 2220.99,3865.1 L 2212.93,3884.56 L 2208.82,3905.22 L 2208.82,3926.28 L 2212.93,3946.94 L 2220.99,3966.4 L 2232.69,3983.91 L 2243.67,3995.19 L 2244.62,3997.02 L 2245.17,3999.01 L 2245.3,4001.06 L 2245.01,4003.1 L 2244.3,4005.03 L 2243.22,4006.78 L 2241.8,4008.27 L 2240.11,4009.44 L 2238.21,4010.24 L 2233.44,4011.68 L 2226.49,4015.4 L 2220.4,4020.4 L 2215.4,4026.49 L 2211.69,4033.44 L 2209.4,4040.98 L 2208.58,4049.28 L 2208.8,4089.08 L 2215.46,4095.75 L 2248.82,4095.75 L 2248.82,4048.82 L 2382.68,4048.82 L 2382.68,4095.75M 2608.89,595.748 L 2641.89,595.748 L 2647.21,585.397 L 2641.38,566.905 L 2630.55,547.163 L 2616.08,529.913 L 2598.52,515.819 L 2578.41,505.349 L 2565.87,501.267 L 2555.75,506.202 L 2555.75,540.004 L 2558.92,540.679 L 2573.25,547.056 L 2585.93,556.272 L 2596.42,567.924 L 2604.26,581.503 L 2608.89,595.748M 2608.89,635.748 L 2604.26,649.993 L 2596.42,663.572 L 2585.93,675.224 L 2573.25,684.44 L 2558.92,690.817 L 2555.75,691.493 L 2555.75,725.294 L 2565.87,730.229 L 2578.41,726.146 L 2598.52,715.677 L 2616.08,701.583 L 2630.55,684.333 L 2641.38,664.591 L 2647.21,646.099 L 2641.89,635.748 L 2608.89,635.748M 3402.68,695.748 L 3402.68,742.677 L 3355.75,742.677 L 3355.75,776.035 L 3362.41,782.7 L 3402.21,782.916 L 3410.52,782.098 L 3418.06,779.811 L 3425.01,776.097 L 3431.1,771.098 L 3436.1,765.007 L 3439.81,758.059 L 3442.1,750.519 L 3442.92,742.213 L 3442.7,702.413 L 3436.04,695.748 L 3402.68,695.748M 3268.82,695.748 L 3235.46,695.748 L 3228.8,702.413 L 3228.58,742.213 L 3229.4,750.519 L 3231.69,758.059 L 3235.4,765.006 L 3240.4,771.098 L 3246.49,776.097 L 3253.44,779.811 L 3260.98,782.098 L 3269.28,782.916 L 3309.08,782.7 L 3315.75,776.035 L 3315.75,742.677 L 3268.82,742.677 L 3268.82,695.748 z " style="fill-opacity:1.000000;fill:rgb(167,241,217);stroke:rgb(0,0,0);stroke-width:2"/></g>
<g fill-rule="evenodd"><path d="M 1315.75,691.493 L 1312.57,690.817 L 1298.25,684.44 L 1285.56,675.224 L 1275.07,663.572 L 1267.23,649.993 L 1262.39,635.082 L 1260.75,619.488 L 1260.75,612.008 L 1262.39,596.414 L 1267.23,581.503 L 1275.07,567.924 L 1285.56,556.272 L 1298.25,547.056 L 1312.57,540.679 L 1315.75,540.003 L 1315.75,506.202 L 1305.63,501.267 L 1293.09,505.349 L 1272.98,515.819 L 1255.42,529.913 L 1242.42,545.106 L 1240.79,546.174 L 1237.07,547.272 L 1233.22,546.874 L 1229.8,545.037 L 1217.46,530.297 L 1199.95,515.927 L 1179.97,505.248 L 1158.29,498.672 L 1135.75,496.451 L 1113.2,498.672 L 1091.53,505.248 L 1071.55,515.926 L 1062.4,523.435 L 1060.77,524.524 L 1057.04,525.656 L 1053.15,525.274 L 1049.71,523.435 L 1047.24,520.418 L 1044.17,514.678 L 1039.17,508.585 L 1033.08,503.588 L 1026.13,499.874 L 1018.59,497.587 L 1010.26,496.766 L 861.241,496.766 L 852.906,497.587 L 845.366,499.874 L 838.417,503.589 L 832.328,508.586 L 827.328,514.678 L 823.614,521.626 L 821.326,529.168 L 820.506,537.496 L 820.506,694 L 821.326,702.328 L 823.614,709.87 L 827.329,716.819 L 832.327,722.909 L 838.417,727.907 L 845.367,731.622 L 852.906,733.909 L 857.037,734.486 L 858.748,735.158 L 861.661,737.375 L 862.766,738.844 L 863.582,740.491 L 864.252,744.09 L 864.252,753.478 L 863.906,757.48 L 865.287,771.496 L 869.375,784.973 L 876.014,797.393 L 884.948,808.28 L 888.024,810.866 L 1162.99,1085.84 L 1165.58,1088.91 L 1176.47,1097.85 L 1188.89,1104.48 L 1202.36,1108.57 L 1216.38,1109.95 L 1220.38,1109.61 L 1424.35,1109.61 L 1428.18,1110.37 L 1431.43,1112.54 L 1547.07,1228.18 L 1549.24,1231.43 L 1550,1235.25 L 1550,2113.51 L 1549.38,2116.97 L 1547.6,2120 L 1542.74,2124.19 L 1535.29,2133.27 L 1529.76,2143.62 L 1526.35,2154.86 L 1525.15,2167.03 L 1525.15,2234.25 L 1524.39,2238.08 L 1523.47,2239.81 L 1520.71,2242.57 L 1518.98,2243.49 L 1515.15,2244.25 L 699.615,2244.25 L 695.788,2243.49 L 692.544,2241.32 L 683.911,2232.69 L 669.391,2222.73 L 667.704,2220.4 L 666.93,2218.46 L 666.576,2216.4 L 666.658,2214.31 L 667.172,2212.29 L 668.097,2210.41 L 669.391,2208.77 L 683.911,2198.81 L 692.544,2190.17 L 695.788,2188.01 L 699.615,2187.24 L 863.517,2187.24 L 867.52,2187.59 L 881.536,2186.21 L 895.011,2182.12 L 907.433,2175.48 L 918.32,2166.55 L 920.906,2163.47 L 1146.35,1938.03 L 1149.42,1935.45 L 1158.36,1924.56 L 1160.29,1920.94 L 1162.76,1917.93 L 1168.31,1914.75 L 1177.38,1907.3 L 1184.83,1898.23 L 1190.36,1887.88 L 1193.77,1876.64 L 1194.97,1864.47 L 1194.97,1767.03 L 1193.77,1754.85 L 1190.36,1743.62 L 1184.83,1733.27 L 1177.38,1724.19 L 1172.51,1720 L 1171.49,1718.56 L 1170.27,1715.26 L 1170.12,1502.62 L 1170.46,1498.62 L 1169.08,1484.61 L 1165,1471.13 L 1158.36,1458.71 L 1149.42,1447.82 L 1146.35,1445.24 L 710.173,1009.06 L 708.929,1007.55 L 707.436,1003.94 L 707.436,507.554 L 708.005,505.678 L 710.173,502.434 L 782.434,430.173 L 783.949,428.929 L 787.554,427.436 L 1983.72,427.244 L 1987.55,428.005 L 1990.79,430.173 L 2045.69,485.07 L 2047,486.676 L 2047.94,488.517 L 2048.49,490.512 L 2048.61,492.577 L 2048.31,494.624 L 2047.59,496.564 L 2046.49,498.315 L 2045.05,499.801 L 2043.33,500.96 L 2038.42,503.588 L 2032.33,508.585 L 2027.33,514.678 L 2023.61,521.626 L 2021.33,529.166 L 2020.51,537.496 L 2020.51,694 L 2021.33,702.33 L 2023.61,709.87 L 2027.33,716.819 L 2032.33,722.909 L 2038.42,727.908 L 2045.37,731.622 L 2052.91,733.909 L 2061.24,734.73 L 2210.26,734.73 L 2218.59,733.909 L 2226.13,731.622 L 2233.08,727.908 L 2239.17,722.909 L 2244.17,716.819 L 2246.57,712.764 L 2248.03,711.341 L 2249.74,710.242 L 2251.64,709.513 L 2253.65,709.184 L 2255.68,709.268 L 2257.66,709.763 L 2259.49,710.647 L 2261.11,711.884 L 2262.44,713.423 L 2263.43,715.2 L 2264.04,717.141 L 2264.25,719.166 L 2264.25,921.981 L 2263.91,925.984 L 2265.29,940 L 2269.38,953.477 L 2276.01,965.897 L 2284.95,976.783 L 2288.02,979.37 L 2652.13,1343.47 L 2654.71,1346.55 L 2665.6,1355.48 L 2678.02,1362.12 L 2691.5,1366.21 L 2705.51,1367.59 L 2709.51,1367.24 L 2748.61,1367.24 L 2751.83,1367.77 L 2760.66,1370.6 L 2768.99,1371.42 L 2862.5,1371.42 L 2870.83,1370.6 L 2878.37,1368.31 L 2885.32,1364.6 L 2891.41,1359.6 L 2896.41,1353.51 L 2900.13,1346.56 L 2902.41,1339.02 L 2903.23,1330.69 L 2903.23,1260.8 L 2902.41,1252.47 L 2900.13,1244.93 L 2896.41,1237.98 L 2893.05,1233.89 L 2891.28,1230.68 L 2890.79,1227.05 L 2891.64,1223.49 L 2893.71,1220.47 L 2964.01,1150.17 L 2965.52,1148.93 L 2969.13,1147.44 L 3369.97,1147.44 L 3371.84,1148.01 L 3375.09,1150.17 L 3392.94,1176.54 L 3414.96,1198.56 L 3440.86,1215.86 L 3469.63,1227.78 L 3500.18,1233.86 L 3531.32,1233.86 L 3561.87,1227.78 L 3590.64,1215.86 L 3619.4,1196.77 L 3623.23,1196.01 L 3627.06,1196.77 L 3628.78,1197.7 L 3631.54,1200.46 L 3632.47,1202.18 L 3633.23,1206.01 L 3633.23,1307.4 L 3633.04,1309.35 L 3631.54,1312.95 L 3628.78,1315.71 L 3627.06,1316.63 L 3623.23,1317.4 L 3398.13,1317.4 L 3389.8,1318.22 L 3382.26,1320.5 L 3375.31,1324.22 L 3369.22,1329.22 L 3364.22,1335.31 L 3360.5,1342.26 L 3358.22,1349.8 L 3357.4,1358.13 L 3357.2,1396.2 L 3355.71,1399.81 L 3352.95,1402.57 L 3351.22,1403.49 L 3347.4,1404.25 L 3179.75,1404.25 L 3175.75,1403.91 L 3161.73,1405.29 L 3148.25,1409.37 L 3135.83,1416.01 L 3124.95,1424.95 L 3122.36,1428.02 L 3069.22,1481.17 L 3067.7,1482.41 L 3064.1,1483.9 L 2882.88,1484.09 L 2879.67,1483.56 L 2870.83,1480.74 L 2862.5,1479.92 L 2768.99,1479.92 L 2760.66,1480.74 L 2753.12,1483.02 L 2746.17,1486.74 L 2740.08,1491.74 L 2735.08,1497.83 L 2731.37,1504.78 L 2729.08,1512.32 L 2728.26,1520.65 L 2728.26,1590.53 L 2729.08,1598.87 L 2731.37,1606.4 L 2735.08,1613.35 L 2740.08,1619.44 L 2746.17,1624.44 L 2753.12,1628.16 L 2760.66,1630.44 L 2769,1631.27 L 2862.5,1631.27 L 2870.83,1630.44 L 2879.67,1627.62 L 2882.88,1627.09 L 3091.9,1627.09 L 3095.91,1627.43 L 3109.92,1626.05 L 3123.4,1621.96 L 3135.82,1615.32 L 3146.71,1606.39 L 3149.29,1603.31 L 3202.43,1550.17 L 3205.68,1548.01 L 3209.5,1547.24 L 3349.35,1547.44 L 3352.95,1548.93 L 3354.47,1550.17 L 3355.71,1551.69 L 3357.2,1555.29 L 3357.4,1593.37 L 3358.22,1601.7 L 3360.5,1609.24 L 3364.22,1616.19 L 3369.22,1622.28 L 3375.31,1627.28 L 3382.26,1630.99 L 3389.8,1633.28 L 3398.13,1634.1 L 3623.23,1634.1 L 3627.06,1634.86 L 3630.3,1637.03 L 3632.47,1640.27 L 3633.23,1644.1 L 3633.23,1785.48 L 3632.47,1789.31 L 3630.3,1792.56 L 3627.06,1794.72 L 3623.23,1795.48 L 3619.4,1794.72 L 3590.64,1775.63 L 3561.87,1763.71 L 3531.32,1757.64 L 3500.18,1757.64 L 3469.63,1763.71 L 3440.86,1775.63 L 3414.96,1792.94 L 3392.94,1814.96 L 3375.09,1841.32 L 3373.57,1842.57 L 3369.97,1844.06 L 3159.75,1844.25 L 3155.75,1843.91 L 3141.73,1845.29 L 3128.26,1849.37 L 3115.83,1856.01 L 3104.95,1864.95 L 3102.36,1868.02 L 2998.98,1971.4 L 2997.47,1972.65 L 2993.86,1974.14 L 2882.88,1974.33 L 2879.67,1973.8 L 2870.83,1970.97 L 2862.5,1970.15 L 2769,1970.15 L 2760.66,1970.97 L 2750.24,1974.2 L 2739.27,1974.33 L 2735.44,1973.57 L 2732.2,1971.4 L 2670.58,1909.78 L 2666.55,1904.95 L 2663.47,1902.36 L 2308.93,1547.55 L 2308.01,1545.82 L 2307.24,1541.99 L 2307.24,1219.75 L 2307.59,1215.75 L 2306.21,1201.73 L 2302.12,1188.26 L 2295.48,1175.83 L 2286.55,1164.95 L 2283.47,1162.36 L 2009.13,888.024 L 2006.55,884.948 L 1995.66,876.013 L 1983.24,869.375 L 1969.76,865.287 L 1955.75,863.906 L 1951.75,864.252 L 1345.82,864.06 L 1343.95,863.491 L 1340.7,861.323 L 1210.17,730.795 L 1208.93,729.279 L 1207.44,725.675 L 1207.4,712.554 L 1207.86,710.85 L 1209.64,707.817 L 1217.46,701.199 L 1229.8,686.459 L 1233.22,684.622 L 1237.07,684.224 L 1238.99,684.591 L 1242.42,686.39 L 1255.42,701.583 L 1272.98,715.677 L 1293.09,726.146 L 1305.63,730.229 L 1315.75,725.294 L 1315.75,691.493M 1312.87,1884.65 L 1296.46,1884.65 L 1290.74,1883.8 L 1287.18,1882.32 L 1283.97,1880.18 L 1280.09,1875.9 L 1278.27,1872.49 L 1276.87,1866.89 L 1276.77,1835.75 L 1243.41,1835.75 L 1236.75,1842.41 L 1236.53,1884.18 L 1237.35,1892.49 L 1239.64,1900.03 L 1243.35,1906.98 L 1248.35,1913.07 L 1254.44,1918.06 L 1261.39,1921.78 L 1268.93,1924.07 L 1277.23,1924.88 L 1306.2,1924.68 L 1312.87,1918 L 1312.87,1884.65M 1388.98,1835.75 L 1388.88,1866.89 L 1387.48,1872.49 L 1385.66,1875.9 L 1381.78,1880.18 L 1378.57,1882.32 L 1375.01,1883.8 L 1369.29,1884.65 L 1352.87,1884.65 L 1352.87,1918 L 1359.55,1924.68 L 1388.52,1924.88 L 1396.82,1924.07 L 1404.36,1921.78 L 1411.31,1918.07 L 1417.4,1913.07 L 1422.4,1906.98 L 1426.11,1900.03 L 1428.4,1892.49 L 1429.22,1884.18 L 1429,1842.41 L 1422.33,1835.75 L 1388.98,1835.75M 1276.77,1795.75 L 1276.87,1764.61 L 1278.27,1759 L 1280.09,1755.6 L 1283.97,1751.32 L 1287.18,1749.17 L 1290.74,1747.7 L 1296.46,1746.85 L 1312.87,1746.85 L 1312.87,1713.49 L 1306.2,1706.82 L 1277.23,1706.61 L 1268.93,1707.43 L 1261.39,1709.72 L 1254.44,1713.43 L 1248.35,1718.43 L 1243.35,1724.52 L 1239.64,1731.47 L 1237.35,1739.01 L 1236.53,1747.32 L 1236.75,1789.08 L 1243.41,1795.75 L 1276.77,1795.75M 1352.87,1746.85 L 1369.29,1746.85 L 1375.01,1747.7 L 1378.57,1749.17 L 1381.78,1751.32 L 1385.66,1755.6 L 1387.48,1759 L 1388.88,1764.61 L 1388.98,1795.75 L 1422.33,1795.75 L 1429,1789.08 L 1429.22,1747.32 L 1428.4,1739.01 L 1426.11,1731.47 L 1422.4,1724.52 L 1417.4,1718.43 L 1411.31,1713.43 L 1404.36,1709.72 L 1396.82,1707.43 L 1388.52,1706.61 L 1359.55,1706.82 L 1352.87,1713.49 L 1352.87,1746.85M 1355.75,691.493 L 1355.75,725.294 L 1365.87,730.229 L 1378.41,726.146 L 1398.52,715.677 L 1416.08,701.583 L 1430.55,684.333 L 1441.38,664.593 L 1447.21,646.099 L 1441.89,635.748 L 1408.89,635.748 L 1404.26,649.993 L 1396.42,663.572 L 1385.93,675.224 L 1373.25,684.44 L 1358.92,690.817 L 1355.75,691.493M 1408.89,595.748 L 1441.89,595.748 L 1447.21,585.397 L 1441.38,566.903 L 1430.55,547.163 L 1416.08,529.913 L 1398.52,515.819 L 1378.41,505.349 L 1365.87,501.267 L 1355.75,506.202 L 1355.75,540.004 L 1358.92,540.679 L 1373.25,547.056 L 1385.93,556.272 L 1396.42,567.924 L 1404.26,581.503 L 1408.89,595.748 z " style="fill-opacity:1.000000;fill:rgb(42,130,200);stroke:rgb(0,0,0);stroke-width:2"/></g>
<g fill-rule="evenodd"><path d="M 2112.99,3346.85 L 2117.91,3346.85 L 2121.75,3347.23 L 2125.45,3348.35 L 2128.85,3350.17 L 2131.83,3352.62 L 2134.28,3355.6 L 2136.1,3359 L 2137.22,3362.7 L 2137.6,3366.54 L 2137.6,3464.96 L 2136.75,3470.67 L 2135.27,3474.24 L 2131.83,3478.88 L 2128.85,3481.33 L 2125.45,3483.15 L 2119.84,3484.55 L 2045.08,3484.65 L 2041.24,3484.27 L 2037.55,3483.15 L 2034.14,3481.33 L 2031.16,3478.88 L 2028.71,3475.9 L 2026.89,3472.49 L 2025.49,3466.89 L 2025.49,3364.61 L 2026.89,3359 L 2029.86,3354.05 L 2034.14,3350.17 L 2038.21,3348.11 L 1997.58,3307.48 L 975.983,3307.48 L 969.839,3306.87 L 963.93,3305.08 L 958.485,3302.17 L 953.712,3298.25 L 635.135,2979.68 L 622.744,2982.31 L 608.752,2982.31 L 595.066,2979.4 L 582.283,2973.71 L 570.964,2965.49 L 561.601,2955.09 L 554.605,2942.97 L 550.281,2929.66 L 548.819,2915.75 L 550.281,2901.83 L 554.605,2888.53 L 561.601,2876.41 L 570.964,2866.01 L 582.283,2857.79 L 595.066,2852.09 L 608.752,2849.19 L 622.744,2849.19 L 636.43,2852.09 L 649.213,2857.79 L 660.532,2866.01 L 669.895,2876.41 L 676.891,2888.53 L 681.215,2901.83 L 682.677,2915.75 L 681.215,2929.66 L 679.496,2934.95 L 989.029,3244.49 L 2010.63,3244.49 L 2016.77,3245.09 L 2022.68,3246.88 L 2028.13,3249.8 L 2032.9,3253.71 L 2103.77,3324.58 L 2107.68,3329.35 L 2110.59,3334.8 L 2112.39,3340.71 L 2112.99,3346.85 z " style="fill-opacity:1.000000;fill:rgb(216,254,67);stroke:rgb(0,0,0);stroke-width:2"/></g>
<g fill-rule="evenodd"><path d="M 2104.25,537.008 L 2104.25,487.062 L 2004.43,387.244 L 768.794,387.244 L 667.244,488.794 L 667.244,1022.7 L 1120.89,1476.35 L 1124.81,1481.12 L 1127.72,1486.57 L 1129.51,1492.48 L 1130.12,1498.62 L 1130.12,1746.85 L 1135.04,1746.85 L 1138.88,1747.23 L 1142.57,1748.35 L 1145.98,1750.17 L 1148.96,1752.62 L 1151.41,1755.6 L 1153.23,1759 L 1154.35,1762.7 L 1154.72,1766.54 L 1154.63,1866.89 L 1153.23,1872.49 L 1151.41,1875.9 L 1148.96,1878.88 L 1145.98,1881.33 L 1142.57,1883.15 L 1138.88,1884.27 L 1135.04,1884.65 L 1130.12,1884.65 L 1129.51,1890.79 L 1127.72,1896.7 L 1124.81,1902.14 L 1120.89,1906.92 L 889.791,2138.02 L 885.018,2141.94 L 879.573,2144.85 L 873.664,2146.64 L 867.52,2147.24 L 674.424,2147.24 L 669.895,2155.09 L 660.532,2165.49 L 649.213,2173.71 L 636.43,2179.4 L 622.744,2182.31 L 608.752,2182.31 L 595.066,2179.4 L 582.283,2173.71 L 570.964,2165.49 L 561.601,2155.09 L 554.605,2142.97 L 550.281,2129.66 L 548.819,2115.75 L 550.281,2101.83 L 554.605,2088.53 L 561.601,2076.41 L 570.964,2066.01 L 582.283,2057.79 L 595.066,2052.09 L 608.752,2049.19 L 622.744,2049.19 L 636.43,2052.09 L 649.213,2057.79 L 660.532,2066.01 L 669.895,2076.41 L 674.424,2084.25 L 854.474,2084.25 L 1055.34,1883.39 L 1051.27,1881.33 L 1046.99,1877.45 L 1044.02,1872.49 L 1042.61,1866.89 L 1042.61,1764.61 L 1044.02,1759 L 1045.84,1755.6 L 1048.29,1752.62 L 1051.27,1750.17 L 1054.67,1748.35 L 1058.36,1747.23 L 1062.2,1746.85 L 1067.13,1746.85 L 1067.13,1511.67 L 613.477,1058.02 L 609.56,1053.25 L 606.649,1047.8 L 604.857,1041.89 L 604.252,1035.75 L 604.252,475.748 L 604.857,469.603 L 606.649,463.695 L 609.56,458.25 L 613.477,453.477 L 733.477,333.477 L 738.25,329.56 L 743.695,326.649 L 749.603,324.857 L 755.748,324.252 L 2017.48,324.252 L 2023.62,324.857 L 2029.53,326.649 L 2034.98,329.56 L 2039.75,333.477 L 2158.02,451.745 L 2161.94,456.517 L 2164.85,461.963 L 2166.64,467.871 L 2167.24,474.016 L 2167.24,537.008 L 2210.75,537.008 L 2210.75,694.488 L 2060.75,694.488 L 2060.75,537.008 L 2104.25,537.008 z " style="fill-opacity:1.000000;fill:rgb(77,152,85);stroke:rgb(0,0,0);stroke-width:2"/></g>
<g fill-rule="evenodd"><path d="M 1659.31,3083.29 L 1656.01,3084.27 L 1652.17,3084.65 L 1579.33,3084.65 L 1575.49,3084.27 L 1571.8,3083.15 L 1568.39,3081.33 L 1565.41,3078.88 L 1562.96,3075.9 L 1560.49,3070.67 L 1559.65,3064.96 L 1559.65,3047.24 L 1371.85,3047.24 L 1371.85,3064.96 L 1371,3070.67 L 1368.53,3075.9 L 1366.08,3078.88 L 1363.1,3081.33 L 1359.7,3083.15 L 1356.01,3084.27 L 1352.17,3084.65 L 1279.33,3084.65 L 1273.62,3083.8 L 1268.39,3081.33 L 1264.11,3077.45 L 1261.14,3072.49 L 1259.74,3066.89 L 1259.65,2966.54 L 1260.49,2960.82 L 1262.96,2955.6 L 1266.84,2951.32 L 1271.8,2948.35 L 1277.4,2946.95 L 1354.09,2946.95 L 1359.7,2948.35 L 1363.1,2950.17 L 1366.08,2952.62 L 1369.53,2957.26 L 1371,2960.82 L 1371.76,2964.61 L 1371.85,2984.25 L 1559.65,2984.25 L 1559.65,2966.54 L 1560.49,2960.82 L 1562.96,2955.6 L 1565.41,2952.62 L 1568.39,2950.17 L 1571.8,2948.35 L 1575.49,2947.23 L 1579.33,2946.85 L 1652.17,2946.85 L 1657.88,2947.7 L 1663.1,2950.17 L 1666.08,2952.62 L 1669.53,2957.26 L 1671.47,2962.7 L 1671.85,2966.54 L 1671.85,3006.75 L 1807.23,3142.12 L 3093.62,3142.12 L 3099.77,3142.73 L 3105.67,3144.52 L 3111.12,3147.43 L 3115.89,3151.35 L 3457.6,3493.06 L 3479.25,3483.42 L 3503.4,3478.28 L 3528.09,3478.28 L 3552.25,3483.42 L 3574.8,3493.46 L 3594.78,3507.98 L 3611.3,3526.32 L 3623.65,3547.71 L 3631.28,3571.19 L 3633.86,3595.75 L 3631.28,3620.3 L 3623.65,3643.79 L 3611.3,3665.17 L 3594.78,3683.52 L 3574.8,3698.03 L 3552.25,3708.08 L 3528.09,3713.21 L 3503.4,3713.21 L 3479.25,3708.08 L 3456.69,3698.03 L 3436.72,3683.52 L 3420.19,3665.17 L 3407.85,3643.79 L 3400.22,3620.3 L 3397.64,3595.75 L 3400.22,3571.19 L 3407.85,3547.71 L 3413.46,3538 L 3080.57,3205.12 L 1794.18,3205.12 L 1788.04,3204.51 L 1782.13,3202.72 L 1776.68,3199.81 L 1771.91,3195.89 L 1659.31,3083.29 z " style="fill-opacity:1.000000;fill:rgb(140,226,179);stroke:rgb(0,0,0);stroke-width:2"/></g>
<g fill-rule="evenodd"><path d="M 1057.14,2546.85 L 1119.84,2546.95 L 1125.45,2548.35 L 1128.85,2550.17 L 1131.83,2552.62 L 1135.27,2557.26 L 1136.75,2560.82 L 1137.6,2566.54 L 1137.5,2666.89 L 1136.1,2672.49 L 1134.28,2675.9 L 1131.83,2678.88 L 1127.19,2682.32 L 1123.63,2683.8 L 1117.91,2684.65 L 1045.08,2684.65 L 1041.24,2684.27 L 1037.55,2683.15 L 1032.59,2680.18 L 1029.86,2677.45 L 1027.72,2674.24 L 1026.24,2670.67 L 1025.49,2666.89 L 1025.39,2604.19 L 968.45,2547.24 L 674.424,2547.24 L 669.895,2555.09 L 660.532,2565.49 L 649.213,2573.71 L 636.43,2579.4 L 622.744,2582.31 L 608.752,2582.31 L 595.066,2579.4 L 582.283,2573.71 L 570.964,2565.49 L 561.601,2555.09 L 554.605,2542.97 L 550.281,2529.66 L 548.819,2515.75 L 550.281,2501.83 L 554.605,2488.53 L 561.601,2476.41 L 570.964,2466.01 L 582.283,2457.79 L 595.066,2452.09 L 608.752,2449.19 L 622.744,2449.19 L 636.43,2452.09 L 649.213,2457.79 L 660.532,2466.01 L 669.895,2476.41 L 674.424,2484.25 L 981.496,2484.25 L 987.641,2484.86 L 993.549,2486.65 L 998.994,2489.56 L 1003.77,2493.48 L 1057.14,2546.85 z " style="fill-opacity:1.000000;fill:rgb(71,23,17);stroke:rgb(0,0,0);stroke-width:2"/></g>
<g fill-rule="evenodd"><path d="M 1025.39,3384.25 L 1025.49,3364.61 L 1026.89,3359 L 1028.71,3355.6 L 1031.16,3352.62 L 1034.14,3350.17 L 1039.36,3347.7 L 1045.08,3346.85 L 1117.91,3346.85 L 1121.75,3347.23 L 1125.45,3348.35 L 1130.4,3351.32 L 1133.13,3354.05 L 1136.1,3359 L 1137.22,3362.7 L 1137.6,3366.54 L 1137.6,3464.96 L 1137.22,3468.8 L 1136.1,3472.49 L 1133.13,3477.45 L 1130.4,3480.18 L 1127.19,3482.32 L 1123.63,3483.8 L 1119.84,3484.55 L 1045.08,3484.65 L 1039.36,3483.8 L 1034.14,3481.33 L 1031.16,3478.88 L 1028.71,3475.9 L 1026.89,3472.49 L 1025.49,3466.89 L 1025.39,3447.24 L 821.096,3447.24 L 814.951,3446.64 L 809.043,3444.85 L 803.598,3441.94 L 798.825,3438.02 L 593.477,3232.67 L 589.56,3227.9 L 586.649,3222.45 L 584.857,3216.54 L 584.252,3210.4 L 584.252,3174.59 L 582.283,3173.71 L 570.964,3165.49 L 561.601,3155.09 L 554.605,3142.97 L 550.281,3129.66 L 548.819,3115.75 L 550.281,3101.83 L 554.605,3088.53 L 561.601,3076.41 L 570.964,3066.01 L 582.283,3057.79 L 595.066,3052.09 L 608.752,3049.19 L 622.744,3049.19 L 636.43,3052.09 L 649.213,3057.79 L 660.532,3066.01 L 669.895,3076.41 L 676.891,3088.53 L 681.215,3101.83 L 682.677,3115.75 L 681.215,3129.66 L 676.891,3142.97 L 669.895,3155.09 L 660.532,3165.49 L 649.213,3173.71 L 647.244,3174.59 L 647.244,3197.35 L 834.142,3384.25 L 1025.39,3384.25 z " style="fill-opacity:1.000000;fill:rgb(152,84,47);stroke:rgb(0,0,0);stroke-width:2"/></g>
<g fill-rule="evenodd"><path d="M 1025.39,2984.25 L 1025.49,2964.61 L 1026.89,2959 L 1028.71,2955.6 L 1031.16,2952.62 L 1034.14,2950.17 L 1039.36,2947.7 L 1045.08,2946.85 L 1117.91,2946.85 L 1121.75,2947.23 L 1125.45,2948.35 L 1130.4,2951.32 L 1133.13,2954.05 L 1136.1,2959 L 1137.22,2962.7 L 1137.6,2966.54 L 1137.6,3064.96 L 1137.22,3068.8 L 1136.1,3072.49 L 1133.13,3077.45 L 1130.4,3080.18 L 1125.45,3083.15 L 1121.75,3084.27 L 1117.91,3084.65 L 1043.15,3084.55 L 1037.55,3083.15 L 1032.59,3080.18 L 1028.71,3075.9 L 1026.89,3072.49 L 1025.77,3068.8 L 1025.39,3064.96 L 1025.39,3047.24 L 1010.4,3047.24 L 1004.26,3046.64 L 998.347,3044.85 L 992.902,3041.94 L 988.129,3038.02 L 697.354,2747.24 L 674.424,2747.24 L 669.895,2755.09 L 660.532,2765.49 L 649.213,2773.71 L 636.43,2779.4 L 622.744,2782.31 L 608.752,2782.31 L 595.066,2779.4 L 582.283,2773.71 L 570.964,2765.49 L 561.601,2755.09 L 554.605,2742.97 L 550.281,2729.66 L 548.819,2715.75 L 550.281,2701.83 L 554.605,2688.53 L 561.601,2676.41 L 570.964,2666.01 L 582.283,2657.79 L 595.066,2652.09 L 608.752,2649.19 L 622.744,2649.19 L 636.43,2652.09 L 649.213,2657.79 L 660.532,2666.01 L 669.895,2676.41 L 674.424,2684.25 L 710.4,2684.25 L 716.545,2684.86 L 722.453,2686.65 L 727.898,2689.56 L 732.671,2693.48 L 1023.45,2984.25 L 1025.39,2984.25 z " style="fill-opacity:1.000000;fill:rgb(17,45,5);stroke:rgb(0,0,0);stroke-width:2"/></g>
<g fill-rule="evenodd"><path d="M 1284.25,3856.91 L 1284.25,3484.65 L 1279.33,3484.65 L 1275.49,3484.27 L 1271.8,3483.15 L 1268.39,3481.33 L 1265.41,3478.88 L 1262.96,3475.9 L 1261.14,3472.49 L 1260.02,3468.8 L 1259.65,3464.96 L 1259.74,3364.61 L 1261.14,3359 L 1262.96,3355.6 L 1265.41,3352.62 L 1270.05,3349.17 L 1275.49,3347.23 L 1279.33,3346.85 L 1354.09,3346.95 L 1359.7,3348.35 L 1363.1,3350.17 L 1366.08,3352.62 L 1369.53,3357.26 L 1371.47,3362.7 L 1371.85,3366.54 L 1371.85,3464.96 L 1371.47,3468.8 L 1370.35,3472.49 L 1367.38,3477.45 L 1364.65,3480.18 L 1361.44,3482.32 L 1357.88,3483.8 L 1354.09,3484.55 L 1347.24,3484.65 L 1347.24,3856.91 L 1349.21,3857.79 L 1360.53,3866.01 L 1369.89,3876.41 L 1376.89,3888.53 L 1381.21,3901.83 L 1382.68,3915.75 L 1381.21,3929.66 L 1376.89,3942.97 L 1369.89,3955.09 L 1360.53,3965.49 L 1349.21,3973.71 L 1336.43,3979.4 L 1322.74,3982.31 L 1308.75,3982.31 L 1295.07,3979.4 L 1282.28,3973.71 L 1270.96,3965.49 L 1261.6,3955.09 L 1254.61,3942.97 L 1250.28,3929.66 L 1248.82,3915.75 L 1250.28,3901.83 L 1254.61,3888.53 L 1261.6,3876.41 L 1270.96,3866.01 L 1282.28,3857.79 L 1284.25,3856.91 z " style="fill-opacity:1.000000;fill:rgb(88,245,107);stroke:rgb(0,0,0);stroke-width:2"/></g>
<g fill-rule="evenodd"><path d="M 1590,2684.65 L 1583.15,2684.55 L 1577.55,2683.15 L 1572.59,2680.18 L 1568.71,2675.9 L 1566.89,2672.49 L 1565.49,2666.89 L 1565.39,2647.24 L 1371.85,2647.24 L 1371.85,2664.96 L 1371,2670.67 L 1368.53,2675.9 L 1366.08,2678.88 L 1363.1,2681.33 L 1359.7,2683.15 L 1356.01,2684.27 L 1352.17,2684.65 L 1279.33,2684.65 L 1275.49,2684.27 L 1271.8,2683.15 L 1266.84,2680.18 L 1264.11,2677.45 L 1261.14,2672.49 L 1259.74,2666.89 L 1259.65,2566.54 L 1260.02,2562.7 L 1261.14,2559 L 1264.11,2554.05 L 1266.84,2551.32 L 1271.8,2548.35 L 1277.4,2546.95 L 1354.09,2546.95 L 1359.7,2548.35 L 1363.1,2550.17 L 1366.08,2552.62 L 1369.53,2557.26 L 1371,2560.82 L 1371.76,2564.61 L 1371.85,2584.25 L 1565.39,2584.25 L 1565.49,2564.61 L 1566.89,2559 L 1568.71,2555.6 L 1571.16,2552.62 L 1574.14,2550.17 L 1579.36,2547.7 L 1585.08,2546.85 L 1657.91,2546.85 L 1663.63,2547.7 L 1667.19,2549.17 L 1671.83,2552.62 L 1674.28,2555.6 L 1676.1,2559 L 1677.5,2564.61 L 1677.6,2664.96 L 1676.75,2670.67 L 1674.28,2675.9 L 1670.4,2680.18 L 1667.19,2682.32 L 1664.78,2683.39 L 1823.75,2842.36 L 3384.59,2842.36 L 3413.46,2813.5 L 3407.85,2803.79 L 3400.22,2780.3 L 3397.64,2755.75 L 3400.22,2731.19 L 3407.85,2707.71 L 3420.19,2686.32 L 3436.72,2667.98 L 3456.69,2653.46 L 3479.25,2643.42 L 3503.4,2638.28 L 3528.09,2638.28 L 3552.25,2643.42 L 3574.8,2653.46 L 3594.78,2667.98 L 3611.3,2686.32 L 3623.65,2707.71 L 3631.28,2731.19 L 3633.86,2755.75 L 3631.28,2780.3 L 3623.65,2803.79 L 3611.3,2825.17 L 3594.78,2843.52 L 3574.8,2858.03 L 3552.25,2868.08 L 3528.09,2873.21 L 3503.4,2873.21 L 3479.25,2868.08 L 3457.6,2858.44 L 3419.91,2896.13 L 3415.14,2900.05 L 3409.69,2902.96 L 3403.78,2904.75 L 3397.64,2905.35 L 1810.71,2905.35 L 1804.56,2904.75 L 1798.66,2902.96 L 1793.21,2900.05 L 1788.44,2896.13 L 1599.22,2706.92 L 1595.31,2702.14 L 1592.4,2696.7 L 1590.61,2690.79 L 1590,2684.65 z " style="fill-opacity:1.000000;fill:rgb(214,136,7);stroke:rgb(0,0,0);stroke-width:2"/></g>
<g fill-rule="evenodd"><path d="M 1104.25,687.113 L 1098.25,684.44 L 1085.56,675.224 L 1075.07,663.572 L 1067.23,649.993 L 1062.39,635.082 L 1060.75,619.488 L 1060.75,612.008 L 1062.39,596.414 L 1067.23,581.503 L 1075.07,567.924 L 1085.56,556.272 L 1098.25,547.056 L 1112.57,540.679 L 1127.91,537.419 L 1143.59,537.419 L 1158.92,540.679 L 1173.25,547.056 L 1185.93,556.272 L 1196.42,567.924 L 1204.26,581.503 L 1209.11,596.414 L 1210.75,612.008 L 1210.75,619.488 L 1209.11,635.082 L 1204.26,649.993 L 1196.42,663.572 L 1185.93,675.224 L 1173.25,684.44 L 1167.24,687.113 L 1167.24,744.434 L 1327.06,904.252 L 1955.75,904.252 L 1961.89,904.857 L 1967.8,906.649 L 1973.25,909.56 L 1978.02,913.477 L 2258.02,1193.48 L 2261.94,1198.25 L 2264.85,1203.7 L 2266.64,1209.6 L 2267.24,1215.75 L 2267.24,1562.7 L 2718.56,2014.33 L 2768.5,2014.33 L 2768.5,2010.39 L 2862.99,2010.39 L 2862.99,2014.33 L 3012.62,2014.33 L 3133.48,1893.48 L 3138.25,1889.56 L 3143.7,1886.65 L 3149.6,1884.86 L 3155.75,1884.25 L 3402.47,1884.25 L 3407.85,1867.71 L 3420.19,1846.32 L 3436.72,1827.98 L 3456.69,1813.46 L 3479.25,1803.42 L 3503.4,1798.28 L 3528.09,1798.28 L 3552.25,1803.42 L 3574.8,1813.46 L 3594.78,1827.98 L 3611.3,1846.32 L 3623.65,1867.71 L 3631.28,1891.19 L 3633.86,1915.75 L 3631.28,1940.3 L 3623.65,1963.79 L 3611.3,1985.17 L 3594.78,2003.52 L 3574.8,2018.03 L 3552.25,2028.08 L 3528.09,2033.21 L 3503.4,2033.21 L 3479.25,2028.08 L 3456.69,2018.03 L 3436.72,2003.52 L 3420.19,1985.17 L 3407.85,1963.79 L 3402.47,1947.24 L 3168.79,1947.24 L 3047.94,2068.1 L 3043.17,2072.01 L 3037.72,2074.93 L 3031.81,2076.72 L 3025.67,2077.32 L 2862.99,2077.32 L 2862.99,2081.26 L 2768.5,2081.26 L 2768.5,2077.32 L 2705.51,2077.32 L 2699.37,2076.72 L 2693.46,2074.93 L 2688.01,2072.01 L 2683.24,2068.1 L 2213.48,1598.02 L 2209.56,1593.25 L 2206.65,1587.8 L 2204.86,1581.89 L 2204.25,1575.75 L 2204.25,1228.79 L 1942.7,967.244 L 1314.02,967.244 L 1307.87,966.639 L 1301.96,964.847 L 1296.52,961.936 L 1291.74,958.019 L 1113.48,779.751 L 1109.56,774.979 L 1106.65,769.533 L 1104.86,763.625 L 1104.25,757.48 L 1104.25,687.113 z " style="fill-opacity:1.000000;fill:rgb(153,146,72);stroke:rgb(0,0,0);stroke-width:2"/></g>
<g fill-rule="evenodd"><path d="M 674.424,2347.24 L 669.895,2355.09 L 660.532,2365.49 L 649.213,2373.71 L 636.43,2379.4 L 622.744,2382.31 L 608.752,2382.31 L 595.066,2379.4 L 582.283,2373.71 L 570.964,2365.49 L 561.601,2355.09 L 554.605,2342.97 L 550.281,2329.66 L 548.819,2315.75 L 550.281,2301.83 L 554.605,2288.53 L 561.601,2276.41 L 570.964,2266.01 L 582.283,2257.79 L 595.066,2252.09 L 608.752,2249.19 L 622.744,2249.19 L 636.43,2252.09 L 649.213,2257.79 L 660.532,2266.01 L 669.895,2276.41 L 674.423,2284.25 L 1577.35,2284.25 L 1578.21,2283.39 L 1574.14,2281.33 L 1569.86,2277.45 L 1566.89,2272.49 L 1565.49,2266.89 L 1565.39,2166.54 L 1565.77,2162.7 L 1566.89,2159 L 1569.86,2154.05 L 1572.59,2151.32 L 1575.8,2149.17 L 1579.36,2147.7 L 1583.15,2146.95 L 1590,2146.85 L 1590,1214.54 L 1445.07,1069.61 L 1216.38,1069.61 L 1210.23,1069 L 1204.33,1067.21 L 1198.88,1064.3 L 1194.11,1060.38 L 913.477,779.751 L 909.56,774.979 L 906.649,769.533 L 904.857,763.625 L 904.252,757.48 L 904.252,694.488 L 860.748,694.488 L 860.748,537.008 L 1010.75,537.008 L 1010.75,694.488 L 967.244,694.488 L 967.244,744.435 L 1229.42,1006.61 L 1458.11,1006.61 L 1464.26,1007.22 L 1470.16,1009.01 L 1475.61,1011.92 L 1480.38,1015.84 L 1643.77,1179.22 L 1647.68,1184 L 1650.59,1189.44 L 1652.39,1195.35 L 1652.99,1201.5 L 1652.99,2146.85 L 1657.91,2146.85 L 1661.75,2147.23 L 1665.45,2148.35 L 1668.85,2150.17 L 1671.83,2152.62 L 1674.28,2155.6 L 1676.1,2159 L 1677.22,2162.7 L 1677.6,2166.54 L 1677.6,2264.96 L 1677.22,2268.8 L 1676.1,2272.49 L 1674.28,2275.9 L 1671.83,2278.88 L 1668.85,2281.33 L 1665.45,2283.15 L 1661.75,2284.27 L 1657.91,2284.65 L 1652.99,2284.65 L 1652.39,2290.79 L 1650.59,2296.7 L 1647.68,2302.14 L 1643.77,2306.92 L 1612.66,2338.02 L 1607.89,2341.94 L 1602.45,2344.85 L 1596.54,2346.64 L 1590.39,2347.24 L 674.424,2347.24 z " style="fill-opacity:1.000000;fill:rgb(51,98,65);stroke:rgb(0,0,0);stroke-width:2"/></g>
<g fill-rule="evenodd"><path d="M 548.819,1684.25 L 548.819,1648.82 L 682.677,1648.82 L 682.677,1782.68 L 548.819,1782.68 L 548.819,1747.24 L 498.873,1747.24 L 367.244,1878.87 L 367.244,3642.7 L 1148.79,4424.25 L 3223.8,4424.25 L 3484.25,4163.8 L 3484.25,4113.86 L 3397.64,4113.86 L 3397.64,3877.64 L 3633.86,3877.64 L 3633.86,3964.25 L 3683.8,3964.25 L 3764.25,3883.8 L 3764.25,3267.69 L 3683.8,3187.24 L 3633.86,3187.24 L 3633.86,3273.86 L 3397.64,3273.86 L 3397.64,3037.64 L 3633.86,3037.64 L 3633.86,3124.25 L 3696.85,3124.25 L 3702.99,3124.86 L 3708.9,3126.65 L 3714.35,3129.56 L 3719.12,3133.48 L 3818.02,3232.37 L 3821.94,3237.15 L 3824.85,3242.59 L 3826.64,3248.5 L 3827.24,3254.65 L 3827.24,3896.85 L 3826.64,3902.99 L 3824.85,3908.9 L 3821.94,3914.35 L 3818.02,3919.12 L 3719.12,4018.02 L 3714.35,4021.94 L 3708.9,4024.85 L 3702.99,4026.64 L 3696.85,4027.24 L 3633.86,4027.24 L 3633.86,4113.86 L 3547.24,4113.86 L 3547.24,4176.85 L 3546.64,4182.99 L 3544.85,4188.9 L 3541.94,4194.35 L 3538.02,4199.12 L 3259.12,4478.02 L 3254.35,4481.94 L 3248.9,4484.85 L 3242.99,4486.64 L 3236.85,4487.24 L 1135.75,4487.24 L 1129.6,4486.64 L 1123.7,4484.85 L 1118.25,4481.94 L 1113.48,4478.02 L 313.477,3678.02 L 309.56,3673.25 L 306.649,3667.8 L 304.857,3661.89 L 304.252,3655.75 L 304.252,1865.83 L 304.857,1859.68 L 306.649,1853.77 L 309.56,1848.33 L 313.477,1843.56 L 463.556,1693.48 L 468.328,1689.56 L 473.774,1686.65 L 479.682,1684.86 L 485.827,1684.25 L 548.819,1684.25 z " style="fill-opacity:1.000000;fill:rgb(243,13,35);stroke:rgb(0,0,0);stroke-width:2"/></g>
<g fill-rule="evenodd"><path d="M 3397.64,2284.25 L 3397.64,2197.64 L 3633.86,2197.64 L 3633.86,2284.25 L 3673.23,2284.25 L 3673.23,1507.24 L 3633.86,1507.24 L 3633.86,1593.86 L 3397.64,1593.86 L 3397.64,1507.24 L 3188.79,1507.24 L 3118.18,1577.86 L 3113.4,1581.78 L 3107.96,1584.69 L 3102.05,1586.48 L 3095.91,1587.09 L 2862.99,1587.09 L 2862.99,1591.02 L 2768.5,1591.02 L 2768.5,1520.16 L 2862.99,1520.16 L 2862.99,1524.09 L 3082.86,1524.09 L 3153.48,1453.48 L 3158.25,1449.56 L 3163.7,1446.65 L 3169.6,1444.86 L 3175.75,1444.25 L 3397.64,1444.25 L 3397.64,1357.64 L 3633.86,1357.64 L 3633.86,1444.25 L 3673.23,1444.25 L 3673.23,763.119 L 3417.35,507.244 L 3394.42,507.244 L 3389.89,515.088 L 3380.53,525.486 L 3369.21,533.71 L 3356.43,539.401 L 3342.74,542.311 L 3328.75,542.311 L 3315.07,539.401 L 3302.28,533.71 L 3290.96,525.486 L 3281.6,515.088 L 3274.61,502.971 L 3270.28,489.663 L 3268.82,475.748 L 3270.28,461.833 L 3274.61,448.526 L 3281.6,436.408 L 3290.96,426.01 L 3302.28,417.786 L 3315.07,412.095 L 3328.75,409.186 L 3342.74,409.186 L 3356.43,412.095 L 3369.21,417.786 L 3380.53,426.01 L 3389.89,436.408 L 3394.42,444.252 L 3430.4,444.252 L 3436.54,444.857 L 3442.45,446.649 L 3447.9,449.56 L 3452.67,453.477 L 3727,727.801 L 3730.91,732.574 L 3733.82,738.019 L 3735.62,743.928 L 3736.22,750.072 L 3736.22,1467.87 L 3735.62,1474.02 L 3735.09,1475.75 L 3735.62,1477.48 L 3736.22,1483.62 L 3736.22,2307.87 L 3735.62,2314.02 L 3733.82,2319.93 L 3730.91,2325.37 L 3727,2330.15 L 3719.12,2338.02 L 3714.35,2341.94 L 3708.9,2344.85 L 3702.99,2346.64 L 3696.85,2347.24 L 3633.86,2347.24 L 3633.86,2433.86 L 3397.64,2433.86 L 3397.64,2347.24 L 2825.83,2347.24 L 2819.68,2346.64 L 2813.77,2344.85 L 2808.33,2341.94 L 2807.31,2341.1 L 2768.5,2341.1 L 2768.5,2270.24 L 2862.99,2270.24 L 2862.99,2284.25 L 3397.64,2284.25 z " style="fill-opacity:1.000000;fill:rgb(229,95,48);stroke:rgb(0,0,0);stroke-width:2"/></g>
<g fill-rule="evenodd"><path d="M 2284.25,3484.65 L 2279.33,3484.65 L 2275.49,3484.27 L 2271.8,3483.15 L 2268.39,3481.33 L 2265.41,3478.88 L 2262.96,3475.9 L 2261.14,3472.49 L 2260.02,3468.8 L 2259.65,3464.96 L 2259.65,3366.54 L 2260.49,3360.82 L 2261.97,3357.26 L 2265.41,3352.62 L 2268.39,3350.17 L 2271.8,3348.35 L 2277.4,3346.95 L 2352.17,3346.85 L 2357.88,3347.7 L 2361.44,3349.17 L 2366.08,3352.62 L 2368.53,3355.6 L 2370.35,3359 L 2371.76,3364.61 L 2371.85,3464.96 L 2371.47,3468.8 L 2370.35,3472.49 L 2367.38,3477.45 L 2364.65,3480.18 L 2361.44,3482.32 L 2357.88,3483.8 L 2354.09,3484.55 L 2347.24,3484.65 L 2347.24,3856.91 L 2349.21,3857.79 L 2360.53,3866.01 L 2369.89,3876.41 L 2376.89,3888.53 L 2381.21,3901.83 L 2382.68,3915.75 L 2381.21,3929.66 L 2376.89,3942.97 L 2369.89,3955.09 L 2360.53,3965.49 L 2349.21,3973.71 L 2336.43,3979.4 L 2322.74,3982.31 L 2308.75,3982.31 L 2295.07,3979.4 L 2282.28,3973.71 L 2270.96,3965.49 L 2261.6,3955.09 L 2254.61,3942.97 L 2250.28,3929.66 L 2248.82,3915.75 L 2250.28,3901.83 L 2254.61,3888.53 L 2261.6,3876.41 L 2270.96,3866.01 L 2282.28,3857.79 L 2284.25,3856.91 L 2284.25,3484.65 z " style="fill-opacity:1.000000;fill:rgb(209,200,237);stroke:rgb(0,0,0);stroke-width:2"/></g>
<g fill-rule="evenodd"><path d="M 3402.47,1107.24 L 2950.37,1107.24 L 2847.24,1210.37 L 2847.24,1260.31 L 2862.99,1260.31 L 2862.99,1331.18 L 2768.5,1331.18 L 2768.5,1327.24 L 2705.51,1327.24 L 2699.37,1326.64 L 2693.46,1324.85 L 2688.01,1321.94 L 2683.24,1318.02 L 2313.48,948.255 L 2309.56,943.483 L 2306.65,938.037 L 2304.86,932.129 L 2304.25,925.984 L 2304.25,687.113 L 2298.25,684.44 L 2285.56,675.224 L 2275.07,663.572 L 2267.23,649.993 L 2262.39,635.082 L 2260.75,619.488 L 2260.75,612.008 L 2262.39,596.414 L 2267.23,581.503 L 2275.07,567.924 L 2285.56,556.272 L 2298.25,547.056 L 2312.57,540.679 L 2327.91,537.419 L 2343.59,537.419 L 2358.92,540.679 L 2373.25,547.056 L 2385.93,556.272 L 2396.42,567.924 L 2404.26,581.503 L 2409.11,596.414 L 2410.75,612.008 L 2410.75,619.488 L 2409.11,635.082 L 2404.26,649.993 L 2396.42,663.572 L 2385.93,675.224 L 2373.25,684.44 L 2367.24,687.113 L 2367.24,912.938 L 2718.56,1264.25 L 2768.5,1264.25 L 2768.5,1260.31 L 2784.25,1260.31 L 2784.25,1197.32 L 2784.86,1191.18 L 2786.65,1185.27 L 2789.56,1179.82 L 2793.48,1175.05 L 2915.05,1053.48 L 2919.82,1049.56 L 2925.27,1046.65 L 2931.18,1044.86 L 2937.32,1044.25 L 3402.47,1044.25 L 3407.85,1027.71 L 3420.19,1006.32 L 3436.72,987.975 L 3456.69,973.462 L 3479.25,963.419 L 3503.4,958.285 L 3528.09,958.285 L 3552.25,963.419 L 3574.8,973.462 L 3594.78,987.975 L 3611.3,1006.32 L 3623.65,1027.71 L 3631.28,1051.19 L 3633.86,1075.75 L 3631.28,1100.3 L 3623.65,1123.79 L 3611.3,1145.17 L 3594.78,1163.52 L 3574.8,1178.03 L 3552.25,1188.08 L 3528.09,1193.21 L 3503.4,1193.21 L 3479.25,1188.08 L 3456.69,1178.03 L 3436.72,1163.52 L 3420.19,1145.17 L 3407.85,1123.79 L 3402.47,1107.24 z " style="fill-opacity:1.000000;fill:rgb(97,12,75);stroke:rgb(0,0,0);stroke-width:2"/></g>
</svg>
