G04 #@! TF.GenerationSoftware,KiCad,Pcbnew,(5.1.5-0-10_14)*
G04 #@! TF.CreationDate,2020-02-26T21:45:07+01:00*
G04 #@! TF.ProjectId,sprinkler_pi,73707269-6e6b-46c6-9572-5f70692e6b69,rev?*
G04 #@! TF.SameCoordinates,Original*
G04 #@! TF.FileFunction,Copper,L2,Bot*
G04 #@! TF.FilePolarity,Positive*
%FSLAX46Y46*%
G04 Gerber Fmt 4.6, Leading zero omitted, Abs format (unit mm)*
G04 Created by KiCad (PCBNEW (5.1.5-0-10_14)) date 2020-02-26 21:45:07*
%MOMM*%
%LPD*%
G04 APERTURE LIST*
%ADD10C,0.100000*%
%ADD11O,1.700000X1.700000*%
%ADD12R,1.700000X1.700000*%
%ADD13C,3.000000*%
%ADD14R,3.000000X3.000000*%
%ADD15O,1.905000X2.000000*%
%ADD16R,1.905000X2.000000*%
%ADD17R,1.200000X0.900000*%
%ADD18C,0.800000*%
%ADD19C,0.254000*%
G04 APERTURE END LIST*
G04 #@! TA.AperFunction,SMDPad,CuDef*
D10*
G36*
X93197004Y-77866204D02*
G01*
X93221273Y-77869804D01*
X93245071Y-77875765D01*
X93268171Y-77884030D01*
X93290349Y-77894520D01*
X93311393Y-77907133D01*
X93331098Y-77921747D01*
X93349277Y-77938223D01*
X93365753Y-77956402D01*
X93380367Y-77976107D01*
X93392980Y-77997151D01*
X93403470Y-78019329D01*
X93411735Y-78042429D01*
X93417696Y-78066227D01*
X93421296Y-78090496D01*
X93422500Y-78115000D01*
X93422500Y-79365000D01*
X93421296Y-79389504D01*
X93417696Y-79413773D01*
X93411735Y-79437571D01*
X93403470Y-79460671D01*
X93392980Y-79482849D01*
X93380367Y-79503893D01*
X93365753Y-79523598D01*
X93349277Y-79541777D01*
X93331098Y-79558253D01*
X93311393Y-79572867D01*
X93290349Y-79585480D01*
X93268171Y-79595970D01*
X93245071Y-79604235D01*
X93221273Y-79610196D01*
X93197004Y-79613796D01*
X93172500Y-79615000D01*
X92247500Y-79615000D01*
X92222996Y-79613796D01*
X92198727Y-79610196D01*
X92174929Y-79604235D01*
X92151829Y-79595970D01*
X92129651Y-79585480D01*
X92108607Y-79572867D01*
X92088902Y-79558253D01*
X92070723Y-79541777D01*
X92054247Y-79523598D01*
X92039633Y-79503893D01*
X92027020Y-79482849D01*
X92016530Y-79460671D01*
X92008265Y-79437571D01*
X92002304Y-79413773D01*
X91998704Y-79389504D01*
X91997500Y-79365000D01*
X91997500Y-78115000D01*
X91998704Y-78090496D01*
X92002304Y-78066227D01*
X92008265Y-78042429D01*
X92016530Y-78019329D01*
X92027020Y-77997151D01*
X92039633Y-77976107D01*
X92054247Y-77956402D01*
X92070723Y-77938223D01*
X92088902Y-77921747D01*
X92108607Y-77907133D01*
X92129651Y-77894520D01*
X92151829Y-77884030D01*
X92174929Y-77875765D01*
X92198727Y-77869804D01*
X92222996Y-77866204D01*
X92247500Y-77865000D01*
X93172500Y-77865000D01*
X93197004Y-77866204D01*
G37*
G04 #@! TD.AperFunction*
G04 #@! TA.AperFunction,SMDPad,CuDef*
G36*
X90222004Y-77866204D02*
G01*
X90246273Y-77869804D01*
X90270071Y-77875765D01*
X90293171Y-77884030D01*
X90315349Y-77894520D01*
X90336393Y-77907133D01*
X90356098Y-77921747D01*
X90374277Y-77938223D01*
X90390753Y-77956402D01*
X90405367Y-77976107D01*
X90417980Y-77997151D01*
X90428470Y-78019329D01*
X90436735Y-78042429D01*
X90442696Y-78066227D01*
X90446296Y-78090496D01*
X90447500Y-78115000D01*
X90447500Y-79365000D01*
X90446296Y-79389504D01*
X90442696Y-79413773D01*
X90436735Y-79437571D01*
X90428470Y-79460671D01*
X90417980Y-79482849D01*
X90405367Y-79503893D01*
X90390753Y-79523598D01*
X90374277Y-79541777D01*
X90356098Y-79558253D01*
X90336393Y-79572867D01*
X90315349Y-79585480D01*
X90293171Y-79595970D01*
X90270071Y-79604235D01*
X90246273Y-79610196D01*
X90222004Y-79613796D01*
X90197500Y-79615000D01*
X89272500Y-79615000D01*
X89247996Y-79613796D01*
X89223727Y-79610196D01*
X89199929Y-79604235D01*
X89176829Y-79595970D01*
X89154651Y-79585480D01*
X89133607Y-79572867D01*
X89113902Y-79558253D01*
X89095723Y-79541777D01*
X89079247Y-79523598D01*
X89064633Y-79503893D01*
X89052020Y-79482849D01*
X89041530Y-79460671D01*
X89033265Y-79437571D01*
X89027304Y-79413773D01*
X89023704Y-79389504D01*
X89022500Y-79365000D01*
X89022500Y-78115000D01*
X89023704Y-78090496D01*
X89027304Y-78066227D01*
X89033265Y-78042429D01*
X89041530Y-78019329D01*
X89052020Y-77997151D01*
X89064633Y-77976107D01*
X89079247Y-77956402D01*
X89095723Y-77938223D01*
X89113902Y-77921747D01*
X89133607Y-77907133D01*
X89154651Y-77894520D01*
X89176829Y-77884030D01*
X89199929Y-77875765D01*
X89223727Y-77869804D01*
X89247996Y-77866204D01*
X89272500Y-77865000D01*
X90197500Y-77865000D01*
X90222004Y-77866204D01*
G37*
G04 #@! TD.AperFunction*
G04 #@! TA.AperFunction,SMDPad,CuDef*
G36*
X100055004Y-67706204D02*
G01*
X100079273Y-67709804D01*
X100103071Y-67715765D01*
X100126171Y-67724030D01*
X100148349Y-67734520D01*
X100169393Y-67747133D01*
X100189098Y-67761747D01*
X100207277Y-67778223D01*
X100223753Y-67796402D01*
X100238367Y-67816107D01*
X100250980Y-67837151D01*
X100261470Y-67859329D01*
X100269735Y-67882429D01*
X100275696Y-67906227D01*
X100279296Y-67930496D01*
X100280500Y-67955000D01*
X100280500Y-69205000D01*
X100279296Y-69229504D01*
X100275696Y-69253773D01*
X100269735Y-69277571D01*
X100261470Y-69300671D01*
X100250980Y-69322849D01*
X100238367Y-69343893D01*
X100223753Y-69363598D01*
X100207277Y-69381777D01*
X100189098Y-69398253D01*
X100169393Y-69412867D01*
X100148349Y-69425480D01*
X100126171Y-69435970D01*
X100103071Y-69444235D01*
X100079273Y-69450196D01*
X100055004Y-69453796D01*
X100030500Y-69455000D01*
X99105500Y-69455000D01*
X99080996Y-69453796D01*
X99056727Y-69450196D01*
X99032929Y-69444235D01*
X99009829Y-69435970D01*
X98987651Y-69425480D01*
X98966607Y-69412867D01*
X98946902Y-69398253D01*
X98928723Y-69381777D01*
X98912247Y-69363598D01*
X98897633Y-69343893D01*
X98885020Y-69322849D01*
X98874530Y-69300671D01*
X98866265Y-69277571D01*
X98860304Y-69253773D01*
X98856704Y-69229504D01*
X98855500Y-69205000D01*
X98855500Y-67955000D01*
X98856704Y-67930496D01*
X98860304Y-67906227D01*
X98866265Y-67882429D01*
X98874530Y-67859329D01*
X98885020Y-67837151D01*
X98897633Y-67816107D01*
X98912247Y-67796402D01*
X98928723Y-67778223D01*
X98946902Y-67761747D01*
X98966607Y-67747133D01*
X98987651Y-67734520D01*
X99009829Y-67724030D01*
X99032929Y-67715765D01*
X99056727Y-67709804D01*
X99080996Y-67706204D01*
X99105500Y-67705000D01*
X100030500Y-67705000D01*
X100055004Y-67706204D01*
G37*
G04 #@! TD.AperFunction*
G04 #@! TA.AperFunction,SMDPad,CuDef*
G36*
X97080004Y-67706204D02*
G01*
X97104273Y-67709804D01*
X97128071Y-67715765D01*
X97151171Y-67724030D01*
X97173349Y-67734520D01*
X97194393Y-67747133D01*
X97214098Y-67761747D01*
X97232277Y-67778223D01*
X97248753Y-67796402D01*
X97263367Y-67816107D01*
X97275980Y-67837151D01*
X97286470Y-67859329D01*
X97294735Y-67882429D01*
X97300696Y-67906227D01*
X97304296Y-67930496D01*
X97305500Y-67955000D01*
X97305500Y-69205000D01*
X97304296Y-69229504D01*
X97300696Y-69253773D01*
X97294735Y-69277571D01*
X97286470Y-69300671D01*
X97275980Y-69322849D01*
X97263367Y-69343893D01*
X97248753Y-69363598D01*
X97232277Y-69381777D01*
X97214098Y-69398253D01*
X97194393Y-69412867D01*
X97173349Y-69425480D01*
X97151171Y-69435970D01*
X97128071Y-69444235D01*
X97104273Y-69450196D01*
X97080004Y-69453796D01*
X97055500Y-69455000D01*
X96130500Y-69455000D01*
X96105996Y-69453796D01*
X96081727Y-69450196D01*
X96057929Y-69444235D01*
X96034829Y-69435970D01*
X96012651Y-69425480D01*
X95991607Y-69412867D01*
X95971902Y-69398253D01*
X95953723Y-69381777D01*
X95937247Y-69363598D01*
X95922633Y-69343893D01*
X95910020Y-69322849D01*
X95899530Y-69300671D01*
X95891265Y-69277571D01*
X95885304Y-69253773D01*
X95881704Y-69229504D01*
X95880500Y-69205000D01*
X95880500Y-67955000D01*
X95881704Y-67930496D01*
X95885304Y-67906227D01*
X95891265Y-67882429D01*
X95899530Y-67859329D01*
X95910020Y-67837151D01*
X95922633Y-67816107D01*
X95937247Y-67796402D01*
X95953723Y-67778223D01*
X95971902Y-67761747D01*
X95991607Y-67747133D01*
X96012651Y-67734520D01*
X96034829Y-67724030D01*
X96057929Y-67715765D01*
X96081727Y-67709804D01*
X96105996Y-67706204D01*
X96130500Y-67705000D01*
X97055500Y-67705000D01*
X97080004Y-67706204D01*
G37*
G04 #@! TD.AperFunction*
G04 #@! TA.AperFunction,SMDPad,CuDef*
G36*
X90222004Y-67706204D02*
G01*
X90246273Y-67709804D01*
X90270071Y-67715765D01*
X90293171Y-67724030D01*
X90315349Y-67734520D01*
X90336393Y-67747133D01*
X90356098Y-67761747D01*
X90374277Y-67778223D01*
X90390753Y-67796402D01*
X90405367Y-67816107D01*
X90417980Y-67837151D01*
X90428470Y-67859329D01*
X90436735Y-67882429D01*
X90442696Y-67906227D01*
X90446296Y-67930496D01*
X90447500Y-67955000D01*
X90447500Y-69205000D01*
X90446296Y-69229504D01*
X90442696Y-69253773D01*
X90436735Y-69277571D01*
X90428470Y-69300671D01*
X90417980Y-69322849D01*
X90405367Y-69343893D01*
X90390753Y-69363598D01*
X90374277Y-69381777D01*
X90356098Y-69398253D01*
X90336393Y-69412867D01*
X90315349Y-69425480D01*
X90293171Y-69435970D01*
X90270071Y-69444235D01*
X90246273Y-69450196D01*
X90222004Y-69453796D01*
X90197500Y-69455000D01*
X89272500Y-69455000D01*
X89247996Y-69453796D01*
X89223727Y-69450196D01*
X89199929Y-69444235D01*
X89176829Y-69435970D01*
X89154651Y-69425480D01*
X89133607Y-69412867D01*
X89113902Y-69398253D01*
X89095723Y-69381777D01*
X89079247Y-69363598D01*
X89064633Y-69343893D01*
X89052020Y-69322849D01*
X89041530Y-69300671D01*
X89033265Y-69277571D01*
X89027304Y-69253773D01*
X89023704Y-69229504D01*
X89022500Y-69205000D01*
X89022500Y-67955000D01*
X89023704Y-67930496D01*
X89027304Y-67906227D01*
X89033265Y-67882429D01*
X89041530Y-67859329D01*
X89052020Y-67837151D01*
X89064633Y-67816107D01*
X89079247Y-67796402D01*
X89095723Y-67778223D01*
X89113902Y-67761747D01*
X89133607Y-67747133D01*
X89154651Y-67734520D01*
X89176829Y-67724030D01*
X89199929Y-67715765D01*
X89223727Y-67709804D01*
X89247996Y-67706204D01*
X89272500Y-67705000D01*
X90197500Y-67705000D01*
X90222004Y-67706204D01*
G37*
G04 #@! TD.AperFunction*
G04 #@! TA.AperFunction,SMDPad,CuDef*
G36*
X93197004Y-67706204D02*
G01*
X93221273Y-67709804D01*
X93245071Y-67715765D01*
X93268171Y-67724030D01*
X93290349Y-67734520D01*
X93311393Y-67747133D01*
X93331098Y-67761747D01*
X93349277Y-67778223D01*
X93365753Y-67796402D01*
X93380367Y-67816107D01*
X93392980Y-67837151D01*
X93403470Y-67859329D01*
X93411735Y-67882429D01*
X93417696Y-67906227D01*
X93421296Y-67930496D01*
X93422500Y-67955000D01*
X93422500Y-69205000D01*
X93421296Y-69229504D01*
X93417696Y-69253773D01*
X93411735Y-69277571D01*
X93403470Y-69300671D01*
X93392980Y-69322849D01*
X93380367Y-69343893D01*
X93365753Y-69363598D01*
X93349277Y-69381777D01*
X93331098Y-69398253D01*
X93311393Y-69412867D01*
X93290349Y-69425480D01*
X93268171Y-69435970D01*
X93245071Y-69444235D01*
X93221273Y-69450196D01*
X93197004Y-69453796D01*
X93172500Y-69455000D01*
X92247500Y-69455000D01*
X92222996Y-69453796D01*
X92198727Y-69450196D01*
X92174929Y-69444235D01*
X92151829Y-69435970D01*
X92129651Y-69425480D01*
X92108607Y-69412867D01*
X92088902Y-69398253D01*
X92070723Y-69381777D01*
X92054247Y-69363598D01*
X92039633Y-69343893D01*
X92027020Y-69322849D01*
X92016530Y-69300671D01*
X92008265Y-69277571D01*
X92002304Y-69253773D01*
X91998704Y-69229504D01*
X91997500Y-69205000D01*
X91997500Y-67955000D01*
X91998704Y-67930496D01*
X92002304Y-67906227D01*
X92008265Y-67882429D01*
X92016530Y-67859329D01*
X92027020Y-67837151D01*
X92039633Y-67816107D01*
X92054247Y-67796402D01*
X92070723Y-67778223D01*
X92088902Y-67761747D01*
X92108607Y-67747133D01*
X92129651Y-67734520D01*
X92151829Y-67724030D01*
X92174929Y-67715765D01*
X92198727Y-67709804D01*
X92222996Y-67706204D01*
X92247500Y-67705000D01*
X93172500Y-67705000D01*
X93197004Y-67706204D01*
G37*
G04 #@! TD.AperFunction*
G04 #@! TA.AperFunction,SMDPad,CuDef*
G36*
X100055004Y-62626204D02*
G01*
X100079273Y-62629804D01*
X100103071Y-62635765D01*
X100126171Y-62644030D01*
X100148349Y-62654520D01*
X100169393Y-62667133D01*
X100189098Y-62681747D01*
X100207277Y-62698223D01*
X100223753Y-62716402D01*
X100238367Y-62736107D01*
X100250980Y-62757151D01*
X100261470Y-62779329D01*
X100269735Y-62802429D01*
X100275696Y-62826227D01*
X100279296Y-62850496D01*
X100280500Y-62875000D01*
X100280500Y-64125000D01*
X100279296Y-64149504D01*
X100275696Y-64173773D01*
X100269735Y-64197571D01*
X100261470Y-64220671D01*
X100250980Y-64242849D01*
X100238367Y-64263893D01*
X100223753Y-64283598D01*
X100207277Y-64301777D01*
X100189098Y-64318253D01*
X100169393Y-64332867D01*
X100148349Y-64345480D01*
X100126171Y-64355970D01*
X100103071Y-64364235D01*
X100079273Y-64370196D01*
X100055004Y-64373796D01*
X100030500Y-64375000D01*
X99105500Y-64375000D01*
X99080996Y-64373796D01*
X99056727Y-64370196D01*
X99032929Y-64364235D01*
X99009829Y-64355970D01*
X98987651Y-64345480D01*
X98966607Y-64332867D01*
X98946902Y-64318253D01*
X98928723Y-64301777D01*
X98912247Y-64283598D01*
X98897633Y-64263893D01*
X98885020Y-64242849D01*
X98874530Y-64220671D01*
X98866265Y-64197571D01*
X98860304Y-64173773D01*
X98856704Y-64149504D01*
X98855500Y-64125000D01*
X98855500Y-62875000D01*
X98856704Y-62850496D01*
X98860304Y-62826227D01*
X98866265Y-62802429D01*
X98874530Y-62779329D01*
X98885020Y-62757151D01*
X98897633Y-62736107D01*
X98912247Y-62716402D01*
X98928723Y-62698223D01*
X98946902Y-62681747D01*
X98966607Y-62667133D01*
X98987651Y-62654520D01*
X99009829Y-62644030D01*
X99032929Y-62635765D01*
X99056727Y-62629804D01*
X99080996Y-62626204D01*
X99105500Y-62625000D01*
X100030500Y-62625000D01*
X100055004Y-62626204D01*
G37*
G04 #@! TD.AperFunction*
G04 #@! TA.AperFunction,SMDPad,CuDef*
G36*
X97080004Y-62626204D02*
G01*
X97104273Y-62629804D01*
X97128071Y-62635765D01*
X97151171Y-62644030D01*
X97173349Y-62654520D01*
X97194393Y-62667133D01*
X97214098Y-62681747D01*
X97232277Y-62698223D01*
X97248753Y-62716402D01*
X97263367Y-62736107D01*
X97275980Y-62757151D01*
X97286470Y-62779329D01*
X97294735Y-62802429D01*
X97300696Y-62826227D01*
X97304296Y-62850496D01*
X97305500Y-62875000D01*
X97305500Y-64125000D01*
X97304296Y-64149504D01*
X97300696Y-64173773D01*
X97294735Y-64197571D01*
X97286470Y-64220671D01*
X97275980Y-64242849D01*
X97263367Y-64263893D01*
X97248753Y-64283598D01*
X97232277Y-64301777D01*
X97214098Y-64318253D01*
X97194393Y-64332867D01*
X97173349Y-64345480D01*
X97151171Y-64355970D01*
X97128071Y-64364235D01*
X97104273Y-64370196D01*
X97080004Y-64373796D01*
X97055500Y-64375000D01*
X96130500Y-64375000D01*
X96105996Y-64373796D01*
X96081727Y-64370196D01*
X96057929Y-64364235D01*
X96034829Y-64355970D01*
X96012651Y-64345480D01*
X95991607Y-64332867D01*
X95971902Y-64318253D01*
X95953723Y-64301777D01*
X95937247Y-64283598D01*
X95922633Y-64263893D01*
X95910020Y-64242849D01*
X95899530Y-64220671D01*
X95891265Y-64197571D01*
X95885304Y-64173773D01*
X95881704Y-64149504D01*
X95880500Y-64125000D01*
X95880500Y-62875000D01*
X95881704Y-62850496D01*
X95885304Y-62826227D01*
X95891265Y-62802429D01*
X95899530Y-62779329D01*
X95910020Y-62757151D01*
X95922633Y-62736107D01*
X95937247Y-62716402D01*
X95953723Y-62698223D01*
X95971902Y-62681747D01*
X95991607Y-62667133D01*
X96012651Y-62654520D01*
X96034829Y-62644030D01*
X96057929Y-62635765D01*
X96081727Y-62629804D01*
X96105996Y-62626204D01*
X96130500Y-62625000D01*
X97055500Y-62625000D01*
X97080004Y-62626204D01*
G37*
G04 #@! TD.AperFunction*
G04 #@! TA.AperFunction,SMDPad,CuDef*
G36*
X105897004Y-77866204D02*
G01*
X105921273Y-77869804D01*
X105945071Y-77875765D01*
X105968171Y-77884030D01*
X105990349Y-77894520D01*
X106011393Y-77907133D01*
X106031098Y-77921747D01*
X106049277Y-77938223D01*
X106065753Y-77956402D01*
X106080367Y-77976107D01*
X106092980Y-77997151D01*
X106103470Y-78019329D01*
X106111735Y-78042429D01*
X106117696Y-78066227D01*
X106121296Y-78090496D01*
X106122500Y-78115000D01*
X106122500Y-79365000D01*
X106121296Y-79389504D01*
X106117696Y-79413773D01*
X106111735Y-79437571D01*
X106103470Y-79460671D01*
X106092980Y-79482849D01*
X106080367Y-79503893D01*
X106065753Y-79523598D01*
X106049277Y-79541777D01*
X106031098Y-79558253D01*
X106011393Y-79572867D01*
X105990349Y-79585480D01*
X105968171Y-79595970D01*
X105945071Y-79604235D01*
X105921273Y-79610196D01*
X105897004Y-79613796D01*
X105872500Y-79615000D01*
X104947500Y-79615000D01*
X104922996Y-79613796D01*
X104898727Y-79610196D01*
X104874929Y-79604235D01*
X104851829Y-79595970D01*
X104829651Y-79585480D01*
X104808607Y-79572867D01*
X104788902Y-79558253D01*
X104770723Y-79541777D01*
X104754247Y-79523598D01*
X104739633Y-79503893D01*
X104727020Y-79482849D01*
X104716530Y-79460671D01*
X104708265Y-79437571D01*
X104702304Y-79413773D01*
X104698704Y-79389504D01*
X104697500Y-79365000D01*
X104697500Y-78115000D01*
X104698704Y-78090496D01*
X104702304Y-78066227D01*
X104708265Y-78042429D01*
X104716530Y-78019329D01*
X104727020Y-77997151D01*
X104739633Y-77976107D01*
X104754247Y-77956402D01*
X104770723Y-77938223D01*
X104788902Y-77921747D01*
X104808607Y-77907133D01*
X104829651Y-77894520D01*
X104851829Y-77884030D01*
X104874929Y-77875765D01*
X104898727Y-77869804D01*
X104922996Y-77866204D01*
X104947500Y-77865000D01*
X105872500Y-77865000D01*
X105897004Y-77866204D01*
G37*
G04 #@! TD.AperFunction*
G04 #@! TA.AperFunction,SMDPad,CuDef*
G36*
X102922004Y-77866204D02*
G01*
X102946273Y-77869804D01*
X102970071Y-77875765D01*
X102993171Y-77884030D01*
X103015349Y-77894520D01*
X103036393Y-77907133D01*
X103056098Y-77921747D01*
X103074277Y-77938223D01*
X103090753Y-77956402D01*
X103105367Y-77976107D01*
X103117980Y-77997151D01*
X103128470Y-78019329D01*
X103136735Y-78042429D01*
X103142696Y-78066227D01*
X103146296Y-78090496D01*
X103147500Y-78115000D01*
X103147500Y-79365000D01*
X103146296Y-79389504D01*
X103142696Y-79413773D01*
X103136735Y-79437571D01*
X103128470Y-79460671D01*
X103117980Y-79482849D01*
X103105367Y-79503893D01*
X103090753Y-79523598D01*
X103074277Y-79541777D01*
X103056098Y-79558253D01*
X103036393Y-79572867D01*
X103015349Y-79585480D01*
X102993171Y-79595970D01*
X102970071Y-79604235D01*
X102946273Y-79610196D01*
X102922004Y-79613796D01*
X102897500Y-79615000D01*
X101972500Y-79615000D01*
X101947996Y-79613796D01*
X101923727Y-79610196D01*
X101899929Y-79604235D01*
X101876829Y-79595970D01*
X101854651Y-79585480D01*
X101833607Y-79572867D01*
X101813902Y-79558253D01*
X101795723Y-79541777D01*
X101779247Y-79523598D01*
X101764633Y-79503893D01*
X101752020Y-79482849D01*
X101741530Y-79460671D01*
X101733265Y-79437571D01*
X101727304Y-79413773D01*
X101723704Y-79389504D01*
X101722500Y-79365000D01*
X101722500Y-78115000D01*
X101723704Y-78090496D01*
X101727304Y-78066227D01*
X101733265Y-78042429D01*
X101741530Y-78019329D01*
X101752020Y-77997151D01*
X101764633Y-77976107D01*
X101779247Y-77956402D01*
X101795723Y-77938223D01*
X101813902Y-77921747D01*
X101833607Y-77907133D01*
X101854651Y-77894520D01*
X101876829Y-77884030D01*
X101899929Y-77875765D01*
X101923727Y-77869804D01*
X101947996Y-77866204D01*
X101972500Y-77865000D01*
X102897500Y-77865000D01*
X102922004Y-77866204D01*
G37*
G04 #@! TD.AperFunction*
G04 #@! TA.AperFunction,SMDPad,CuDef*
G36*
X99982004Y-72786204D02*
G01*
X100006273Y-72789804D01*
X100030071Y-72795765D01*
X100053171Y-72804030D01*
X100075349Y-72814520D01*
X100096393Y-72827133D01*
X100116098Y-72841747D01*
X100134277Y-72858223D01*
X100150753Y-72876402D01*
X100165367Y-72896107D01*
X100177980Y-72917151D01*
X100188470Y-72939329D01*
X100196735Y-72962429D01*
X100202696Y-72986227D01*
X100206296Y-73010496D01*
X100207500Y-73035000D01*
X100207500Y-74285000D01*
X100206296Y-74309504D01*
X100202696Y-74333773D01*
X100196735Y-74357571D01*
X100188470Y-74380671D01*
X100177980Y-74402849D01*
X100165367Y-74423893D01*
X100150753Y-74443598D01*
X100134277Y-74461777D01*
X100116098Y-74478253D01*
X100096393Y-74492867D01*
X100075349Y-74505480D01*
X100053171Y-74515970D01*
X100030071Y-74524235D01*
X100006273Y-74530196D01*
X99982004Y-74533796D01*
X99957500Y-74535000D01*
X99032500Y-74535000D01*
X99007996Y-74533796D01*
X98983727Y-74530196D01*
X98959929Y-74524235D01*
X98936829Y-74515970D01*
X98914651Y-74505480D01*
X98893607Y-74492867D01*
X98873902Y-74478253D01*
X98855723Y-74461777D01*
X98839247Y-74443598D01*
X98824633Y-74423893D01*
X98812020Y-74402849D01*
X98801530Y-74380671D01*
X98793265Y-74357571D01*
X98787304Y-74333773D01*
X98783704Y-74309504D01*
X98782500Y-74285000D01*
X98782500Y-73035000D01*
X98783704Y-73010496D01*
X98787304Y-72986227D01*
X98793265Y-72962429D01*
X98801530Y-72939329D01*
X98812020Y-72917151D01*
X98824633Y-72896107D01*
X98839247Y-72876402D01*
X98855723Y-72858223D01*
X98873902Y-72841747D01*
X98893607Y-72827133D01*
X98914651Y-72814520D01*
X98936829Y-72804030D01*
X98959929Y-72795765D01*
X98983727Y-72789804D01*
X99007996Y-72786204D01*
X99032500Y-72785000D01*
X99957500Y-72785000D01*
X99982004Y-72786204D01*
G37*
G04 #@! TD.AperFunction*
G04 #@! TA.AperFunction,SMDPad,CuDef*
G36*
X97007004Y-72786204D02*
G01*
X97031273Y-72789804D01*
X97055071Y-72795765D01*
X97078171Y-72804030D01*
X97100349Y-72814520D01*
X97121393Y-72827133D01*
X97141098Y-72841747D01*
X97159277Y-72858223D01*
X97175753Y-72876402D01*
X97190367Y-72896107D01*
X97202980Y-72917151D01*
X97213470Y-72939329D01*
X97221735Y-72962429D01*
X97227696Y-72986227D01*
X97231296Y-73010496D01*
X97232500Y-73035000D01*
X97232500Y-74285000D01*
X97231296Y-74309504D01*
X97227696Y-74333773D01*
X97221735Y-74357571D01*
X97213470Y-74380671D01*
X97202980Y-74402849D01*
X97190367Y-74423893D01*
X97175753Y-74443598D01*
X97159277Y-74461777D01*
X97141098Y-74478253D01*
X97121393Y-74492867D01*
X97100349Y-74505480D01*
X97078171Y-74515970D01*
X97055071Y-74524235D01*
X97031273Y-74530196D01*
X97007004Y-74533796D01*
X96982500Y-74535000D01*
X96057500Y-74535000D01*
X96032996Y-74533796D01*
X96008727Y-74530196D01*
X95984929Y-74524235D01*
X95961829Y-74515970D01*
X95939651Y-74505480D01*
X95918607Y-74492867D01*
X95898902Y-74478253D01*
X95880723Y-74461777D01*
X95864247Y-74443598D01*
X95849633Y-74423893D01*
X95837020Y-74402849D01*
X95826530Y-74380671D01*
X95818265Y-74357571D01*
X95812304Y-74333773D01*
X95808704Y-74309504D01*
X95807500Y-74285000D01*
X95807500Y-73035000D01*
X95808704Y-73010496D01*
X95812304Y-72986227D01*
X95818265Y-72962429D01*
X95826530Y-72939329D01*
X95837020Y-72917151D01*
X95849633Y-72896107D01*
X95864247Y-72876402D01*
X95880723Y-72858223D01*
X95898902Y-72841747D01*
X95918607Y-72827133D01*
X95939651Y-72814520D01*
X95961829Y-72804030D01*
X95984929Y-72795765D01*
X96008727Y-72789804D01*
X96032996Y-72786204D01*
X96057500Y-72785000D01*
X96982500Y-72785000D01*
X97007004Y-72786204D01*
G37*
G04 #@! TD.AperFunction*
G04 #@! TA.AperFunction,SMDPad,CuDef*
G36*
X93414504Y-57546204D02*
G01*
X93438773Y-57549804D01*
X93462571Y-57555765D01*
X93485671Y-57564030D01*
X93507849Y-57574520D01*
X93528893Y-57587133D01*
X93548598Y-57601747D01*
X93566777Y-57618223D01*
X93583253Y-57636402D01*
X93597867Y-57656107D01*
X93610480Y-57677151D01*
X93620970Y-57699329D01*
X93629235Y-57722429D01*
X93635196Y-57746227D01*
X93638796Y-57770496D01*
X93640000Y-57795000D01*
X93640000Y-59045000D01*
X93638796Y-59069504D01*
X93635196Y-59093773D01*
X93629235Y-59117571D01*
X93620970Y-59140671D01*
X93610480Y-59162849D01*
X93597867Y-59183893D01*
X93583253Y-59203598D01*
X93566777Y-59221777D01*
X93548598Y-59238253D01*
X93528893Y-59252867D01*
X93507849Y-59265480D01*
X93485671Y-59275970D01*
X93462571Y-59284235D01*
X93438773Y-59290196D01*
X93414504Y-59293796D01*
X93390000Y-59295000D01*
X92465000Y-59295000D01*
X92440496Y-59293796D01*
X92416227Y-59290196D01*
X92392429Y-59284235D01*
X92369329Y-59275970D01*
X92347151Y-59265480D01*
X92326107Y-59252867D01*
X92306402Y-59238253D01*
X92288223Y-59221777D01*
X92271747Y-59203598D01*
X92257133Y-59183893D01*
X92244520Y-59162849D01*
X92234030Y-59140671D01*
X92225765Y-59117571D01*
X92219804Y-59093773D01*
X92216204Y-59069504D01*
X92215000Y-59045000D01*
X92215000Y-57795000D01*
X92216204Y-57770496D01*
X92219804Y-57746227D01*
X92225765Y-57722429D01*
X92234030Y-57699329D01*
X92244520Y-57677151D01*
X92257133Y-57656107D01*
X92271747Y-57636402D01*
X92288223Y-57618223D01*
X92306402Y-57601747D01*
X92326107Y-57587133D01*
X92347151Y-57574520D01*
X92369329Y-57564030D01*
X92392429Y-57555765D01*
X92416227Y-57549804D01*
X92440496Y-57546204D01*
X92465000Y-57545000D01*
X93390000Y-57545000D01*
X93414504Y-57546204D01*
G37*
G04 #@! TD.AperFunction*
G04 #@! TA.AperFunction,SMDPad,CuDef*
G36*
X90439504Y-57546204D02*
G01*
X90463773Y-57549804D01*
X90487571Y-57555765D01*
X90510671Y-57564030D01*
X90532849Y-57574520D01*
X90553893Y-57587133D01*
X90573598Y-57601747D01*
X90591777Y-57618223D01*
X90608253Y-57636402D01*
X90622867Y-57656107D01*
X90635480Y-57677151D01*
X90645970Y-57699329D01*
X90654235Y-57722429D01*
X90660196Y-57746227D01*
X90663796Y-57770496D01*
X90665000Y-57795000D01*
X90665000Y-59045000D01*
X90663796Y-59069504D01*
X90660196Y-59093773D01*
X90654235Y-59117571D01*
X90645970Y-59140671D01*
X90635480Y-59162849D01*
X90622867Y-59183893D01*
X90608253Y-59203598D01*
X90591777Y-59221777D01*
X90573598Y-59238253D01*
X90553893Y-59252867D01*
X90532849Y-59265480D01*
X90510671Y-59275970D01*
X90487571Y-59284235D01*
X90463773Y-59290196D01*
X90439504Y-59293796D01*
X90415000Y-59295000D01*
X89490000Y-59295000D01*
X89465496Y-59293796D01*
X89441227Y-59290196D01*
X89417429Y-59284235D01*
X89394329Y-59275970D01*
X89372151Y-59265480D01*
X89351107Y-59252867D01*
X89331402Y-59238253D01*
X89313223Y-59221777D01*
X89296747Y-59203598D01*
X89282133Y-59183893D01*
X89269520Y-59162849D01*
X89259030Y-59140671D01*
X89250765Y-59117571D01*
X89244804Y-59093773D01*
X89241204Y-59069504D01*
X89240000Y-59045000D01*
X89240000Y-57795000D01*
X89241204Y-57770496D01*
X89244804Y-57746227D01*
X89250765Y-57722429D01*
X89259030Y-57699329D01*
X89269520Y-57677151D01*
X89282133Y-57656107D01*
X89296747Y-57636402D01*
X89313223Y-57618223D01*
X89331402Y-57601747D01*
X89351107Y-57587133D01*
X89372151Y-57574520D01*
X89394329Y-57564030D01*
X89417429Y-57555765D01*
X89441227Y-57549804D01*
X89465496Y-57546204D01*
X89490000Y-57545000D01*
X90415000Y-57545000D01*
X90439504Y-57546204D01*
G37*
G04 #@! TD.AperFunction*
G04 #@! TA.AperFunction,SMDPad,CuDef*
G36*
X90222004Y-72786204D02*
G01*
X90246273Y-72789804D01*
X90270071Y-72795765D01*
X90293171Y-72804030D01*
X90315349Y-72814520D01*
X90336393Y-72827133D01*
X90356098Y-72841747D01*
X90374277Y-72858223D01*
X90390753Y-72876402D01*
X90405367Y-72896107D01*
X90417980Y-72917151D01*
X90428470Y-72939329D01*
X90436735Y-72962429D01*
X90442696Y-72986227D01*
X90446296Y-73010496D01*
X90447500Y-73035000D01*
X90447500Y-74285000D01*
X90446296Y-74309504D01*
X90442696Y-74333773D01*
X90436735Y-74357571D01*
X90428470Y-74380671D01*
X90417980Y-74402849D01*
X90405367Y-74423893D01*
X90390753Y-74443598D01*
X90374277Y-74461777D01*
X90356098Y-74478253D01*
X90336393Y-74492867D01*
X90315349Y-74505480D01*
X90293171Y-74515970D01*
X90270071Y-74524235D01*
X90246273Y-74530196D01*
X90222004Y-74533796D01*
X90197500Y-74535000D01*
X89272500Y-74535000D01*
X89247996Y-74533796D01*
X89223727Y-74530196D01*
X89199929Y-74524235D01*
X89176829Y-74515970D01*
X89154651Y-74505480D01*
X89133607Y-74492867D01*
X89113902Y-74478253D01*
X89095723Y-74461777D01*
X89079247Y-74443598D01*
X89064633Y-74423893D01*
X89052020Y-74402849D01*
X89041530Y-74380671D01*
X89033265Y-74357571D01*
X89027304Y-74333773D01*
X89023704Y-74309504D01*
X89022500Y-74285000D01*
X89022500Y-73035000D01*
X89023704Y-73010496D01*
X89027304Y-72986227D01*
X89033265Y-72962429D01*
X89041530Y-72939329D01*
X89052020Y-72917151D01*
X89064633Y-72896107D01*
X89079247Y-72876402D01*
X89095723Y-72858223D01*
X89113902Y-72841747D01*
X89133607Y-72827133D01*
X89154651Y-72814520D01*
X89176829Y-72804030D01*
X89199929Y-72795765D01*
X89223727Y-72789804D01*
X89247996Y-72786204D01*
X89272500Y-72785000D01*
X90197500Y-72785000D01*
X90222004Y-72786204D01*
G37*
G04 #@! TD.AperFunction*
G04 #@! TA.AperFunction,SMDPad,CuDef*
G36*
X93197004Y-72786204D02*
G01*
X93221273Y-72789804D01*
X93245071Y-72795765D01*
X93268171Y-72804030D01*
X93290349Y-72814520D01*
X93311393Y-72827133D01*
X93331098Y-72841747D01*
X93349277Y-72858223D01*
X93365753Y-72876402D01*
X93380367Y-72896107D01*
X93392980Y-72917151D01*
X93403470Y-72939329D01*
X93411735Y-72962429D01*
X93417696Y-72986227D01*
X93421296Y-73010496D01*
X93422500Y-73035000D01*
X93422500Y-74285000D01*
X93421296Y-74309504D01*
X93417696Y-74333773D01*
X93411735Y-74357571D01*
X93403470Y-74380671D01*
X93392980Y-74402849D01*
X93380367Y-74423893D01*
X93365753Y-74443598D01*
X93349277Y-74461777D01*
X93331098Y-74478253D01*
X93311393Y-74492867D01*
X93290349Y-74505480D01*
X93268171Y-74515970D01*
X93245071Y-74524235D01*
X93221273Y-74530196D01*
X93197004Y-74533796D01*
X93172500Y-74535000D01*
X92247500Y-74535000D01*
X92222996Y-74533796D01*
X92198727Y-74530196D01*
X92174929Y-74524235D01*
X92151829Y-74515970D01*
X92129651Y-74505480D01*
X92108607Y-74492867D01*
X92088902Y-74478253D01*
X92070723Y-74461777D01*
X92054247Y-74443598D01*
X92039633Y-74423893D01*
X92027020Y-74402849D01*
X92016530Y-74380671D01*
X92008265Y-74357571D01*
X92002304Y-74333773D01*
X91998704Y-74309504D01*
X91997500Y-74285000D01*
X91997500Y-73035000D01*
X91998704Y-73010496D01*
X92002304Y-72986227D01*
X92008265Y-72962429D01*
X92016530Y-72939329D01*
X92027020Y-72917151D01*
X92039633Y-72896107D01*
X92054247Y-72876402D01*
X92070723Y-72858223D01*
X92088902Y-72841747D01*
X92108607Y-72827133D01*
X92129651Y-72814520D01*
X92151829Y-72804030D01*
X92174929Y-72795765D01*
X92198727Y-72789804D01*
X92222996Y-72786204D01*
X92247500Y-72785000D01*
X93172500Y-72785000D01*
X93197004Y-72786204D01*
G37*
G04 #@! TD.AperFunction*
D11*
X92710000Y-85090000D03*
D12*
X92710000Y-87630000D03*
D13*
X120650000Y-70358000D03*
D14*
X120650000Y-75438000D03*
D13*
X120650000Y-59690000D03*
D14*
X120650000Y-64770000D03*
D11*
X105410000Y-85090000D03*
D12*
X105410000Y-87630000D03*
D13*
X120650000Y-49022000D03*
D14*
X120650000Y-54102000D03*
D11*
X118364000Y-41402000D03*
D12*
X118364000Y-43942000D03*
D13*
X120650000Y-81026000D03*
D14*
X120650000Y-86106000D03*
D11*
X83820000Y-74930000D03*
X83820000Y-72390000D03*
X83820000Y-69850000D03*
X83820000Y-67310000D03*
X83820000Y-64770000D03*
X83820000Y-62230000D03*
X83820000Y-59690000D03*
D12*
X83820000Y-57150000D03*
D15*
X92964000Y-43180000D03*
X90424000Y-43180000D03*
D16*
X87884000Y-43180000D03*
D15*
X108204000Y-43180000D03*
X105664000Y-43180000D03*
D16*
X103124000Y-43180000D03*
D17*
X111760000Y-61342000D03*
X111760000Y-64642000D03*
X111760000Y-51816000D03*
X111760000Y-55116000D03*
D13*
X93218000Y-53086000D03*
X101092000Y-53086000D03*
X78740000Y-38100000D03*
X127000000Y-38100000D03*
X127000000Y-93980000D03*
X78740000Y-93980000D03*
D18*
X113304000Y-49022000D02*
X111760000Y-50566000D01*
X111760000Y-50566000D02*
X111760000Y-51816000D01*
X120650000Y-49022000D02*
X113304000Y-49022000D01*
X110360000Y-51816000D02*
X111760000Y-51816000D01*
X105664000Y-47120000D02*
X110360000Y-51816000D01*
X105664000Y-43180000D02*
X105664000Y-47120000D01*
X120650000Y-55120000D02*
X120650000Y-54102000D01*
X123050001Y-54001999D02*
X122950000Y-54102000D01*
X123050001Y-44885920D02*
X123050001Y-54001999D01*
X119566081Y-41402000D02*
X123050001Y-44885920D01*
X118364000Y-41402000D02*
X119566081Y-41402000D01*
X122950000Y-64770000D02*
X120650000Y-64770000D01*
X123050001Y-54202001D02*
X123050001Y-64669999D01*
X122950000Y-54102000D02*
X123050001Y-54202001D01*
X123050001Y-64669999D02*
X122950000Y-64770000D01*
X120650000Y-54102000D02*
X122950000Y-54102000D01*
X111888000Y-64770000D02*
X111760000Y-64642000D01*
X120650000Y-64770000D02*
X111888000Y-64770000D01*
X120650000Y-54102000D02*
X116332000Y-54102000D01*
X115318000Y-55116000D02*
X111760000Y-55116000D01*
X116332000Y-54102000D02*
X115318000Y-55116000D01*
X120650000Y-59690000D02*
X116078000Y-59690000D01*
X114426000Y-61342000D02*
X111760000Y-61342000D01*
X116078000Y-59690000D02*
X114426000Y-61342000D01*
X90424000Y-44980000D02*
X90424000Y-43180000D01*
X92688000Y-47244000D02*
X90424000Y-44980000D01*
X100838000Y-47244000D02*
X92688000Y-47244000D01*
X104394000Y-55372000D02*
X104394000Y-50800000D01*
X109220000Y-60202000D02*
X109220000Y-60198000D01*
X104394000Y-50800000D02*
X100838000Y-47244000D01*
X110360000Y-61342000D02*
X109220000Y-60202000D01*
X109220000Y-60198000D02*
X104394000Y-55372000D01*
X111760000Y-61342000D02*
X110360000Y-61342000D01*
X89952500Y-59295000D02*
X89952500Y-58420000D01*
X87017500Y-62230000D02*
X89952500Y-59295000D01*
X83820000Y-62230000D02*
X87017500Y-62230000D01*
X89952500Y-54392500D02*
X89952500Y-58420000D01*
X101622000Y-39878000D02*
X85598000Y-39878000D01*
X85598000Y-39878000D02*
X84074000Y-41402000D01*
X84074000Y-41402000D02*
X84074000Y-48514000D01*
X84074000Y-48514000D02*
X89952500Y-54392500D01*
X103124000Y-41380000D02*
X101622000Y-39878000D01*
X103124000Y-43180000D02*
X103124000Y-41380000D01*
X85022081Y-64770000D02*
X83820000Y-64770000D01*
X96198000Y-64770000D02*
X85022081Y-64770000D01*
X96593000Y-64375000D02*
X96198000Y-64770000D01*
X96593000Y-63500000D02*
X96593000Y-64375000D01*
X96593000Y-63500000D02*
X96593000Y-50619000D01*
X87884000Y-44980000D02*
X87884000Y-43180000D01*
X91448010Y-48544010D02*
X87884000Y-44980000D01*
X94518010Y-48544010D02*
X91448010Y-48544010D01*
X96593000Y-50619000D02*
X94518010Y-48544010D01*
X89022500Y-78740000D02*
X89735000Y-78740000D01*
X83820000Y-76132081D02*
X86427919Y-78740000D01*
X86427919Y-78740000D02*
X89022500Y-78740000D01*
X83820000Y-74930000D02*
X83820000Y-76132081D01*
X102435000Y-77865000D02*
X102435000Y-78740000D01*
X101534990Y-76964990D02*
X102435000Y-77865000D01*
X88394990Y-76964990D02*
X101534990Y-76964990D01*
X83820000Y-72390000D02*
X88394990Y-76964990D01*
X83820000Y-69850000D02*
X85022081Y-69850000D01*
X88832081Y-73660000D02*
X89735000Y-73660000D01*
X85022081Y-69850000D02*
X88832081Y-73660000D01*
X88465000Y-67310000D02*
X89735000Y-68580000D01*
X83820000Y-67310000D02*
X88465000Y-67310000D01*
X120650000Y-88406000D02*
X120650000Y-86106000D01*
X80264000Y-81788000D02*
X90424000Y-91948000D01*
X117108000Y-91948000D02*
X120650000Y-88406000D01*
X83820000Y-57150000D02*
X82170000Y-57150000D01*
X90424000Y-91948000D02*
X117108000Y-91948000D01*
X80264000Y-59056000D02*
X80264000Y-81788000D01*
X82170000Y-57150000D02*
X80264000Y-59056000D01*
X122950000Y-86106000D02*
X124206000Y-84850000D01*
X120650000Y-86106000D02*
X122950000Y-86106000D01*
X124206000Y-76694000D02*
X122950000Y-75438000D01*
X122950000Y-75438000D02*
X120650000Y-75438000D01*
X124206000Y-84850000D02*
X124206000Y-76694000D01*
X119150001Y-79526001D02*
X120650000Y-81026000D01*
X115288980Y-75664980D02*
X119150001Y-79526001D01*
X98786118Y-75664980D02*
X115288980Y-75664980D01*
X96781138Y-73660000D02*
X98786118Y-75664980D01*
X96520000Y-73660000D02*
X96781138Y-73660000D01*
X92710000Y-73660000D02*
X96520000Y-73660000D01*
X105410000Y-78740000D02*
X105410000Y-85090000D01*
X98995999Y-71857999D02*
X119150001Y-71857999D01*
X119150001Y-71857999D02*
X120650000Y-70358000D01*
X96593000Y-69455000D02*
X98995999Y-71857999D01*
X96593000Y-68580000D02*
X96593000Y-69455000D01*
X92710000Y-68580000D02*
X96593000Y-68580000D01*
X92710000Y-78740000D02*
X92710000Y-85090000D01*
D19*
G36*
X129413000Y-96393000D02*
G01*
X76327000Y-96393000D01*
X76327000Y-59056000D01*
X79223994Y-59056000D01*
X79229000Y-59106828D01*
X79229001Y-81737162D01*
X79223994Y-81788000D01*
X79243977Y-81990895D01*
X79303160Y-82185993D01*
X79399266Y-82365797D01*
X79496197Y-82483907D01*
X79528605Y-82523396D01*
X79568093Y-82555803D01*
X89656197Y-92643908D01*
X89688604Y-92683396D01*
X89728092Y-92715803D01*
X89846202Y-92812734D01*
X89942309Y-92864104D01*
X90026007Y-92908841D01*
X90221105Y-92968024D01*
X90373162Y-92983000D01*
X90373165Y-92983000D01*
X90424000Y-92988007D01*
X90474835Y-92983000D01*
X117057172Y-92983000D01*
X117108000Y-92988006D01*
X117158828Y-92983000D01*
X117158838Y-92983000D01*
X117310895Y-92968024D01*
X117505993Y-92908841D01*
X117685797Y-92812734D01*
X117843396Y-92683396D01*
X117875807Y-92643903D01*
X121345908Y-89173803D01*
X121385396Y-89141396D01*
X121444398Y-89069502D01*
X121514734Y-88983798D01*
X121610840Y-88803994D01*
X121610841Y-88803993D01*
X121670024Y-88608895D01*
X121685000Y-88456838D01*
X121685000Y-88456829D01*
X121690006Y-88406001D01*
X121685000Y-88355173D01*
X121685000Y-88244072D01*
X122150000Y-88244072D01*
X122274482Y-88231812D01*
X122394180Y-88195502D01*
X122504494Y-88136537D01*
X122601185Y-88057185D01*
X122680537Y-87960494D01*
X122739502Y-87850180D01*
X122775812Y-87730482D01*
X122788072Y-87606000D01*
X122788072Y-87141000D01*
X122899172Y-87141000D01*
X122950000Y-87146006D01*
X123000828Y-87141000D01*
X123000838Y-87141000D01*
X123152895Y-87126024D01*
X123347993Y-87066841D01*
X123527797Y-86970734D01*
X123685396Y-86841396D01*
X123717807Y-86801903D01*
X124901908Y-85617803D01*
X124941396Y-85585396D01*
X124988333Y-85528203D01*
X125070734Y-85427798D01*
X125166840Y-85247994D01*
X125166841Y-85247993D01*
X125226024Y-85052895D01*
X125241000Y-84900838D01*
X125241000Y-84900829D01*
X125246006Y-84850001D01*
X125241000Y-84799173D01*
X125241000Y-76744827D01*
X125246006Y-76693999D01*
X125241000Y-76643171D01*
X125241000Y-76643162D01*
X125226024Y-76491105D01*
X125166841Y-76296007D01*
X125114021Y-76197187D01*
X125070734Y-76116202D01*
X124973803Y-75998092D01*
X124941396Y-75958604D01*
X124901908Y-75926197D01*
X123717807Y-74742097D01*
X123685396Y-74702604D01*
X123527797Y-74573266D01*
X123347993Y-74477159D01*
X123152895Y-74417976D01*
X123000838Y-74403000D01*
X123000828Y-74403000D01*
X122950000Y-74397994D01*
X122899172Y-74403000D01*
X122788072Y-74403000D01*
X122788072Y-73938000D01*
X122775812Y-73813518D01*
X122739502Y-73693820D01*
X122680537Y-73583506D01*
X122601185Y-73486815D01*
X122504494Y-73407463D01*
X122394180Y-73348498D01*
X122274482Y-73312188D01*
X122150000Y-73299928D01*
X119150000Y-73299928D01*
X119025518Y-73312188D01*
X118905820Y-73348498D01*
X118795506Y-73407463D01*
X118698815Y-73486815D01*
X118619463Y-73583506D01*
X118560498Y-73693820D01*
X118524188Y-73813518D01*
X118511928Y-73938000D01*
X118511928Y-76938000D01*
X118524188Y-77062482D01*
X118560498Y-77182180D01*
X118619463Y-77292494D01*
X118698815Y-77389185D01*
X118795506Y-77468537D01*
X118905820Y-77527502D01*
X119025518Y-77563812D01*
X119150000Y-77576072D01*
X122150000Y-77576072D01*
X122274482Y-77563812D01*
X122394180Y-77527502D01*
X122504494Y-77468537D01*
X122601185Y-77389185D01*
X122680537Y-77292494D01*
X122739502Y-77182180D01*
X122775812Y-77062482D01*
X122788072Y-76938000D01*
X122788072Y-76739782D01*
X123171001Y-77122712D01*
X123171000Y-84421289D01*
X122788072Y-84804218D01*
X122788072Y-84606000D01*
X122775812Y-84481518D01*
X122739502Y-84361820D01*
X122680537Y-84251506D01*
X122601185Y-84154815D01*
X122504494Y-84075463D01*
X122394180Y-84016498D01*
X122274482Y-83980188D01*
X122150000Y-83967928D01*
X119150000Y-83967928D01*
X119025518Y-83980188D01*
X118905820Y-84016498D01*
X118795506Y-84075463D01*
X118698815Y-84154815D01*
X118619463Y-84251506D01*
X118560498Y-84361820D01*
X118524188Y-84481518D01*
X118511928Y-84606000D01*
X118511928Y-87606000D01*
X118524188Y-87730482D01*
X118560498Y-87850180D01*
X118619463Y-87960494D01*
X118698815Y-88057185D01*
X118795506Y-88136537D01*
X118905820Y-88195502D01*
X119025518Y-88231812D01*
X119150000Y-88244072D01*
X119348217Y-88244072D01*
X116679290Y-90913000D01*
X90852711Y-90913000D01*
X88419711Y-88480000D01*
X91221928Y-88480000D01*
X91234188Y-88604482D01*
X91270498Y-88724180D01*
X91329463Y-88834494D01*
X91408815Y-88931185D01*
X91505506Y-89010537D01*
X91615820Y-89069502D01*
X91735518Y-89105812D01*
X91860000Y-89118072D01*
X92424250Y-89115000D01*
X92583000Y-88956250D01*
X92583000Y-87757000D01*
X92837000Y-87757000D01*
X92837000Y-88956250D01*
X92995750Y-89115000D01*
X93560000Y-89118072D01*
X93684482Y-89105812D01*
X93804180Y-89069502D01*
X93914494Y-89010537D01*
X94011185Y-88931185D01*
X94090537Y-88834494D01*
X94149502Y-88724180D01*
X94185812Y-88604482D01*
X94198072Y-88480000D01*
X103921928Y-88480000D01*
X103934188Y-88604482D01*
X103970498Y-88724180D01*
X104029463Y-88834494D01*
X104108815Y-88931185D01*
X104205506Y-89010537D01*
X104315820Y-89069502D01*
X104435518Y-89105812D01*
X104560000Y-89118072D01*
X105124250Y-89115000D01*
X105283000Y-88956250D01*
X105283000Y-87757000D01*
X105537000Y-87757000D01*
X105537000Y-88956250D01*
X105695750Y-89115000D01*
X106260000Y-89118072D01*
X106384482Y-89105812D01*
X106504180Y-89069502D01*
X106614494Y-89010537D01*
X106711185Y-88931185D01*
X106790537Y-88834494D01*
X106849502Y-88724180D01*
X106885812Y-88604482D01*
X106898072Y-88480000D01*
X106895000Y-87915750D01*
X106736250Y-87757000D01*
X105537000Y-87757000D01*
X105283000Y-87757000D01*
X104083750Y-87757000D01*
X103925000Y-87915750D01*
X103921928Y-88480000D01*
X94198072Y-88480000D01*
X94195000Y-87915750D01*
X94036250Y-87757000D01*
X92837000Y-87757000D01*
X92583000Y-87757000D01*
X91383750Y-87757000D01*
X91225000Y-87915750D01*
X91221928Y-88480000D01*
X88419711Y-88480000D01*
X81299000Y-81359290D01*
X81299000Y-62083740D01*
X82335000Y-62083740D01*
X82335000Y-62376260D01*
X82392068Y-62663158D01*
X82504010Y-62933411D01*
X82666525Y-63176632D01*
X82873368Y-63383475D01*
X83047760Y-63500000D01*
X82873368Y-63616525D01*
X82666525Y-63823368D01*
X82504010Y-64066589D01*
X82392068Y-64336842D01*
X82335000Y-64623740D01*
X82335000Y-64916260D01*
X82392068Y-65203158D01*
X82504010Y-65473411D01*
X82666525Y-65716632D01*
X82873368Y-65923475D01*
X83047760Y-66040000D01*
X82873368Y-66156525D01*
X82666525Y-66363368D01*
X82504010Y-66606589D01*
X82392068Y-66876842D01*
X82335000Y-67163740D01*
X82335000Y-67456260D01*
X82392068Y-67743158D01*
X82504010Y-68013411D01*
X82666525Y-68256632D01*
X82873368Y-68463475D01*
X83047760Y-68580000D01*
X82873368Y-68696525D01*
X82666525Y-68903368D01*
X82504010Y-69146589D01*
X82392068Y-69416842D01*
X82335000Y-69703740D01*
X82335000Y-69996260D01*
X82392068Y-70283158D01*
X82504010Y-70553411D01*
X82666525Y-70796632D01*
X82873368Y-71003475D01*
X83047760Y-71120000D01*
X82873368Y-71236525D01*
X82666525Y-71443368D01*
X82504010Y-71686589D01*
X82392068Y-71956842D01*
X82335000Y-72243740D01*
X82335000Y-72536260D01*
X82392068Y-72823158D01*
X82504010Y-73093411D01*
X82666525Y-73336632D01*
X82873368Y-73543475D01*
X83047760Y-73660000D01*
X82873368Y-73776525D01*
X82666525Y-73983368D01*
X82504010Y-74226589D01*
X82392068Y-74496842D01*
X82335000Y-74783740D01*
X82335000Y-75076260D01*
X82392068Y-75363158D01*
X82504010Y-75633411D01*
X82666525Y-75876632D01*
X82785001Y-75995108D01*
X82785001Y-76081244D01*
X82779994Y-76132081D01*
X82799977Y-76334976D01*
X82859160Y-76530074D01*
X82955266Y-76709878D01*
X82998120Y-76762095D01*
X83084605Y-76867477D01*
X83124092Y-76899883D01*
X85660116Y-79435908D01*
X85692523Y-79475396D01*
X85732011Y-79507803D01*
X85850121Y-79604734D01*
X85946228Y-79656104D01*
X86029926Y-79700841D01*
X86225024Y-79760024D01*
X86377081Y-79775000D01*
X86377090Y-79775000D01*
X86427918Y-79780006D01*
X86478746Y-79775000D01*
X88489524Y-79775000D01*
X88534095Y-79858386D01*
X88644538Y-79992962D01*
X88779114Y-80103405D01*
X88932650Y-80185472D01*
X89099246Y-80236008D01*
X89272500Y-80253072D01*
X90197500Y-80253072D01*
X90370754Y-80236008D01*
X90537350Y-80185472D01*
X90690886Y-80103405D01*
X90825462Y-79992962D01*
X90935905Y-79858386D01*
X91017972Y-79704850D01*
X91068508Y-79538254D01*
X91085572Y-79365000D01*
X91085572Y-78115000D01*
X91074245Y-77999990D01*
X91370755Y-77999990D01*
X91359428Y-78115000D01*
X91359428Y-79365000D01*
X91376492Y-79538254D01*
X91427028Y-79704850D01*
X91509095Y-79858386D01*
X91619538Y-79992962D01*
X91675000Y-80038478D01*
X91675001Y-84024892D01*
X91556525Y-84143368D01*
X91394010Y-84386589D01*
X91282068Y-84656842D01*
X91225000Y-84943740D01*
X91225000Y-85236260D01*
X91282068Y-85523158D01*
X91394010Y-85793411D01*
X91556525Y-86036632D01*
X91688380Y-86168487D01*
X91615820Y-86190498D01*
X91505506Y-86249463D01*
X91408815Y-86328815D01*
X91329463Y-86425506D01*
X91270498Y-86535820D01*
X91234188Y-86655518D01*
X91221928Y-86780000D01*
X91225000Y-87344250D01*
X91383750Y-87503000D01*
X92583000Y-87503000D01*
X92583000Y-87483000D01*
X92837000Y-87483000D01*
X92837000Y-87503000D01*
X94036250Y-87503000D01*
X94195000Y-87344250D01*
X94198072Y-86780000D01*
X103921928Y-86780000D01*
X103925000Y-87344250D01*
X104083750Y-87503000D01*
X105283000Y-87503000D01*
X105283000Y-87483000D01*
X105537000Y-87483000D01*
X105537000Y-87503000D01*
X106736250Y-87503000D01*
X106895000Y-87344250D01*
X106898072Y-86780000D01*
X106885812Y-86655518D01*
X106849502Y-86535820D01*
X106790537Y-86425506D01*
X106711185Y-86328815D01*
X106614494Y-86249463D01*
X106504180Y-86190498D01*
X106431620Y-86168487D01*
X106563475Y-86036632D01*
X106725990Y-85793411D01*
X106837932Y-85523158D01*
X106895000Y-85236260D01*
X106895000Y-84943740D01*
X106837932Y-84656842D01*
X106725990Y-84386589D01*
X106563475Y-84143368D01*
X106445000Y-84024893D01*
X106445000Y-80038478D01*
X106500462Y-79992962D01*
X106610905Y-79858386D01*
X106692972Y-79704850D01*
X106743508Y-79538254D01*
X106760572Y-79365000D01*
X106760572Y-78115000D01*
X106743508Y-77941746D01*
X106692972Y-77775150D01*
X106610905Y-77621614D01*
X106500462Y-77487038D01*
X106365886Y-77376595D01*
X106212350Y-77294528D01*
X106045754Y-77243992D01*
X105872500Y-77226928D01*
X104947500Y-77226928D01*
X104774246Y-77243992D01*
X104607650Y-77294528D01*
X104454114Y-77376595D01*
X104319538Y-77487038D01*
X104209095Y-77621614D01*
X104127028Y-77775150D01*
X104076492Y-77941746D01*
X104059428Y-78115000D01*
X104059428Y-79365000D01*
X104076492Y-79538254D01*
X104127028Y-79704850D01*
X104209095Y-79858386D01*
X104319538Y-79992962D01*
X104375000Y-80038478D01*
X104375001Y-84024892D01*
X104256525Y-84143368D01*
X104094010Y-84386589D01*
X103982068Y-84656842D01*
X103925000Y-84943740D01*
X103925000Y-85236260D01*
X103982068Y-85523158D01*
X104094010Y-85793411D01*
X104256525Y-86036632D01*
X104388380Y-86168487D01*
X104315820Y-86190498D01*
X104205506Y-86249463D01*
X104108815Y-86328815D01*
X104029463Y-86425506D01*
X103970498Y-86535820D01*
X103934188Y-86655518D01*
X103921928Y-86780000D01*
X94198072Y-86780000D01*
X94185812Y-86655518D01*
X94149502Y-86535820D01*
X94090537Y-86425506D01*
X94011185Y-86328815D01*
X93914494Y-86249463D01*
X93804180Y-86190498D01*
X93731620Y-86168487D01*
X93863475Y-86036632D01*
X94025990Y-85793411D01*
X94137932Y-85523158D01*
X94195000Y-85236260D01*
X94195000Y-84943740D01*
X94137932Y-84656842D01*
X94025990Y-84386589D01*
X93863475Y-84143368D01*
X93745000Y-84024893D01*
X93745000Y-80038478D01*
X93800462Y-79992962D01*
X93910905Y-79858386D01*
X93992972Y-79704850D01*
X94043508Y-79538254D01*
X94060572Y-79365000D01*
X94060572Y-78115000D01*
X94049245Y-77999990D01*
X101095755Y-77999990D01*
X101084428Y-78115000D01*
X101084428Y-79365000D01*
X101101492Y-79538254D01*
X101152028Y-79704850D01*
X101234095Y-79858386D01*
X101344538Y-79992962D01*
X101479114Y-80103405D01*
X101632650Y-80185472D01*
X101799246Y-80236008D01*
X101972500Y-80253072D01*
X102897500Y-80253072D01*
X103070754Y-80236008D01*
X103237350Y-80185472D01*
X103390886Y-80103405D01*
X103525462Y-79992962D01*
X103635905Y-79858386D01*
X103717972Y-79704850D01*
X103768508Y-79538254D01*
X103785572Y-79365000D01*
X103785572Y-78115000D01*
X103768508Y-77941746D01*
X103717972Y-77775150D01*
X103635905Y-77621614D01*
X103525462Y-77487038D01*
X103390886Y-77376595D01*
X103330168Y-77344140D01*
X103299734Y-77287202D01*
X103202803Y-77169092D01*
X103170396Y-77129604D01*
X103130908Y-77097197D01*
X102733691Y-76699980D01*
X114860270Y-76699980D01*
X118454093Y-80293804D01*
X118454098Y-80293808D01*
X118591487Y-80431197D01*
X118515000Y-80815721D01*
X118515000Y-81236279D01*
X118597047Y-81648756D01*
X118757988Y-82037302D01*
X118991637Y-82386983D01*
X119289017Y-82684363D01*
X119638698Y-82918012D01*
X120027244Y-83078953D01*
X120439721Y-83161000D01*
X120860279Y-83161000D01*
X121272756Y-83078953D01*
X121661302Y-82918012D01*
X122010983Y-82684363D01*
X122308363Y-82386983D01*
X122542012Y-82037302D01*
X122702953Y-81648756D01*
X122785000Y-81236279D01*
X122785000Y-80815721D01*
X122702953Y-80403244D01*
X122542012Y-80014698D01*
X122308363Y-79665017D01*
X122010983Y-79367637D01*
X121661302Y-79133988D01*
X121272756Y-78973047D01*
X120860279Y-78891000D01*
X120439721Y-78891000D01*
X120055197Y-78967487D01*
X119917808Y-78830098D01*
X119917804Y-78830093D01*
X116056787Y-74969077D01*
X116024376Y-74929584D01*
X115866777Y-74800246D01*
X115686973Y-74704139D01*
X115491875Y-74644956D01*
X115339818Y-74629980D01*
X115339808Y-74629980D01*
X115288980Y-74624974D01*
X115238152Y-74629980D01*
X100836218Y-74629980D01*
X100845572Y-74535000D01*
X100842500Y-73945750D01*
X100683750Y-73787000D01*
X99622000Y-73787000D01*
X99622000Y-73807000D01*
X99368000Y-73807000D01*
X99368000Y-73787000D01*
X99348000Y-73787000D01*
X99348000Y-73533000D01*
X99368000Y-73533000D01*
X99368000Y-73513000D01*
X99622000Y-73513000D01*
X99622000Y-73533000D01*
X100683750Y-73533000D01*
X100842500Y-73374250D01*
X100845009Y-72892999D01*
X119099173Y-72892999D01*
X119150001Y-72898005D01*
X119200829Y-72892999D01*
X119200839Y-72892999D01*
X119352896Y-72878023D01*
X119547994Y-72818840D01*
X119727798Y-72722733D01*
X119885397Y-72593395D01*
X119917808Y-72553902D01*
X120055197Y-72416513D01*
X120439721Y-72493000D01*
X120860279Y-72493000D01*
X121272756Y-72410953D01*
X121661302Y-72250012D01*
X122010983Y-72016363D01*
X122308363Y-71718983D01*
X122542012Y-71369302D01*
X122702953Y-70980756D01*
X122785000Y-70568279D01*
X122785000Y-70147721D01*
X122702953Y-69735244D01*
X122542012Y-69346698D01*
X122308363Y-68997017D01*
X122010983Y-68699637D01*
X121661302Y-68465988D01*
X121272756Y-68305047D01*
X120860279Y-68223000D01*
X120439721Y-68223000D01*
X120027244Y-68305047D01*
X119638698Y-68465988D01*
X119289017Y-68699637D01*
X118991637Y-68997017D01*
X118757988Y-69346698D01*
X118597047Y-69735244D01*
X118515000Y-70147721D01*
X118515000Y-70568279D01*
X118565667Y-70822999D01*
X99424710Y-70822999D01*
X98661406Y-70059695D01*
X98731018Y-70080812D01*
X98855500Y-70093072D01*
X99282250Y-70090000D01*
X99441000Y-69931250D01*
X99441000Y-68707000D01*
X99695000Y-68707000D01*
X99695000Y-69931250D01*
X99853750Y-70090000D01*
X100280500Y-70093072D01*
X100404982Y-70080812D01*
X100524680Y-70044502D01*
X100634994Y-69985537D01*
X100731685Y-69906185D01*
X100811037Y-69809494D01*
X100870002Y-69699180D01*
X100906312Y-69579482D01*
X100918572Y-69455000D01*
X100915500Y-68865750D01*
X100756750Y-68707000D01*
X99695000Y-68707000D01*
X99441000Y-68707000D01*
X98379250Y-68707000D01*
X98220500Y-68865750D01*
X98217428Y-69455000D01*
X98229688Y-69579482D01*
X98250805Y-69649094D01*
X97931301Y-69329591D01*
X97943572Y-69205000D01*
X97943572Y-67955000D01*
X97926508Y-67781746D01*
X97903228Y-67705000D01*
X98217428Y-67705000D01*
X98220500Y-68294250D01*
X98379250Y-68453000D01*
X99441000Y-68453000D01*
X99441000Y-67228750D01*
X99695000Y-67228750D01*
X99695000Y-68453000D01*
X100756750Y-68453000D01*
X100915500Y-68294250D01*
X100918572Y-67705000D01*
X100906312Y-67580518D01*
X100870002Y-67460820D01*
X100811037Y-67350506D01*
X100731685Y-67253815D01*
X100634994Y-67174463D01*
X100524680Y-67115498D01*
X100404982Y-67079188D01*
X100280500Y-67066928D01*
X99853750Y-67070000D01*
X99695000Y-67228750D01*
X99441000Y-67228750D01*
X99282250Y-67070000D01*
X98855500Y-67066928D01*
X98731018Y-67079188D01*
X98611320Y-67115498D01*
X98501006Y-67174463D01*
X98404315Y-67253815D01*
X98324963Y-67350506D01*
X98265998Y-67460820D01*
X98229688Y-67580518D01*
X98217428Y-67705000D01*
X97903228Y-67705000D01*
X97875972Y-67615150D01*
X97793905Y-67461614D01*
X97683462Y-67327038D01*
X97548886Y-67216595D01*
X97395350Y-67134528D01*
X97228754Y-67083992D01*
X97055500Y-67066928D01*
X96130500Y-67066928D01*
X95957246Y-67083992D01*
X95790650Y-67134528D01*
X95637114Y-67216595D01*
X95502538Y-67327038D01*
X95392095Y-67461614D01*
X95347524Y-67545000D01*
X93955476Y-67545000D01*
X93910905Y-67461614D01*
X93800462Y-67327038D01*
X93665886Y-67216595D01*
X93512350Y-67134528D01*
X93345754Y-67083992D01*
X93172500Y-67066928D01*
X92247500Y-67066928D01*
X92074246Y-67083992D01*
X91907650Y-67134528D01*
X91754114Y-67216595D01*
X91619538Y-67327038D01*
X91509095Y-67461614D01*
X91427028Y-67615150D01*
X91376492Y-67781746D01*
X91359428Y-67955000D01*
X91359428Y-69205000D01*
X91376492Y-69378254D01*
X91427028Y-69544850D01*
X91509095Y-69698386D01*
X91619538Y-69832962D01*
X91754114Y-69943405D01*
X91907650Y-70025472D01*
X92074246Y-70076008D01*
X92247500Y-70093072D01*
X93172500Y-70093072D01*
X93345754Y-70076008D01*
X93512350Y-70025472D01*
X93665886Y-69943405D01*
X93800462Y-69832962D01*
X93910905Y-69698386D01*
X93955476Y-69615000D01*
X95347524Y-69615000D01*
X95392095Y-69698386D01*
X95502538Y-69832962D01*
X95637114Y-69943405D01*
X95697833Y-69975860D01*
X95728266Y-70032797D01*
X95825197Y-70150907D01*
X95857605Y-70190396D01*
X95897092Y-70222802D01*
X98200700Y-72526411D01*
X98192998Y-72540820D01*
X98156688Y-72660518D01*
X98144428Y-72785000D01*
X98147500Y-73374250D01*
X98306248Y-73532998D01*
X98147500Y-73532998D01*
X98147500Y-73562652D01*
X97870572Y-73285724D01*
X97870572Y-73035000D01*
X97853508Y-72861746D01*
X97802972Y-72695150D01*
X97720905Y-72541614D01*
X97610462Y-72407038D01*
X97475886Y-72296595D01*
X97322350Y-72214528D01*
X97155754Y-72163992D01*
X96982500Y-72146928D01*
X96057500Y-72146928D01*
X95884246Y-72163992D01*
X95717650Y-72214528D01*
X95564114Y-72296595D01*
X95429538Y-72407038D01*
X95319095Y-72541614D01*
X95274524Y-72625000D01*
X93955476Y-72625000D01*
X93910905Y-72541614D01*
X93800462Y-72407038D01*
X93665886Y-72296595D01*
X93512350Y-72214528D01*
X93345754Y-72163992D01*
X93172500Y-72146928D01*
X92247500Y-72146928D01*
X92074246Y-72163992D01*
X91907650Y-72214528D01*
X91754114Y-72296595D01*
X91619538Y-72407038D01*
X91509095Y-72541614D01*
X91427028Y-72695150D01*
X91376492Y-72861746D01*
X91359428Y-73035000D01*
X91359428Y-74285000D01*
X91376492Y-74458254D01*
X91427028Y-74624850D01*
X91509095Y-74778386D01*
X91619538Y-74912962D01*
X91754114Y-75023405D01*
X91907650Y-75105472D01*
X92074246Y-75156008D01*
X92247500Y-75173072D01*
X93172500Y-75173072D01*
X93345754Y-75156008D01*
X93512350Y-75105472D01*
X93665886Y-75023405D01*
X93800462Y-74912962D01*
X93910905Y-74778386D01*
X93955476Y-74695000D01*
X95274524Y-74695000D01*
X95319095Y-74778386D01*
X95429538Y-74912962D01*
X95564114Y-75023405D01*
X95717650Y-75105472D01*
X95884246Y-75156008D01*
X96057500Y-75173072D01*
X96830500Y-75173072D01*
X97587417Y-75929990D01*
X88823701Y-75929990D01*
X85305000Y-72411290D01*
X85305000Y-72243740D01*
X85247932Y-71956842D01*
X85135990Y-71686589D01*
X84973475Y-71443368D01*
X84766632Y-71236525D01*
X84592240Y-71120000D01*
X84733790Y-71025419D01*
X88064277Y-74355907D01*
X88096685Y-74395396D01*
X88136173Y-74427803D01*
X88254283Y-74524734D01*
X88273490Y-74535000D01*
X88434088Y-74620841D01*
X88452942Y-74626560D01*
X88534095Y-74778386D01*
X88644538Y-74912962D01*
X88779114Y-75023405D01*
X88932650Y-75105472D01*
X89099246Y-75156008D01*
X89272500Y-75173072D01*
X90197500Y-75173072D01*
X90370754Y-75156008D01*
X90537350Y-75105472D01*
X90690886Y-75023405D01*
X90825462Y-74912962D01*
X90935905Y-74778386D01*
X91017972Y-74624850D01*
X91068508Y-74458254D01*
X91085572Y-74285000D01*
X91085572Y-73035000D01*
X91068508Y-72861746D01*
X91017972Y-72695150D01*
X90935905Y-72541614D01*
X90825462Y-72407038D01*
X90690886Y-72296595D01*
X90537350Y-72214528D01*
X90370754Y-72163992D01*
X90197500Y-72146928D01*
X89272500Y-72146928D01*
X89099246Y-72163992D01*
X88932650Y-72214528D01*
X88878998Y-72243206D01*
X85789888Y-69154097D01*
X85757477Y-69114604D01*
X85599878Y-68985266D01*
X85420074Y-68889159D01*
X85224976Y-68829976D01*
X85072919Y-68815000D01*
X85072909Y-68815000D01*
X85022081Y-68809994D01*
X84971253Y-68815000D01*
X84885107Y-68815000D01*
X84766632Y-68696525D01*
X84592240Y-68580000D01*
X84766632Y-68463475D01*
X84885107Y-68345000D01*
X88036290Y-68345000D01*
X88384428Y-68693139D01*
X88384428Y-69205000D01*
X88401492Y-69378254D01*
X88452028Y-69544850D01*
X88534095Y-69698386D01*
X88644538Y-69832962D01*
X88779114Y-69943405D01*
X88932650Y-70025472D01*
X89099246Y-70076008D01*
X89272500Y-70093072D01*
X90197500Y-70093072D01*
X90370754Y-70076008D01*
X90537350Y-70025472D01*
X90690886Y-69943405D01*
X90825462Y-69832962D01*
X90935905Y-69698386D01*
X91017972Y-69544850D01*
X91068508Y-69378254D01*
X91085572Y-69205000D01*
X91085572Y-67955000D01*
X91068508Y-67781746D01*
X91017972Y-67615150D01*
X90935905Y-67461614D01*
X90825462Y-67327038D01*
X90690886Y-67216595D01*
X90537350Y-67134528D01*
X90370754Y-67083992D01*
X90197500Y-67066928D01*
X89685638Y-67066928D01*
X89232807Y-66614097D01*
X89200396Y-66574604D01*
X89042797Y-66445266D01*
X88862993Y-66349159D01*
X88667895Y-66289976D01*
X88515838Y-66275000D01*
X88515828Y-66275000D01*
X88465000Y-66269994D01*
X88414172Y-66275000D01*
X84885107Y-66275000D01*
X84766632Y-66156525D01*
X84592240Y-66040000D01*
X84766632Y-65923475D01*
X84885107Y-65805000D01*
X96147172Y-65805000D01*
X96198000Y-65810006D01*
X96248828Y-65805000D01*
X96248838Y-65805000D01*
X96400895Y-65790024D01*
X96595993Y-65730841D01*
X96775797Y-65634734D01*
X96933396Y-65505396D01*
X96965807Y-65465903D01*
X97288903Y-65142807D01*
X97328396Y-65110396D01*
X97457734Y-64952797D01*
X97488167Y-64895860D01*
X97548886Y-64863405D01*
X97683462Y-64752962D01*
X97793905Y-64618386D01*
X97875972Y-64464850D01*
X97903227Y-64375000D01*
X98217428Y-64375000D01*
X98229688Y-64499482D01*
X98265998Y-64619180D01*
X98324963Y-64729494D01*
X98404315Y-64826185D01*
X98501006Y-64905537D01*
X98611320Y-64964502D01*
X98731018Y-65000812D01*
X98855500Y-65013072D01*
X99282250Y-65010000D01*
X99441000Y-64851250D01*
X99441000Y-63627000D01*
X99695000Y-63627000D01*
X99695000Y-64851250D01*
X99853750Y-65010000D01*
X100280500Y-65013072D01*
X100404982Y-65000812D01*
X100524680Y-64964502D01*
X100634994Y-64905537D01*
X100731685Y-64826185D01*
X100811037Y-64729494D01*
X100870002Y-64619180D01*
X100906312Y-64499482D01*
X100918572Y-64375000D01*
X100915500Y-63785750D01*
X100756750Y-63627000D01*
X99695000Y-63627000D01*
X99441000Y-63627000D01*
X98379250Y-63627000D01*
X98220500Y-63785750D01*
X98217428Y-64375000D01*
X97903227Y-64375000D01*
X97926508Y-64298254D01*
X97943572Y-64125000D01*
X97943572Y-62875000D01*
X97926508Y-62701746D01*
X97903228Y-62625000D01*
X98217428Y-62625000D01*
X98220500Y-63214250D01*
X98379250Y-63373000D01*
X99441000Y-63373000D01*
X99441000Y-62148750D01*
X99695000Y-62148750D01*
X99695000Y-63373000D01*
X100756750Y-63373000D01*
X100915500Y-63214250D01*
X100918572Y-62625000D01*
X100906312Y-62500518D01*
X100870002Y-62380820D01*
X100811037Y-62270506D01*
X100731685Y-62173815D01*
X100634994Y-62094463D01*
X100524680Y-62035498D01*
X100404982Y-61999188D01*
X100280500Y-61986928D01*
X99853750Y-61990000D01*
X99695000Y-62148750D01*
X99441000Y-62148750D01*
X99282250Y-61990000D01*
X98855500Y-61986928D01*
X98731018Y-61999188D01*
X98611320Y-62035498D01*
X98501006Y-62094463D01*
X98404315Y-62173815D01*
X98324963Y-62270506D01*
X98265998Y-62380820D01*
X98229688Y-62500518D01*
X98217428Y-62625000D01*
X97903228Y-62625000D01*
X97875972Y-62535150D01*
X97793905Y-62381614D01*
X97683462Y-62247038D01*
X97628000Y-62201522D01*
X97628000Y-50669828D01*
X97633006Y-50619000D01*
X97628000Y-50568172D01*
X97628000Y-50568162D01*
X97613024Y-50416105D01*
X97553841Y-50221007D01*
X97458173Y-50042024D01*
X97457734Y-50041202D01*
X97360803Y-49923092D01*
X97328396Y-49883604D01*
X97288908Y-49851197D01*
X95716710Y-48279000D01*
X100409290Y-48279000D01*
X103359001Y-51228712D01*
X103359000Y-55321172D01*
X103353994Y-55372000D01*
X103359000Y-55422828D01*
X103359000Y-55422837D01*
X103373976Y-55574894D01*
X103433159Y-55769992D01*
X103529266Y-55949797D01*
X103658604Y-56107396D01*
X103698097Y-56139807D01*
X108433891Y-60875602D01*
X108484604Y-60937396D01*
X108524097Y-60969807D01*
X109592197Y-62037908D01*
X109624604Y-62077396D01*
X109782203Y-62206734D01*
X109962007Y-62302841D01*
X110157105Y-62362024D01*
X110309162Y-62377000D01*
X110309171Y-62377000D01*
X110359999Y-62382006D01*
X110410827Y-62377000D01*
X110907397Y-62377000D01*
X110915820Y-62381502D01*
X111035518Y-62417812D01*
X111160000Y-62430072D01*
X112360000Y-62430072D01*
X112484482Y-62417812D01*
X112604180Y-62381502D01*
X112612603Y-62377000D01*
X114375172Y-62377000D01*
X114426000Y-62382006D01*
X114476828Y-62377000D01*
X114476838Y-62377000D01*
X114628895Y-62362024D01*
X114823993Y-62302841D01*
X115003797Y-62206734D01*
X115161396Y-62077396D01*
X115193807Y-62037903D01*
X116506711Y-60725000D01*
X118773822Y-60725000D01*
X118991637Y-61050983D01*
X119289017Y-61348363D01*
X119638698Y-61582012D01*
X120027244Y-61742953D01*
X120439721Y-61825000D01*
X120860279Y-61825000D01*
X121272756Y-61742953D01*
X121661302Y-61582012D01*
X122010983Y-61348363D01*
X122015002Y-61344344D01*
X122015002Y-62631928D01*
X119150000Y-62631928D01*
X119025518Y-62644188D01*
X118905820Y-62680498D01*
X118795506Y-62739463D01*
X118698815Y-62818815D01*
X118619463Y-62915506D01*
X118560498Y-63025820D01*
X118524188Y-63145518D01*
X118511928Y-63270000D01*
X118511928Y-63735000D01*
X112804099Y-63735000D01*
X112714494Y-63661463D01*
X112604180Y-63602498D01*
X112484482Y-63566188D01*
X112360000Y-63553928D01*
X111160000Y-63553928D01*
X111035518Y-63566188D01*
X110915820Y-63602498D01*
X110805506Y-63661463D01*
X110708815Y-63740815D01*
X110629463Y-63837506D01*
X110570498Y-63947820D01*
X110534188Y-64067518D01*
X110521928Y-64192000D01*
X110521928Y-65092000D01*
X110534188Y-65216482D01*
X110570498Y-65336180D01*
X110629463Y-65446494D01*
X110708815Y-65543185D01*
X110805506Y-65622537D01*
X110915820Y-65681502D01*
X111035518Y-65717812D01*
X111160000Y-65730072D01*
X111488568Y-65730072D01*
X111490007Y-65730841D01*
X111685105Y-65790024D01*
X111837162Y-65805000D01*
X111837171Y-65805000D01*
X111887999Y-65810006D01*
X111938827Y-65805000D01*
X118511928Y-65805000D01*
X118511928Y-66270000D01*
X118524188Y-66394482D01*
X118560498Y-66514180D01*
X118619463Y-66624494D01*
X118698815Y-66721185D01*
X118795506Y-66800537D01*
X118905820Y-66859502D01*
X119025518Y-66895812D01*
X119150000Y-66908072D01*
X122150000Y-66908072D01*
X122274482Y-66895812D01*
X122394180Y-66859502D01*
X122504494Y-66800537D01*
X122601185Y-66721185D01*
X122680537Y-66624494D01*
X122739502Y-66514180D01*
X122775812Y-66394482D01*
X122788072Y-66270000D01*
X122788072Y-65805000D01*
X122899172Y-65805000D01*
X122950000Y-65810006D01*
X123000828Y-65805000D01*
X123000838Y-65805000D01*
X123152895Y-65790024D01*
X123347993Y-65730841D01*
X123527797Y-65634734D01*
X123685396Y-65505396D01*
X123717807Y-65465903D01*
X123745904Y-65437806D01*
X123785397Y-65405395D01*
X123914735Y-65247796D01*
X124010842Y-65067992D01*
X124070025Y-64872894D01*
X124085001Y-64720837D01*
X124085001Y-64720834D01*
X124090008Y-64669999D01*
X124085001Y-64619164D01*
X124085001Y-54252836D01*
X124090008Y-54202001D01*
X124085001Y-54151163D01*
X124080159Y-54102000D01*
X124085001Y-54052837D01*
X124085001Y-54052834D01*
X124090008Y-54001999D01*
X124085001Y-53951164D01*
X124085001Y-44936755D01*
X124090008Y-44885920D01*
X124085001Y-44835082D01*
X124070025Y-44683025D01*
X124010842Y-44487927D01*
X123940039Y-44355463D01*
X123914735Y-44308122D01*
X123817804Y-44190012D01*
X123785397Y-44150524D01*
X123745909Y-44118117D01*
X120333888Y-40706097D01*
X120301477Y-40666604D01*
X120143878Y-40537266D01*
X119964074Y-40441159D01*
X119768976Y-40381976D01*
X119616919Y-40367000D01*
X119616909Y-40367000D01*
X119566081Y-40361994D01*
X119515253Y-40367000D01*
X119429107Y-40367000D01*
X119310632Y-40248525D01*
X119067411Y-40086010D01*
X118797158Y-39974068D01*
X118510260Y-39917000D01*
X118217740Y-39917000D01*
X117930842Y-39974068D01*
X117660589Y-40086010D01*
X117417368Y-40248525D01*
X117210525Y-40455368D01*
X117048010Y-40698589D01*
X116936068Y-40968842D01*
X116879000Y-41255740D01*
X116879000Y-41548260D01*
X116936068Y-41835158D01*
X117048010Y-42105411D01*
X117210525Y-42348632D01*
X117342380Y-42480487D01*
X117269820Y-42502498D01*
X117159506Y-42561463D01*
X117062815Y-42640815D01*
X116983463Y-42737506D01*
X116924498Y-42847820D01*
X116888188Y-42967518D01*
X116875928Y-43092000D01*
X116879000Y-43656250D01*
X117037750Y-43815000D01*
X118237000Y-43815000D01*
X118237000Y-43795000D01*
X118491000Y-43795000D01*
X118491000Y-43815000D01*
X119690250Y-43815000D01*
X119849000Y-43656250D01*
X119851749Y-43151378D01*
X122015001Y-45314631D01*
X122015001Y-47367655D01*
X122010983Y-47363637D01*
X121661302Y-47129988D01*
X121272756Y-46969047D01*
X120860279Y-46887000D01*
X120439721Y-46887000D01*
X120027244Y-46969047D01*
X119638698Y-47129988D01*
X119289017Y-47363637D01*
X118991637Y-47661017D01*
X118773822Y-47987000D01*
X113354835Y-47987000D01*
X113304000Y-47981993D01*
X113253165Y-47987000D01*
X113253162Y-47987000D01*
X113101105Y-48001976D01*
X112906007Y-48061159D01*
X112822309Y-48105896D01*
X112726202Y-48157266D01*
X112608092Y-48254197D01*
X112568604Y-48286604D01*
X112536197Y-48326092D01*
X111064097Y-49798193D01*
X111024604Y-49830604D01*
X110895266Y-49988203D01*
X110799159Y-50168008D01*
X110739976Y-50363106D01*
X110725000Y-50515163D01*
X110725000Y-50515172D01*
X110719994Y-50566000D01*
X110725000Y-50616829D01*
X110725000Y-50717289D01*
X106699000Y-46691290D01*
X106699000Y-44792000D01*
X116875928Y-44792000D01*
X116888188Y-44916482D01*
X116924498Y-45036180D01*
X116983463Y-45146494D01*
X117062815Y-45243185D01*
X117159506Y-45322537D01*
X117269820Y-45381502D01*
X117389518Y-45417812D01*
X117514000Y-45430072D01*
X118078250Y-45427000D01*
X118237000Y-45268250D01*
X118237000Y-44069000D01*
X118491000Y-44069000D01*
X118491000Y-45268250D01*
X118649750Y-45427000D01*
X119214000Y-45430072D01*
X119338482Y-45417812D01*
X119458180Y-45381502D01*
X119568494Y-45322537D01*
X119665185Y-45243185D01*
X119744537Y-45146494D01*
X119803502Y-45036180D01*
X119839812Y-44916482D01*
X119852072Y-44792000D01*
X119849000Y-44227750D01*
X119690250Y-44069000D01*
X118491000Y-44069000D01*
X118237000Y-44069000D01*
X117037750Y-44069000D01*
X116879000Y-44227750D01*
X116875928Y-44792000D01*
X106699000Y-44792000D01*
X106699000Y-44431756D01*
X106791963Y-44355463D01*
X106939162Y-44176100D01*
X107094563Y-44361315D01*
X107337077Y-44555969D01*
X107612906Y-44699571D01*
X107831020Y-44770563D01*
X108077000Y-44650594D01*
X108077000Y-43307000D01*
X108331000Y-43307000D01*
X108331000Y-44650594D01*
X108576980Y-44770563D01*
X108795094Y-44699571D01*
X109070923Y-44555969D01*
X109313437Y-44361315D01*
X109513316Y-44123089D01*
X109662879Y-43850446D01*
X109756378Y-43553863D01*
X109629570Y-43307000D01*
X108331000Y-43307000D01*
X108077000Y-43307000D01*
X108057000Y-43307000D01*
X108057000Y-43053000D01*
X108077000Y-43053000D01*
X108077000Y-41709406D01*
X108331000Y-41709406D01*
X108331000Y-43053000D01*
X109629570Y-43053000D01*
X109756378Y-42806137D01*
X109662879Y-42509554D01*
X109513316Y-42236911D01*
X109313437Y-41998685D01*
X109070923Y-41804031D01*
X108795094Y-41660429D01*
X108576980Y-41589437D01*
X108331000Y-41709406D01*
X108077000Y-41709406D01*
X107831020Y-41589437D01*
X107612906Y-41660429D01*
X107337077Y-41804031D01*
X107094563Y-41998685D01*
X106939163Y-42183899D01*
X106791963Y-42004537D01*
X106550234Y-41806155D01*
X106274448Y-41658745D01*
X105975203Y-41567970D01*
X105664000Y-41537319D01*
X105352796Y-41567970D01*
X105053551Y-41658745D01*
X104777765Y-41806155D01*
X104651905Y-41909446D01*
X104607037Y-41825506D01*
X104527685Y-41728815D01*
X104430994Y-41649463D01*
X104320680Y-41590498D01*
X104200982Y-41554188D01*
X104159000Y-41550053D01*
X104159000Y-41430835D01*
X104164007Y-41380000D01*
X104159000Y-41329162D01*
X104144024Y-41177105D01*
X104084841Y-40982007D01*
X104039951Y-40898024D01*
X103988734Y-40802202D01*
X103891803Y-40684092D01*
X103859396Y-40644604D01*
X103819908Y-40612197D01*
X102389807Y-39182097D01*
X102357396Y-39142604D01*
X102199797Y-39013266D01*
X102019993Y-38917159D01*
X101824895Y-38857976D01*
X101672838Y-38843000D01*
X101672828Y-38843000D01*
X101622000Y-38837994D01*
X101571172Y-38843000D01*
X85648827Y-38843000D01*
X85597999Y-38837994D01*
X85547171Y-38843000D01*
X85547162Y-38843000D01*
X85395105Y-38857976D01*
X85200007Y-38917159D01*
X85020203Y-39013266D01*
X84862604Y-39142604D01*
X84830197Y-39182092D01*
X83378097Y-40634193D01*
X83338604Y-40666604D01*
X83209266Y-40824203D01*
X83113159Y-41004008D01*
X83053976Y-41199106D01*
X83039000Y-41351163D01*
X83039000Y-41351172D01*
X83033994Y-41402000D01*
X83039000Y-41452828D01*
X83039001Y-48463162D01*
X83033994Y-48514000D01*
X83053977Y-48716895D01*
X83113160Y-48911993D01*
X83209266Y-49091797D01*
X83306197Y-49209907D01*
X83338605Y-49249396D01*
X83378093Y-49281803D01*
X88917500Y-54821211D01*
X88917501Y-57121521D01*
X88862038Y-57167038D01*
X88751595Y-57301614D01*
X88669528Y-57455150D01*
X88618992Y-57621746D01*
X88601928Y-57795000D01*
X88601928Y-59045000D01*
X88614199Y-59169590D01*
X86588790Y-61195000D01*
X84885107Y-61195000D01*
X84766632Y-61076525D01*
X84584466Y-60954805D01*
X84701355Y-60885178D01*
X84917588Y-60690269D01*
X85091641Y-60456920D01*
X85216825Y-60194099D01*
X85261476Y-60046890D01*
X85140155Y-59817000D01*
X83947000Y-59817000D01*
X83947000Y-59837000D01*
X83693000Y-59837000D01*
X83693000Y-59817000D01*
X82499845Y-59817000D01*
X82378524Y-60046890D01*
X82423175Y-60194099D01*
X82548359Y-60456920D01*
X82722412Y-60690269D01*
X82938645Y-60885178D01*
X83055534Y-60954805D01*
X82873368Y-61076525D01*
X82666525Y-61283368D01*
X82504010Y-61526589D01*
X82392068Y-61796842D01*
X82335000Y-62083740D01*
X81299000Y-62083740D01*
X81299000Y-59484710D01*
X82435894Y-58347817D01*
X82439463Y-58354494D01*
X82518815Y-58451185D01*
X82615506Y-58530537D01*
X82725820Y-58589502D01*
X82806466Y-58613966D01*
X82722412Y-58689731D01*
X82548359Y-58923080D01*
X82423175Y-59185901D01*
X82378524Y-59333110D01*
X82499845Y-59563000D01*
X83693000Y-59563000D01*
X83693000Y-59543000D01*
X83947000Y-59543000D01*
X83947000Y-59563000D01*
X85140155Y-59563000D01*
X85261476Y-59333110D01*
X85216825Y-59185901D01*
X85091641Y-58923080D01*
X84917588Y-58689731D01*
X84833534Y-58613966D01*
X84914180Y-58589502D01*
X85024494Y-58530537D01*
X85121185Y-58451185D01*
X85200537Y-58354494D01*
X85259502Y-58244180D01*
X85295812Y-58124482D01*
X85308072Y-58000000D01*
X85308072Y-56300000D01*
X85295812Y-56175518D01*
X85259502Y-56055820D01*
X85200537Y-55945506D01*
X85121185Y-55848815D01*
X85024494Y-55769463D01*
X84914180Y-55710498D01*
X84794482Y-55674188D01*
X84670000Y-55661928D01*
X82970000Y-55661928D01*
X82845518Y-55674188D01*
X82725820Y-55710498D01*
X82615506Y-55769463D01*
X82518815Y-55848815D01*
X82439463Y-55945506D01*
X82380498Y-56055820D01*
X82362546Y-56115000D01*
X82220827Y-56115000D01*
X82169999Y-56109994D01*
X82119171Y-56115000D01*
X82119162Y-56115000D01*
X81967105Y-56129976D01*
X81772007Y-56189159D01*
X81767624Y-56191502D01*
X81592202Y-56285266D01*
X81474092Y-56382197D01*
X81434604Y-56414604D01*
X81402197Y-56454092D01*
X79568097Y-58288193D01*
X79528604Y-58320604D01*
X79399266Y-58478203D01*
X79303159Y-58658008D01*
X79243976Y-58853106D01*
X79229000Y-59005163D01*
X79229000Y-59005172D01*
X79223994Y-59056000D01*
X76327000Y-59056000D01*
X76327000Y-35687000D01*
X129413000Y-35687000D01*
X129413000Y-96393000D01*
G37*
X129413000Y-96393000D02*
X76327000Y-96393000D01*
X76327000Y-59056000D01*
X79223994Y-59056000D01*
X79229000Y-59106828D01*
X79229001Y-81737162D01*
X79223994Y-81788000D01*
X79243977Y-81990895D01*
X79303160Y-82185993D01*
X79399266Y-82365797D01*
X79496197Y-82483907D01*
X79528605Y-82523396D01*
X79568093Y-82555803D01*
X89656197Y-92643908D01*
X89688604Y-92683396D01*
X89728092Y-92715803D01*
X89846202Y-92812734D01*
X89942309Y-92864104D01*
X90026007Y-92908841D01*
X90221105Y-92968024D01*
X90373162Y-92983000D01*
X90373165Y-92983000D01*
X90424000Y-92988007D01*
X90474835Y-92983000D01*
X117057172Y-92983000D01*
X117108000Y-92988006D01*
X117158828Y-92983000D01*
X117158838Y-92983000D01*
X117310895Y-92968024D01*
X117505993Y-92908841D01*
X117685797Y-92812734D01*
X117843396Y-92683396D01*
X117875807Y-92643903D01*
X121345908Y-89173803D01*
X121385396Y-89141396D01*
X121444398Y-89069502D01*
X121514734Y-88983798D01*
X121610840Y-88803994D01*
X121610841Y-88803993D01*
X121670024Y-88608895D01*
X121685000Y-88456838D01*
X121685000Y-88456829D01*
X121690006Y-88406001D01*
X121685000Y-88355173D01*
X121685000Y-88244072D01*
X122150000Y-88244072D01*
X122274482Y-88231812D01*
X122394180Y-88195502D01*
X122504494Y-88136537D01*
X122601185Y-88057185D01*
X122680537Y-87960494D01*
X122739502Y-87850180D01*
X122775812Y-87730482D01*
X122788072Y-87606000D01*
X122788072Y-87141000D01*
X122899172Y-87141000D01*
X122950000Y-87146006D01*
X123000828Y-87141000D01*
X123000838Y-87141000D01*
X123152895Y-87126024D01*
X123347993Y-87066841D01*
X123527797Y-86970734D01*
X123685396Y-86841396D01*
X123717807Y-86801903D01*
X124901908Y-85617803D01*
X124941396Y-85585396D01*
X124988333Y-85528203D01*
X125070734Y-85427798D01*
X125166840Y-85247994D01*
X125166841Y-85247993D01*
X125226024Y-85052895D01*
X125241000Y-84900838D01*
X125241000Y-84900829D01*
X125246006Y-84850001D01*
X125241000Y-84799173D01*
X125241000Y-76744827D01*
X125246006Y-76693999D01*
X125241000Y-76643171D01*
X125241000Y-76643162D01*
X125226024Y-76491105D01*
X125166841Y-76296007D01*
X125114021Y-76197187D01*
X125070734Y-76116202D01*
X124973803Y-75998092D01*
X124941396Y-75958604D01*
X124901908Y-75926197D01*
X123717807Y-74742097D01*
X123685396Y-74702604D01*
X123527797Y-74573266D01*
X123347993Y-74477159D01*
X123152895Y-74417976D01*
X123000838Y-74403000D01*
X123000828Y-74403000D01*
X122950000Y-74397994D01*
X122899172Y-74403000D01*
X122788072Y-74403000D01*
X122788072Y-73938000D01*
X122775812Y-73813518D01*
X122739502Y-73693820D01*
X122680537Y-73583506D01*
X122601185Y-73486815D01*
X122504494Y-73407463D01*
X122394180Y-73348498D01*
X122274482Y-73312188D01*
X122150000Y-73299928D01*
X119150000Y-73299928D01*
X119025518Y-73312188D01*
X118905820Y-73348498D01*
X118795506Y-73407463D01*
X118698815Y-73486815D01*
X118619463Y-73583506D01*
X118560498Y-73693820D01*
X118524188Y-73813518D01*
X118511928Y-73938000D01*
X118511928Y-76938000D01*
X118524188Y-77062482D01*
X118560498Y-77182180D01*
X118619463Y-77292494D01*
X118698815Y-77389185D01*
X118795506Y-77468537D01*
X118905820Y-77527502D01*
X119025518Y-77563812D01*
X119150000Y-77576072D01*
X122150000Y-77576072D01*
X122274482Y-77563812D01*
X122394180Y-77527502D01*
X122504494Y-77468537D01*
X122601185Y-77389185D01*
X122680537Y-77292494D01*
X122739502Y-77182180D01*
X122775812Y-77062482D01*
X122788072Y-76938000D01*
X122788072Y-76739782D01*
X123171001Y-77122712D01*
X123171000Y-84421289D01*
X122788072Y-84804218D01*
X122788072Y-84606000D01*
X122775812Y-84481518D01*
X122739502Y-84361820D01*
X122680537Y-84251506D01*
X122601185Y-84154815D01*
X122504494Y-84075463D01*
X122394180Y-84016498D01*
X122274482Y-83980188D01*
X122150000Y-83967928D01*
X119150000Y-83967928D01*
X119025518Y-83980188D01*
X118905820Y-84016498D01*
X118795506Y-84075463D01*
X118698815Y-84154815D01*
X118619463Y-84251506D01*
X118560498Y-84361820D01*
X118524188Y-84481518D01*
X118511928Y-84606000D01*
X118511928Y-87606000D01*
X118524188Y-87730482D01*
X118560498Y-87850180D01*
X118619463Y-87960494D01*
X118698815Y-88057185D01*
X118795506Y-88136537D01*
X118905820Y-88195502D01*
X119025518Y-88231812D01*
X119150000Y-88244072D01*
X119348217Y-88244072D01*
X116679290Y-90913000D01*
X90852711Y-90913000D01*
X88419711Y-88480000D01*
X91221928Y-88480000D01*
X91234188Y-88604482D01*
X91270498Y-88724180D01*
X91329463Y-88834494D01*
X91408815Y-88931185D01*
X91505506Y-89010537D01*
X91615820Y-89069502D01*
X91735518Y-89105812D01*
X91860000Y-89118072D01*
X92424250Y-89115000D01*
X92583000Y-88956250D01*
X92583000Y-87757000D01*
X92837000Y-87757000D01*
X92837000Y-88956250D01*
X92995750Y-89115000D01*
X93560000Y-89118072D01*
X93684482Y-89105812D01*
X93804180Y-89069502D01*
X93914494Y-89010537D01*
X94011185Y-88931185D01*
X94090537Y-88834494D01*
X94149502Y-88724180D01*
X94185812Y-88604482D01*
X94198072Y-88480000D01*
X103921928Y-88480000D01*
X103934188Y-88604482D01*
X103970498Y-88724180D01*
X104029463Y-88834494D01*
X104108815Y-88931185D01*
X104205506Y-89010537D01*
X104315820Y-89069502D01*
X104435518Y-89105812D01*
X104560000Y-89118072D01*
X105124250Y-89115000D01*
X105283000Y-88956250D01*
X105283000Y-87757000D01*
X105537000Y-87757000D01*
X105537000Y-88956250D01*
X105695750Y-89115000D01*
X106260000Y-89118072D01*
X106384482Y-89105812D01*
X106504180Y-89069502D01*
X106614494Y-89010537D01*
X106711185Y-88931185D01*
X106790537Y-88834494D01*
X106849502Y-88724180D01*
X106885812Y-88604482D01*
X106898072Y-88480000D01*
X106895000Y-87915750D01*
X106736250Y-87757000D01*
X105537000Y-87757000D01*
X105283000Y-87757000D01*
X104083750Y-87757000D01*
X103925000Y-87915750D01*
X103921928Y-88480000D01*
X94198072Y-88480000D01*
X94195000Y-87915750D01*
X94036250Y-87757000D01*
X92837000Y-87757000D01*
X92583000Y-87757000D01*
X91383750Y-87757000D01*
X91225000Y-87915750D01*
X91221928Y-88480000D01*
X88419711Y-88480000D01*
X81299000Y-81359290D01*
X81299000Y-62083740D01*
X82335000Y-62083740D01*
X82335000Y-62376260D01*
X82392068Y-62663158D01*
X82504010Y-62933411D01*
X82666525Y-63176632D01*
X82873368Y-63383475D01*
X83047760Y-63500000D01*
X82873368Y-63616525D01*
X82666525Y-63823368D01*
X82504010Y-64066589D01*
X82392068Y-64336842D01*
X82335000Y-64623740D01*
X82335000Y-64916260D01*
X82392068Y-65203158D01*
X82504010Y-65473411D01*
X82666525Y-65716632D01*
X82873368Y-65923475D01*
X83047760Y-66040000D01*
X82873368Y-66156525D01*
X82666525Y-66363368D01*
X82504010Y-66606589D01*
X82392068Y-66876842D01*
X82335000Y-67163740D01*
X82335000Y-67456260D01*
X82392068Y-67743158D01*
X82504010Y-68013411D01*
X82666525Y-68256632D01*
X82873368Y-68463475D01*
X83047760Y-68580000D01*
X82873368Y-68696525D01*
X82666525Y-68903368D01*
X82504010Y-69146589D01*
X82392068Y-69416842D01*
X82335000Y-69703740D01*
X82335000Y-69996260D01*
X82392068Y-70283158D01*
X82504010Y-70553411D01*
X82666525Y-70796632D01*
X82873368Y-71003475D01*
X83047760Y-71120000D01*
X82873368Y-71236525D01*
X82666525Y-71443368D01*
X82504010Y-71686589D01*
X82392068Y-71956842D01*
X82335000Y-72243740D01*
X82335000Y-72536260D01*
X82392068Y-72823158D01*
X82504010Y-73093411D01*
X82666525Y-73336632D01*
X82873368Y-73543475D01*
X83047760Y-73660000D01*
X82873368Y-73776525D01*
X82666525Y-73983368D01*
X82504010Y-74226589D01*
X82392068Y-74496842D01*
X82335000Y-74783740D01*
X82335000Y-75076260D01*
X82392068Y-75363158D01*
X82504010Y-75633411D01*
X82666525Y-75876632D01*
X82785001Y-75995108D01*
X82785001Y-76081244D01*
X82779994Y-76132081D01*
X82799977Y-76334976D01*
X82859160Y-76530074D01*
X82955266Y-76709878D01*
X82998120Y-76762095D01*
X83084605Y-76867477D01*
X83124092Y-76899883D01*
X85660116Y-79435908D01*
X85692523Y-79475396D01*
X85732011Y-79507803D01*
X85850121Y-79604734D01*
X85946228Y-79656104D01*
X86029926Y-79700841D01*
X86225024Y-79760024D01*
X86377081Y-79775000D01*
X86377090Y-79775000D01*
X86427918Y-79780006D01*
X86478746Y-79775000D01*
X88489524Y-79775000D01*
X88534095Y-79858386D01*
X88644538Y-79992962D01*
X88779114Y-80103405D01*
X88932650Y-80185472D01*
X89099246Y-80236008D01*
X89272500Y-80253072D01*
X90197500Y-80253072D01*
X90370754Y-80236008D01*
X90537350Y-80185472D01*
X90690886Y-80103405D01*
X90825462Y-79992962D01*
X90935905Y-79858386D01*
X91017972Y-79704850D01*
X91068508Y-79538254D01*
X91085572Y-79365000D01*
X91085572Y-78115000D01*
X91074245Y-77999990D01*
X91370755Y-77999990D01*
X91359428Y-78115000D01*
X91359428Y-79365000D01*
X91376492Y-79538254D01*
X91427028Y-79704850D01*
X91509095Y-79858386D01*
X91619538Y-79992962D01*
X91675000Y-80038478D01*
X91675001Y-84024892D01*
X91556525Y-84143368D01*
X91394010Y-84386589D01*
X91282068Y-84656842D01*
X91225000Y-84943740D01*
X91225000Y-85236260D01*
X91282068Y-85523158D01*
X91394010Y-85793411D01*
X91556525Y-86036632D01*
X91688380Y-86168487D01*
X91615820Y-86190498D01*
X91505506Y-86249463D01*
X91408815Y-86328815D01*
X91329463Y-86425506D01*
X91270498Y-86535820D01*
X91234188Y-86655518D01*
X91221928Y-86780000D01*
X91225000Y-87344250D01*
X91383750Y-87503000D01*
X92583000Y-87503000D01*
X92583000Y-87483000D01*
X92837000Y-87483000D01*
X92837000Y-87503000D01*
X94036250Y-87503000D01*
X94195000Y-87344250D01*
X94198072Y-86780000D01*
X103921928Y-86780000D01*
X103925000Y-87344250D01*
X104083750Y-87503000D01*
X105283000Y-87503000D01*
X105283000Y-87483000D01*
X105537000Y-87483000D01*
X105537000Y-87503000D01*
X106736250Y-87503000D01*
X106895000Y-87344250D01*
X106898072Y-86780000D01*
X106885812Y-86655518D01*
X106849502Y-86535820D01*
X106790537Y-86425506D01*
X106711185Y-86328815D01*
X106614494Y-86249463D01*
X106504180Y-86190498D01*
X106431620Y-86168487D01*
X106563475Y-86036632D01*
X106725990Y-85793411D01*
X106837932Y-85523158D01*
X106895000Y-85236260D01*
X106895000Y-84943740D01*
X106837932Y-84656842D01*
X106725990Y-84386589D01*
X106563475Y-84143368D01*
X106445000Y-84024893D01*
X106445000Y-80038478D01*
X106500462Y-79992962D01*
X106610905Y-79858386D01*
X106692972Y-79704850D01*
X106743508Y-79538254D01*
X106760572Y-79365000D01*
X106760572Y-78115000D01*
X106743508Y-77941746D01*
X106692972Y-77775150D01*
X106610905Y-77621614D01*
X106500462Y-77487038D01*
X106365886Y-77376595D01*
X106212350Y-77294528D01*
X106045754Y-77243992D01*
X105872500Y-77226928D01*
X104947500Y-77226928D01*
X104774246Y-77243992D01*
X104607650Y-77294528D01*
X104454114Y-77376595D01*
X104319538Y-77487038D01*
X104209095Y-77621614D01*
X104127028Y-77775150D01*
X104076492Y-77941746D01*
X104059428Y-78115000D01*
X104059428Y-79365000D01*
X104076492Y-79538254D01*
X104127028Y-79704850D01*
X104209095Y-79858386D01*
X104319538Y-79992962D01*
X104375000Y-80038478D01*
X104375001Y-84024892D01*
X104256525Y-84143368D01*
X104094010Y-84386589D01*
X103982068Y-84656842D01*
X103925000Y-84943740D01*
X103925000Y-85236260D01*
X103982068Y-85523158D01*
X104094010Y-85793411D01*
X104256525Y-86036632D01*
X104388380Y-86168487D01*
X104315820Y-86190498D01*
X104205506Y-86249463D01*
X104108815Y-86328815D01*
X104029463Y-86425506D01*
X103970498Y-86535820D01*
X103934188Y-86655518D01*
X103921928Y-86780000D01*
X94198072Y-86780000D01*
X94185812Y-86655518D01*
X94149502Y-86535820D01*
X94090537Y-86425506D01*
X94011185Y-86328815D01*
X93914494Y-86249463D01*
X93804180Y-86190498D01*
X93731620Y-86168487D01*
X93863475Y-86036632D01*
X94025990Y-85793411D01*
X94137932Y-85523158D01*
X94195000Y-85236260D01*
X94195000Y-84943740D01*
X94137932Y-84656842D01*
X94025990Y-84386589D01*
X93863475Y-84143368D01*
X93745000Y-84024893D01*
X93745000Y-80038478D01*
X93800462Y-79992962D01*
X93910905Y-79858386D01*
X93992972Y-79704850D01*
X94043508Y-79538254D01*
X94060572Y-79365000D01*
X94060572Y-78115000D01*
X94049245Y-77999990D01*
X101095755Y-77999990D01*
X101084428Y-78115000D01*
X101084428Y-79365000D01*
X101101492Y-79538254D01*
X101152028Y-79704850D01*
X101234095Y-79858386D01*
X101344538Y-79992962D01*
X101479114Y-80103405D01*
X101632650Y-80185472D01*
X101799246Y-80236008D01*
X101972500Y-80253072D01*
X102897500Y-80253072D01*
X103070754Y-80236008D01*
X103237350Y-80185472D01*
X103390886Y-80103405D01*
X103525462Y-79992962D01*
X103635905Y-79858386D01*
X103717972Y-79704850D01*
X103768508Y-79538254D01*
X103785572Y-79365000D01*
X103785572Y-78115000D01*
X103768508Y-77941746D01*
X103717972Y-77775150D01*
X103635905Y-77621614D01*
X103525462Y-77487038D01*
X103390886Y-77376595D01*
X103330168Y-77344140D01*
X103299734Y-77287202D01*
X103202803Y-77169092D01*
X103170396Y-77129604D01*
X103130908Y-77097197D01*
X102733691Y-76699980D01*
X114860270Y-76699980D01*
X118454093Y-80293804D01*
X118454098Y-80293808D01*
X118591487Y-80431197D01*
X118515000Y-80815721D01*
X118515000Y-81236279D01*
X118597047Y-81648756D01*
X118757988Y-82037302D01*
X118991637Y-82386983D01*
X119289017Y-82684363D01*
X119638698Y-82918012D01*
X120027244Y-83078953D01*
X120439721Y-83161000D01*
X120860279Y-83161000D01*
X121272756Y-83078953D01*
X121661302Y-82918012D01*
X122010983Y-82684363D01*
X122308363Y-82386983D01*
X122542012Y-82037302D01*
X122702953Y-81648756D01*
X122785000Y-81236279D01*
X122785000Y-80815721D01*
X122702953Y-80403244D01*
X122542012Y-80014698D01*
X122308363Y-79665017D01*
X122010983Y-79367637D01*
X121661302Y-79133988D01*
X121272756Y-78973047D01*
X120860279Y-78891000D01*
X120439721Y-78891000D01*
X120055197Y-78967487D01*
X119917808Y-78830098D01*
X119917804Y-78830093D01*
X116056787Y-74969077D01*
X116024376Y-74929584D01*
X115866777Y-74800246D01*
X115686973Y-74704139D01*
X115491875Y-74644956D01*
X115339818Y-74629980D01*
X115339808Y-74629980D01*
X115288980Y-74624974D01*
X115238152Y-74629980D01*
X100836218Y-74629980D01*
X100845572Y-74535000D01*
X100842500Y-73945750D01*
X100683750Y-73787000D01*
X99622000Y-73787000D01*
X99622000Y-73807000D01*
X99368000Y-73807000D01*
X99368000Y-73787000D01*
X99348000Y-73787000D01*
X99348000Y-73533000D01*
X99368000Y-73533000D01*
X99368000Y-73513000D01*
X99622000Y-73513000D01*
X99622000Y-73533000D01*
X100683750Y-73533000D01*
X100842500Y-73374250D01*
X100845009Y-72892999D01*
X119099173Y-72892999D01*
X119150001Y-72898005D01*
X119200829Y-72892999D01*
X119200839Y-72892999D01*
X119352896Y-72878023D01*
X119547994Y-72818840D01*
X119727798Y-72722733D01*
X119885397Y-72593395D01*
X119917808Y-72553902D01*
X120055197Y-72416513D01*
X120439721Y-72493000D01*
X120860279Y-72493000D01*
X121272756Y-72410953D01*
X121661302Y-72250012D01*
X122010983Y-72016363D01*
X122308363Y-71718983D01*
X122542012Y-71369302D01*
X122702953Y-70980756D01*
X122785000Y-70568279D01*
X122785000Y-70147721D01*
X122702953Y-69735244D01*
X122542012Y-69346698D01*
X122308363Y-68997017D01*
X122010983Y-68699637D01*
X121661302Y-68465988D01*
X121272756Y-68305047D01*
X120860279Y-68223000D01*
X120439721Y-68223000D01*
X120027244Y-68305047D01*
X119638698Y-68465988D01*
X119289017Y-68699637D01*
X118991637Y-68997017D01*
X118757988Y-69346698D01*
X118597047Y-69735244D01*
X118515000Y-70147721D01*
X118515000Y-70568279D01*
X118565667Y-70822999D01*
X99424710Y-70822999D01*
X98661406Y-70059695D01*
X98731018Y-70080812D01*
X98855500Y-70093072D01*
X99282250Y-70090000D01*
X99441000Y-69931250D01*
X99441000Y-68707000D01*
X99695000Y-68707000D01*
X99695000Y-69931250D01*
X99853750Y-70090000D01*
X100280500Y-70093072D01*
X100404982Y-70080812D01*
X100524680Y-70044502D01*
X100634994Y-69985537D01*
X100731685Y-69906185D01*
X100811037Y-69809494D01*
X100870002Y-69699180D01*
X100906312Y-69579482D01*
X100918572Y-69455000D01*
X100915500Y-68865750D01*
X100756750Y-68707000D01*
X99695000Y-68707000D01*
X99441000Y-68707000D01*
X98379250Y-68707000D01*
X98220500Y-68865750D01*
X98217428Y-69455000D01*
X98229688Y-69579482D01*
X98250805Y-69649094D01*
X97931301Y-69329591D01*
X97943572Y-69205000D01*
X97943572Y-67955000D01*
X97926508Y-67781746D01*
X97903228Y-67705000D01*
X98217428Y-67705000D01*
X98220500Y-68294250D01*
X98379250Y-68453000D01*
X99441000Y-68453000D01*
X99441000Y-67228750D01*
X99695000Y-67228750D01*
X99695000Y-68453000D01*
X100756750Y-68453000D01*
X100915500Y-68294250D01*
X100918572Y-67705000D01*
X100906312Y-67580518D01*
X100870002Y-67460820D01*
X100811037Y-67350506D01*
X100731685Y-67253815D01*
X100634994Y-67174463D01*
X100524680Y-67115498D01*
X100404982Y-67079188D01*
X100280500Y-67066928D01*
X99853750Y-67070000D01*
X99695000Y-67228750D01*
X99441000Y-67228750D01*
X99282250Y-67070000D01*
X98855500Y-67066928D01*
X98731018Y-67079188D01*
X98611320Y-67115498D01*
X98501006Y-67174463D01*
X98404315Y-67253815D01*
X98324963Y-67350506D01*
X98265998Y-67460820D01*
X98229688Y-67580518D01*
X98217428Y-67705000D01*
X97903228Y-67705000D01*
X97875972Y-67615150D01*
X97793905Y-67461614D01*
X97683462Y-67327038D01*
X97548886Y-67216595D01*
X97395350Y-67134528D01*
X97228754Y-67083992D01*
X97055500Y-67066928D01*
X96130500Y-67066928D01*
X95957246Y-67083992D01*
X95790650Y-67134528D01*
X95637114Y-67216595D01*
X95502538Y-67327038D01*
X95392095Y-67461614D01*
X95347524Y-67545000D01*
X93955476Y-67545000D01*
X93910905Y-67461614D01*
X93800462Y-67327038D01*
X93665886Y-67216595D01*
X93512350Y-67134528D01*
X93345754Y-67083992D01*
X93172500Y-67066928D01*
X92247500Y-67066928D01*
X92074246Y-67083992D01*
X91907650Y-67134528D01*
X91754114Y-67216595D01*
X91619538Y-67327038D01*
X91509095Y-67461614D01*
X91427028Y-67615150D01*
X91376492Y-67781746D01*
X91359428Y-67955000D01*
X91359428Y-69205000D01*
X91376492Y-69378254D01*
X91427028Y-69544850D01*
X91509095Y-69698386D01*
X91619538Y-69832962D01*
X91754114Y-69943405D01*
X91907650Y-70025472D01*
X92074246Y-70076008D01*
X92247500Y-70093072D01*
X93172500Y-70093072D01*
X93345754Y-70076008D01*
X93512350Y-70025472D01*
X93665886Y-69943405D01*
X93800462Y-69832962D01*
X93910905Y-69698386D01*
X93955476Y-69615000D01*
X95347524Y-69615000D01*
X95392095Y-69698386D01*
X95502538Y-69832962D01*
X95637114Y-69943405D01*
X95697833Y-69975860D01*
X95728266Y-70032797D01*
X95825197Y-70150907D01*
X95857605Y-70190396D01*
X95897092Y-70222802D01*
X98200700Y-72526411D01*
X98192998Y-72540820D01*
X98156688Y-72660518D01*
X98144428Y-72785000D01*
X98147500Y-73374250D01*
X98306248Y-73532998D01*
X98147500Y-73532998D01*
X98147500Y-73562652D01*
X97870572Y-73285724D01*
X97870572Y-73035000D01*
X97853508Y-72861746D01*
X97802972Y-72695150D01*
X97720905Y-72541614D01*
X97610462Y-72407038D01*
X97475886Y-72296595D01*
X97322350Y-72214528D01*
X97155754Y-72163992D01*
X96982500Y-72146928D01*
X96057500Y-72146928D01*
X95884246Y-72163992D01*
X95717650Y-72214528D01*
X95564114Y-72296595D01*
X95429538Y-72407038D01*
X95319095Y-72541614D01*
X95274524Y-72625000D01*
X93955476Y-72625000D01*
X93910905Y-72541614D01*
X93800462Y-72407038D01*
X93665886Y-72296595D01*
X93512350Y-72214528D01*
X93345754Y-72163992D01*
X93172500Y-72146928D01*
X92247500Y-72146928D01*
X92074246Y-72163992D01*
X91907650Y-72214528D01*
X91754114Y-72296595D01*
X91619538Y-72407038D01*
X91509095Y-72541614D01*
X91427028Y-72695150D01*
X91376492Y-72861746D01*
X91359428Y-73035000D01*
X91359428Y-74285000D01*
X91376492Y-74458254D01*
X91427028Y-74624850D01*
X91509095Y-74778386D01*
X91619538Y-74912962D01*
X91754114Y-75023405D01*
X91907650Y-75105472D01*
X92074246Y-75156008D01*
X92247500Y-75173072D01*
X93172500Y-75173072D01*
X93345754Y-75156008D01*
X93512350Y-75105472D01*
X93665886Y-75023405D01*
X93800462Y-74912962D01*
X93910905Y-74778386D01*
X93955476Y-74695000D01*
X95274524Y-74695000D01*
X95319095Y-74778386D01*
X95429538Y-74912962D01*
X95564114Y-75023405D01*
X95717650Y-75105472D01*
X95884246Y-75156008D01*
X96057500Y-75173072D01*
X96830500Y-75173072D01*
X97587417Y-75929990D01*
X88823701Y-75929990D01*
X85305000Y-72411290D01*
X85305000Y-72243740D01*
X85247932Y-71956842D01*
X85135990Y-71686589D01*
X84973475Y-71443368D01*
X84766632Y-71236525D01*
X84592240Y-71120000D01*
X84733790Y-71025419D01*
X88064277Y-74355907D01*
X88096685Y-74395396D01*
X88136173Y-74427803D01*
X88254283Y-74524734D01*
X88273490Y-74535000D01*
X88434088Y-74620841D01*
X88452942Y-74626560D01*
X88534095Y-74778386D01*
X88644538Y-74912962D01*
X88779114Y-75023405D01*
X88932650Y-75105472D01*
X89099246Y-75156008D01*
X89272500Y-75173072D01*
X90197500Y-75173072D01*
X90370754Y-75156008D01*
X90537350Y-75105472D01*
X90690886Y-75023405D01*
X90825462Y-74912962D01*
X90935905Y-74778386D01*
X91017972Y-74624850D01*
X91068508Y-74458254D01*
X91085572Y-74285000D01*
X91085572Y-73035000D01*
X91068508Y-72861746D01*
X91017972Y-72695150D01*
X90935905Y-72541614D01*
X90825462Y-72407038D01*
X90690886Y-72296595D01*
X90537350Y-72214528D01*
X90370754Y-72163992D01*
X90197500Y-72146928D01*
X89272500Y-72146928D01*
X89099246Y-72163992D01*
X88932650Y-72214528D01*
X88878998Y-72243206D01*
X85789888Y-69154097D01*
X85757477Y-69114604D01*
X85599878Y-68985266D01*
X85420074Y-68889159D01*
X85224976Y-68829976D01*
X85072919Y-68815000D01*
X85072909Y-68815000D01*
X85022081Y-68809994D01*
X84971253Y-68815000D01*
X84885107Y-68815000D01*
X84766632Y-68696525D01*
X84592240Y-68580000D01*
X84766632Y-68463475D01*
X84885107Y-68345000D01*
X88036290Y-68345000D01*
X88384428Y-68693139D01*
X88384428Y-69205000D01*
X88401492Y-69378254D01*
X88452028Y-69544850D01*
X88534095Y-69698386D01*
X88644538Y-69832962D01*
X88779114Y-69943405D01*
X88932650Y-70025472D01*
X89099246Y-70076008D01*
X89272500Y-70093072D01*
X90197500Y-70093072D01*
X90370754Y-70076008D01*
X90537350Y-70025472D01*
X90690886Y-69943405D01*
X90825462Y-69832962D01*
X90935905Y-69698386D01*
X91017972Y-69544850D01*
X91068508Y-69378254D01*
X91085572Y-69205000D01*
X91085572Y-67955000D01*
X91068508Y-67781746D01*
X91017972Y-67615150D01*
X90935905Y-67461614D01*
X90825462Y-67327038D01*
X90690886Y-67216595D01*
X90537350Y-67134528D01*
X90370754Y-67083992D01*
X90197500Y-67066928D01*
X89685638Y-67066928D01*
X89232807Y-66614097D01*
X89200396Y-66574604D01*
X89042797Y-66445266D01*
X88862993Y-66349159D01*
X88667895Y-66289976D01*
X88515838Y-66275000D01*
X88515828Y-66275000D01*
X88465000Y-66269994D01*
X88414172Y-66275000D01*
X84885107Y-66275000D01*
X84766632Y-66156525D01*
X84592240Y-66040000D01*
X84766632Y-65923475D01*
X84885107Y-65805000D01*
X96147172Y-65805000D01*
X96198000Y-65810006D01*
X96248828Y-65805000D01*
X96248838Y-65805000D01*
X96400895Y-65790024D01*
X96595993Y-65730841D01*
X96775797Y-65634734D01*
X96933396Y-65505396D01*
X96965807Y-65465903D01*
X97288903Y-65142807D01*
X97328396Y-65110396D01*
X97457734Y-64952797D01*
X97488167Y-64895860D01*
X97548886Y-64863405D01*
X97683462Y-64752962D01*
X97793905Y-64618386D01*
X97875972Y-64464850D01*
X97903227Y-64375000D01*
X98217428Y-64375000D01*
X98229688Y-64499482D01*
X98265998Y-64619180D01*
X98324963Y-64729494D01*
X98404315Y-64826185D01*
X98501006Y-64905537D01*
X98611320Y-64964502D01*
X98731018Y-65000812D01*
X98855500Y-65013072D01*
X99282250Y-65010000D01*
X99441000Y-64851250D01*
X99441000Y-63627000D01*
X99695000Y-63627000D01*
X99695000Y-64851250D01*
X99853750Y-65010000D01*
X100280500Y-65013072D01*
X100404982Y-65000812D01*
X100524680Y-64964502D01*
X100634994Y-64905537D01*
X100731685Y-64826185D01*
X100811037Y-64729494D01*
X100870002Y-64619180D01*
X100906312Y-64499482D01*
X100918572Y-64375000D01*
X100915500Y-63785750D01*
X100756750Y-63627000D01*
X99695000Y-63627000D01*
X99441000Y-63627000D01*
X98379250Y-63627000D01*
X98220500Y-63785750D01*
X98217428Y-64375000D01*
X97903227Y-64375000D01*
X97926508Y-64298254D01*
X97943572Y-64125000D01*
X97943572Y-62875000D01*
X97926508Y-62701746D01*
X97903228Y-62625000D01*
X98217428Y-62625000D01*
X98220500Y-63214250D01*
X98379250Y-63373000D01*
X99441000Y-63373000D01*
X99441000Y-62148750D01*
X99695000Y-62148750D01*
X99695000Y-63373000D01*
X100756750Y-63373000D01*
X100915500Y-63214250D01*
X100918572Y-62625000D01*
X100906312Y-62500518D01*
X100870002Y-62380820D01*
X100811037Y-62270506D01*
X100731685Y-62173815D01*
X100634994Y-62094463D01*
X100524680Y-62035498D01*
X100404982Y-61999188D01*
X100280500Y-61986928D01*
X99853750Y-61990000D01*
X99695000Y-62148750D01*
X99441000Y-62148750D01*
X99282250Y-61990000D01*
X98855500Y-61986928D01*
X98731018Y-61999188D01*
X98611320Y-62035498D01*
X98501006Y-62094463D01*
X98404315Y-62173815D01*
X98324963Y-62270506D01*
X98265998Y-62380820D01*
X98229688Y-62500518D01*
X98217428Y-62625000D01*
X97903228Y-62625000D01*
X97875972Y-62535150D01*
X97793905Y-62381614D01*
X97683462Y-62247038D01*
X97628000Y-62201522D01*
X97628000Y-50669828D01*
X97633006Y-50619000D01*
X97628000Y-50568172D01*
X97628000Y-50568162D01*
X97613024Y-50416105D01*
X97553841Y-50221007D01*
X97458173Y-50042024D01*
X97457734Y-50041202D01*
X97360803Y-49923092D01*
X97328396Y-49883604D01*
X97288908Y-49851197D01*
X95716710Y-48279000D01*
X100409290Y-48279000D01*
X103359001Y-51228712D01*
X103359000Y-55321172D01*
X103353994Y-55372000D01*
X103359000Y-55422828D01*
X103359000Y-55422837D01*
X103373976Y-55574894D01*
X103433159Y-55769992D01*
X103529266Y-55949797D01*
X103658604Y-56107396D01*
X103698097Y-56139807D01*
X108433891Y-60875602D01*
X108484604Y-60937396D01*
X108524097Y-60969807D01*
X109592197Y-62037908D01*
X109624604Y-62077396D01*
X109782203Y-62206734D01*
X109962007Y-62302841D01*
X110157105Y-62362024D01*
X110309162Y-62377000D01*
X110309171Y-62377000D01*
X110359999Y-62382006D01*
X110410827Y-62377000D01*
X110907397Y-62377000D01*
X110915820Y-62381502D01*
X111035518Y-62417812D01*
X111160000Y-62430072D01*
X112360000Y-62430072D01*
X112484482Y-62417812D01*
X112604180Y-62381502D01*
X112612603Y-62377000D01*
X114375172Y-62377000D01*
X114426000Y-62382006D01*
X114476828Y-62377000D01*
X114476838Y-62377000D01*
X114628895Y-62362024D01*
X114823993Y-62302841D01*
X115003797Y-62206734D01*
X115161396Y-62077396D01*
X115193807Y-62037903D01*
X116506711Y-60725000D01*
X118773822Y-60725000D01*
X118991637Y-61050983D01*
X119289017Y-61348363D01*
X119638698Y-61582012D01*
X120027244Y-61742953D01*
X120439721Y-61825000D01*
X120860279Y-61825000D01*
X121272756Y-61742953D01*
X121661302Y-61582012D01*
X122010983Y-61348363D01*
X122015002Y-61344344D01*
X122015002Y-62631928D01*
X119150000Y-62631928D01*
X119025518Y-62644188D01*
X118905820Y-62680498D01*
X118795506Y-62739463D01*
X118698815Y-62818815D01*
X118619463Y-62915506D01*
X118560498Y-63025820D01*
X118524188Y-63145518D01*
X118511928Y-63270000D01*
X118511928Y-63735000D01*
X112804099Y-63735000D01*
X112714494Y-63661463D01*
X112604180Y-63602498D01*
X112484482Y-63566188D01*
X112360000Y-63553928D01*
X111160000Y-63553928D01*
X111035518Y-63566188D01*
X110915820Y-63602498D01*
X110805506Y-63661463D01*
X110708815Y-63740815D01*
X110629463Y-63837506D01*
X110570498Y-63947820D01*
X110534188Y-64067518D01*
X110521928Y-64192000D01*
X110521928Y-65092000D01*
X110534188Y-65216482D01*
X110570498Y-65336180D01*
X110629463Y-65446494D01*
X110708815Y-65543185D01*
X110805506Y-65622537D01*
X110915820Y-65681502D01*
X111035518Y-65717812D01*
X111160000Y-65730072D01*
X111488568Y-65730072D01*
X111490007Y-65730841D01*
X111685105Y-65790024D01*
X111837162Y-65805000D01*
X111837171Y-65805000D01*
X111887999Y-65810006D01*
X111938827Y-65805000D01*
X118511928Y-65805000D01*
X118511928Y-66270000D01*
X118524188Y-66394482D01*
X118560498Y-66514180D01*
X118619463Y-66624494D01*
X118698815Y-66721185D01*
X118795506Y-66800537D01*
X118905820Y-66859502D01*
X119025518Y-66895812D01*
X119150000Y-66908072D01*
X122150000Y-66908072D01*
X122274482Y-66895812D01*
X122394180Y-66859502D01*
X122504494Y-66800537D01*
X122601185Y-66721185D01*
X122680537Y-66624494D01*
X122739502Y-66514180D01*
X122775812Y-66394482D01*
X122788072Y-66270000D01*
X122788072Y-65805000D01*
X122899172Y-65805000D01*
X122950000Y-65810006D01*
X123000828Y-65805000D01*
X123000838Y-65805000D01*
X123152895Y-65790024D01*
X123347993Y-65730841D01*
X123527797Y-65634734D01*
X123685396Y-65505396D01*
X123717807Y-65465903D01*
X123745904Y-65437806D01*
X123785397Y-65405395D01*
X123914735Y-65247796D01*
X124010842Y-65067992D01*
X124070025Y-64872894D01*
X124085001Y-64720837D01*
X124085001Y-64720834D01*
X124090008Y-64669999D01*
X124085001Y-64619164D01*
X124085001Y-54252836D01*
X124090008Y-54202001D01*
X124085001Y-54151163D01*
X124080159Y-54102000D01*
X124085001Y-54052837D01*
X124085001Y-54052834D01*
X124090008Y-54001999D01*
X124085001Y-53951164D01*
X124085001Y-44936755D01*
X124090008Y-44885920D01*
X124085001Y-44835082D01*
X124070025Y-44683025D01*
X124010842Y-44487927D01*
X123940039Y-44355463D01*
X123914735Y-44308122D01*
X123817804Y-44190012D01*
X123785397Y-44150524D01*
X123745909Y-44118117D01*
X120333888Y-40706097D01*
X120301477Y-40666604D01*
X120143878Y-40537266D01*
X119964074Y-40441159D01*
X119768976Y-40381976D01*
X119616919Y-40367000D01*
X119616909Y-40367000D01*
X119566081Y-40361994D01*
X119515253Y-40367000D01*
X119429107Y-40367000D01*
X119310632Y-40248525D01*
X119067411Y-40086010D01*
X118797158Y-39974068D01*
X118510260Y-39917000D01*
X118217740Y-39917000D01*
X117930842Y-39974068D01*
X117660589Y-40086010D01*
X117417368Y-40248525D01*
X117210525Y-40455368D01*
X117048010Y-40698589D01*
X116936068Y-40968842D01*
X116879000Y-41255740D01*
X116879000Y-41548260D01*
X116936068Y-41835158D01*
X117048010Y-42105411D01*
X117210525Y-42348632D01*
X117342380Y-42480487D01*
X117269820Y-42502498D01*
X117159506Y-42561463D01*
X117062815Y-42640815D01*
X116983463Y-42737506D01*
X116924498Y-42847820D01*
X116888188Y-42967518D01*
X116875928Y-43092000D01*
X116879000Y-43656250D01*
X117037750Y-43815000D01*
X118237000Y-43815000D01*
X118237000Y-43795000D01*
X118491000Y-43795000D01*
X118491000Y-43815000D01*
X119690250Y-43815000D01*
X119849000Y-43656250D01*
X119851749Y-43151378D01*
X122015001Y-45314631D01*
X122015001Y-47367655D01*
X122010983Y-47363637D01*
X121661302Y-47129988D01*
X121272756Y-46969047D01*
X120860279Y-46887000D01*
X120439721Y-46887000D01*
X120027244Y-46969047D01*
X119638698Y-47129988D01*
X119289017Y-47363637D01*
X118991637Y-47661017D01*
X118773822Y-47987000D01*
X113354835Y-47987000D01*
X113304000Y-47981993D01*
X113253165Y-47987000D01*
X113253162Y-47987000D01*
X113101105Y-48001976D01*
X112906007Y-48061159D01*
X112822309Y-48105896D01*
X112726202Y-48157266D01*
X112608092Y-48254197D01*
X112568604Y-48286604D01*
X112536197Y-48326092D01*
X111064097Y-49798193D01*
X111024604Y-49830604D01*
X110895266Y-49988203D01*
X110799159Y-50168008D01*
X110739976Y-50363106D01*
X110725000Y-50515163D01*
X110725000Y-50515172D01*
X110719994Y-50566000D01*
X110725000Y-50616829D01*
X110725000Y-50717289D01*
X106699000Y-46691290D01*
X106699000Y-44792000D01*
X116875928Y-44792000D01*
X116888188Y-44916482D01*
X116924498Y-45036180D01*
X116983463Y-45146494D01*
X117062815Y-45243185D01*
X117159506Y-45322537D01*
X117269820Y-45381502D01*
X117389518Y-45417812D01*
X117514000Y-45430072D01*
X118078250Y-45427000D01*
X118237000Y-45268250D01*
X118237000Y-44069000D01*
X118491000Y-44069000D01*
X118491000Y-45268250D01*
X118649750Y-45427000D01*
X119214000Y-45430072D01*
X119338482Y-45417812D01*
X119458180Y-45381502D01*
X119568494Y-45322537D01*
X119665185Y-45243185D01*
X119744537Y-45146494D01*
X119803502Y-45036180D01*
X119839812Y-44916482D01*
X119852072Y-44792000D01*
X119849000Y-44227750D01*
X119690250Y-44069000D01*
X118491000Y-44069000D01*
X118237000Y-44069000D01*
X117037750Y-44069000D01*
X116879000Y-44227750D01*
X116875928Y-44792000D01*
X106699000Y-44792000D01*
X106699000Y-44431756D01*
X106791963Y-44355463D01*
X106939162Y-44176100D01*
X107094563Y-44361315D01*
X107337077Y-44555969D01*
X107612906Y-44699571D01*
X107831020Y-44770563D01*
X108077000Y-44650594D01*
X108077000Y-43307000D01*
X108331000Y-43307000D01*
X108331000Y-44650594D01*
X108576980Y-44770563D01*
X108795094Y-44699571D01*
X109070923Y-44555969D01*
X109313437Y-44361315D01*
X109513316Y-44123089D01*
X109662879Y-43850446D01*
X109756378Y-43553863D01*
X109629570Y-43307000D01*
X108331000Y-43307000D01*
X108077000Y-43307000D01*
X108057000Y-43307000D01*
X108057000Y-43053000D01*
X108077000Y-43053000D01*
X108077000Y-41709406D01*
X108331000Y-41709406D01*
X108331000Y-43053000D01*
X109629570Y-43053000D01*
X109756378Y-42806137D01*
X109662879Y-42509554D01*
X109513316Y-42236911D01*
X109313437Y-41998685D01*
X109070923Y-41804031D01*
X108795094Y-41660429D01*
X108576980Y-41589437D01*
X108331000Y-41709406D01*
X108077000Y-41709406D01*
X107831020Y-41589437D01*
X107612906Y-41660429D01*
X107337077Y-41804031D01*
X107094563Y-41998685D01*
X106939163Y-42183899D01*
X106791963Y-42004537D01*
X106550234Y-41806155D01*
X106274448Y-41658745D01*
X105975203Y-41567970D01*
X105664000Y-41537319D01*
X105352796Y-41567970D01*
X105053551Y-41658745D01*
X104777765Y-41806155D01*
X104651905Y-41909446D01*
X104607037Y-41825506D01*
X104527685Y-41728815D01*
X104430994Y-41649463D01*
X104320680Y-41590498D01*
X104200982Y-41554188D01*
X104159000Y-41550053D01*
X104159000Y-41430835D01*
X104164007Y-41380000D01*
X104159000Y-41329162D01*
X104144024Y-41177105D01*
X104084841Y-40982007D01*
X104039951Y-40898024D01*
X103988734Y-40802202D01*
X103891803Y-40684092D01*
X103859396Y-40644604D01*
X103819908Y-40612197D01*
X102389807Y-39182097D01*
X102357396Y-39142604D01*
X102199797Y-39013266D01*
X102019993Y-38917159D01*
X101824895Y-38857976D01*
X101672838Y-38843000D01*
X101672828Y-38843000D01*
X101622000Y-38837994D01*
X101571172Y-38843000D01*
X85648827Y-38843000D01*
X85597999Y-38837994D01*
X85547171Y-38843000D01*
X85547162Y-38843000D01*
X85395105Y-38857976D01*
X85200007Y-38917159D01*
X85020203Y-39013266D01*
X84862604Y-39142604D01*
X84830197Y-39182092D01*
X83378097Y-40634193D01*
X83338604Y-40666604D01*
X83209266Y-40824203D01*
X83113159Y-41004008D01*
X83053976Y-41199106D01*
X83039000Y-41351163D01*
X83039000Y-41351172D01*
X83033994Y-41402000D01*
X83039000Y-41452828D01*
X83039001Y-48463162D01*
X83033994Y-48514000D01*
X83053977Y-48716895D01*
X83113160Y-48911993D01*
X83209266Y-49091797D01*
X83306197Y-49209907D01*
X83338605Y-49249396D01*
X83378093Y-49281803D01*
X88917500Y-54821211D01*
X88917501Y-57121521D01*
X88862038Y-57167038D01*
X88751595Y-57301614D01*
X88669528Y-57455150D01*
X88618992Y-57621746D01*
X88601928Y-57795000D01*
X88601928Y-59045000D01*
X88614199Y-59169590D01*
X86588790Y-61195000D01*
X84885107Y-61195000D01*
X84766632Y-61076525D01*
X84584466Y-60954805D01*
X84701355Y-60885178D01*
X84917588Y-60690269D01*
X85091641Y-60456920D01*
X85216825Y-60194099D01*
X85261476Y-60046890D01*
X85140155Y-59817000D01*
X83947000Y-59817000D01*
X83947000Y-59837000D01*
X83693000Y-59837000D01*
X83693000Y-59817000D01*
X82499845Y-59817000D01*
X82378524Y-60046890D01*
X82423175Y-60194099D01*
X82548359Y-60456920D01*
X82722412Y-60690269D01*
X82938645Y-60885178D01*
X83055534Y-60954805D01*
X82873368Y-61076525D01*
X82666525Y-61283368D01*
X82504010Y-61526589D01*
X82392068Y-61796842D01*
X82335000Y-62083740D01*
X81299000Y-62083740D01*
X81299000Y-59484710D01*
X82435894Y-58347817D01*
X82439463Y-58354494D01*
X82518815Y-58451185D01*
X82615506Y-58530537D01*
X82725820Y-58589502D01*
X82806466Y-58613966D01*
X82722412Y-58689731D01*
X82548359Y-58923080D01*
X82423175Y-59185901D01*
X82378524Y-59333110D01*
X82499845Y-59563000D01*
X83693000Y-59563000D01*
X83693000Y-59543000D01*
X83947000Y-59543000D01*
X83947000Y-59563000D01*
X85140155Y-59563000D01*
X85261476Y-59333110D01*
X85216825Y-59185901D01*
X85091641Y-58923080D01*
X84917588Y-58689731D01*
X84833534Y-58613966D01*
X84914180Y-58589502D01*
X85024494Y-58530537D01*
X85121185Y-58451185D01*
X85200537Y-58354494D01*
X85259502Y-58244180D01*
X85295812Y-58124482D01*
X85308072Y-58000000D01*
X85308072Y-56300000D01*
X85295812Y-56175518D01*
X85259502Y-56055820D01*
X85200537Y-55945506D01*
X85121185Y-55848815D01*
X85024494Y-55769463D01*
X84914180Y-55710498D01*
X84794482Y-55674188D01*
X84670000Y-55661928D01*
X82970000Y-55661928D01*
X82845518Y-55674188D01*
X82725820Y-55710498D01*
X82615506Y-55769463D01*
X82518815Y-55848815D01*
X82439463Y-55945506D01*
X82380498Y-56055820D01*
X82362546Y-56115000D01*
X82220827Y-56115000D01*
X82169999Y-56109994D01*
X82119171Y-56115000D01*
X82119162Y-56115000D01*
X81967105Y-56129976D01*
X81772007Y-56189159D01*
X81767624Y-56191502D01*
X81592202Y-56285266D01*
X81474092Y-56382197D01*
X81434604Y-56414604D01*
X81402197Y-56454092D01*
X79568097Y-58288193D01*
X79528604Y-58320604D01*
X79399266Y-58478203D01*
X79303159Y-58658008D01*
X79243976Y-58853106D01*
X79229000Y-59005163D01*
X79229000Y-59005172D01*
X79223994Y-59056000D01*
X76327000Y-59056000D01*
X76327000Y-35687000D01*
X129413000Y-35687000D01*
X129413000Y-96393000D01*
G36*
X101890479Y-41610190D02*
G01*
X101817006Y-41649463D01*
X101720315Y-41728815D01*
X101640963Y-41825506D01*
X101581998Y-41935820D01*
X101545688Y-42055518D01*
X101533428Y-42180000D01*
X101533428Y-44180000D01*
X101545688Y-44304482D01*
X101581998Y-44424180D01*
X101640963Y-44534494D01*
X101720315Y-44631185D01*
X101817006Y-44710537D01*
X101927320Y-44769502D01*
X102047018Y-44805812D01*
X102171500Y-44818072D01*
X104076500Y-44818072D01*
X104200982Y-44805812D01*
X104320680Y-44769502D01*
X104430994Y-44710537D01*
X104527685Y-44631185D01*
X104607037Y-44534494D01*
X104629000Y-44493404D01*
X104629001Y-47069162D01*
X104623994Y-47120000D01*
X104643977Y-47322895D01*
X104703160Y-47517993D01*
X104799266Y-47697797D01*
X104890212Y-47808614D01*
X104928605Y-47855396D01*
X104968092Y-47887803D01*
X109592197Y-52511908D01*
X109624604Y-52551396D01*
X109664092Y-52583803D01*
X109782202Y-52680734D01*
X109850398Y-52717185D01*
X109962007Y-52776841D01*
X110157105Y-52836024D01*
X110309162Y-52851000D01*
X110309164Y-52851000D01*
X110360000Y-52856007D01*
X110410835Y-52851000D01*
X110907397Y-52851000D01*
X110915820Y-52855502D01*
X111035518Y-52891812D01*
X111160000Y-52904072D01*
X112360000Y-52904072D01*
X112484482Y-52891812D01*
X112604180Y-52855502D01*
X112714494Y-52796537D01*
X112811185Y-52717185D01*
X112890537Y-52620494D01*
X112949502Y-52510180D01*
X112985812Y-52390482D01*
X112998072Y-52266000D01*
X112998072Y-51366000D01*
X112985812Y-51241518D01*
X112949502Y-51121820D01*
X112890537Y-51011506D01*
X112839903Y-50949808D01*
X113732711Y-50057000D01*
X118773822Y-50057000D01*
X118991637Y-50382983D01*
X119289017Y-50680363D01*
X119638698Y-50914012D01*
X120027244Y-51074953D01*
X120439721Y-51157000D01*
X120860279Y-51157000D01*
X121272756Y-51074953D01*
X121661302Y-50914012D01*
X122010983Y-50680363D01*
X122015002Y-50676344D01*
X122015002Y-51963928D01*
X119150000Y-51963928D01*
X119025518Y-51976188D01*
X118905820Y-52012498D01*
X118795506Y-52071463D01*
X118698815Y-52150815D01*
X118619463Y-52247506D01*
X118560498Y-52357820D01*
X118524188Y-52477518D01*
X118511928Y-52602000D01*
X118511928Y-53067000D01*
X116382835Y-53067000D01*
X116332000Y-53061993D01*
X116281165Y-53067000D01*
X116281162Y-53067000D01*
X116129105Y-53081976D01*
X115979415Y-53127385D01*
X115934006Y-53141159D01*
X115754202Y-53237266D01*
X115636092Y-53334197D01*
X115596604Y-53366604D01*
X115564197Y-53406092D01*
X114889290Y-54081000D01*
X112612603Y-54081000D01*
X112604180Y-54076498D01*
X112484482Y-54040188D01*
X112360000Y-54027928D01*
X111160000Y-54027928D01*
X111035518Y-54040188D01*
X110915820Y-54076498D01*
X110805506Y-54135463D01*
X110708815Y-54214815D01*
X110629463Y-54311506D01*
X110570498Y-54421820D01*
X110534188Y-54541518D01*
X110521928Y-54666000D01*
X110521928Y-55566000D01*
X110534188Y-55690482D01*
X110570498Y-55810180D01*
X110629463Y-55920494D01*
X110708815Y-56017185D01*
X110805506Y-56096537D01*
X110915820Y-56155502D01*
X111035518Y-56191812D01*
X111160000Y-56204072D01*
X112360000Y-56204072D01*
X112484482Y-56191812D01*
X112604180Y-56155502D01*
X112612603Y-56151000D01*
X115267172Y-56151000D01*
X115318000Y-56156006D01*
X115368828Y-56151000D01*
X115368838Y-56151000D01*
X115520895Y-56136024D01*
X115715993Y-56076841D01*
X115895797Y-55980734D01*
X116053396Y-55851396D01*
X116085807Y-55811903D01*
X116760711Y-55137000D01*
X118511928Y-55137000D01*
X118511928Y-55602000D01*
X118524188Y-55726482D01*
X118560498Y-55846180D01*
X118619463Y-55956494D01*
X118698815Y-56053185D01*
X118795506Y-56132537D01*
X118905820Y-56191502D01*
X119025518Y-56227812D01*
X119150000Y-56240072D01*
X122015001Y-56240072D01*
X122015001Y-58035655D01*
X122010983Y-58031637D01*
X121661302Y-57797988D01*
X121272756Y-57637047D01*
X120860279Y-57555000D01*
X120439721Y-57555000D01*
X120027244Y-57637047D01*
X119638698Y-57797988D01*
X119289017Y-58031637D01*
X118991637Y-58329017D01*
X118773822Y-58655000D01*
X116128835Y-58655000D01*
X116078000Y-58649993D01*
X116027165Y-58655000D01*
X116027162Y-58655000D01*
X115875105Y-58669976D01*
X115680007Y-58729159D01*
X115596309Y-58773896D01*
X115500202Y-58825266D01*
X115412786Y-58897007D01*
X115342604Y-58954604D01*
X115310197Y-58994092D01*
X113997290Y-60307000D01*
X112612603Y-60307000D01*
X112604180Y-60302498D01*
X112484482Y-60266188D01*
X112360000Y-60253928D01*
X111160000Y-60253928D01*
X111035518Y-60266188D01*
X110915820Y-60302498D01*
X110907397Y-60307000D01*
X110788711Y-60307000D01*
X110006114Y-59524404D01*
X109987803Y-59502092D01*
X109955396Y-59462604D01*
X109915908Y-59430197D01*
X105429000Y-54943290D01*
X105429000Y-50850827D01*
X105434006Y-50799999D01*
X105429000Y-50749171D01*
X105429000Y-50749162D01*
X105414024Y-50597105D01*
X105354841Y-50402007D01*
X105310104Y-50318309D01*
X105258734Y-50222202D01*
X105161803Y-50104092D01*
X105129396Y-50064604D01*
X105089908Y-50032197D01*
X101605807Y-46548097D01*
X101573396Y-46508604D01*
X101415797Y-46379266D01*
X101235993Y-46283159D01*
X101040895Y-46223976D01*
X100888838Y-46209000D01*
X100888828Y-46209000D01*
X100838000Y-46203994D01*
X100787172Y-46209000D01*
X93116711Y-46209000D01*
X91459000Y-44551290D01*
X91459000Y-44431756D01*
X91551963Y-44355463D01*
X91699162Y-44176100D01*
X91854563Y-44361315D01*
X92097077Y-44555969D01*
X92372906Y-44699571D01*
X92591020Y-44770563D01*
X92837000Y-44650594D01*
X92837000Y-43307000D01*
X93091000Y-43307000D01*
X93091000Y-44650594D01*
X93336980Y-44770563D01*
X93555094Y-44699571D01*
X93830923Y-44555969D01*
X94073437Y-44361315D01*
X94273316Y-44123089D01*
X94422879Y-43850446D01*
X94516378Y-43553863D01*
X94389570Y-43307000D01*
X93091000Y-43307000D01*
X92837000Y-43307000D01*
X92817000Y-43307000D01*
X92817000Y-43053000D01*
X92837000Y-43053000D01*
X92837000Y-41709406D01*
X93091000Y-41709406D01*
X93091000Y-43053000D01*
X94389570Y-43053000D01*
X94516378Y-42806137D01*
X94422879Y-42509554D01*
X94273316Y-42236911D01*
X94073437Y-41998685D01*
X93830923Y-41804031D01*
X93555094Y-41660429D01*
X93336980Y-41589437D01*
X93091000Y-41709406D01*
X92837000Y-41709406D01*
X92591020Y-41589437D01*
X92372906Y-41660429D01*
X92097077Y-41804031D01*
X91854563Y-41998685D01*
X91699163Y-42183899D01*
X91551963Y-42004537D01*
X91310234Y-41806155D01*
X91034448Y-41658745D01*
X90735203Y-41567970D01*
X90424000Y-41537319D01*
X90112796Y-41567970D01*
X89813551Y-41658745D01*
X89537765Y-41806155D01*
X89411905Y-41909446D01*
X89367037Y-41825506D01*
X89287685Y-41728815D01*
X89190994Y-41649463D01*
X89080680Y-41590498D01*
X88960982Y-41554188D01*
X88836500Y-41541928D01*
X86931500Y-41541928D01*
X86807018Y-41554188D01*
X86687320Y-41590498D01*
X86577006Y-41649463D01*
X86480315Y-41728815D01*
X86400963Y-41825506D01*
X86341998Y-41935820D01*
X86305688Y-42055518D01*
X86293428Y-42180000D01*
X86293428Y-44180000D01*
X86305688Y-44304482D01*
X86341998Y-44424180D01*
X86400963Y-44534494D01*
X86480315Y-44631185D01*
X86577006Y-44710537D01*
X86687320Y-44769502D01*
X86807018Y-44805812D01*
X86849000Y-44809947D01*
X86849000Y-44929172D01*
X86843994Y-44980000D01*
X86849000Y-45030828D01*
X86849000Y-45030837D01*
X86863976Y-45182894D01*
X86923159Y-45377992D01*
X87019266Y-45557797D01*
X87148604Y-45715396D01*
X87188097Y-45747807D01*
X90680206Y-49239917D01*
X90712614Y-49279406D01*
X90752102Y-49311813D01*
X90870212Y-49408744D01*
X90891258Y-49419993D01*
X91050017Y-49504851D01*
X91245115Y-49564034D01*
X91397172Y-49579010D01*
X91397181Y-49579010D01*
X91448009Y-49584016D01*
X91498837Y-49579010D01*
X94089300Y-49579010D01*
X95558001Y-51047712D01*
X95558000Y-62201522D01*
X95502538Y-62247038D01*
X95392095Y-62381614D01*
X95310028Y-62535150D01*
X95259492Y-62701746D01*
X95242428Y-62875000D01*
X95242428Y-63735000D01*
X84885107Y-63735000D01*
X84766632Y-63616525D01*
X84592240Y-63500000D01*
X84766632Y-63383475D01*
X84885107Y-63265000D01*
X86966672Y-63265000D01*
X87017500Y-63270006D01*
X87068328Y-63265000D01*
X87068338Y-63265000D01*
X87220395Y-63250024D01*
X87415493Y-63190841D01*
X87595297Y-63094734D01*
X87752896Y-62965396D01*
X87785307Y-62925903D01*
X90648408Y-60062803D01*
X90687896Y-60030396D01*
X90770289Y-59930000D01*
X90817234Y-59872798D01*
X90847668Y-59815860D01*
X90908386Y-59783405D01*
X91042962Y-59672962D01*
X91153405Y-59538386D01*
X91235472Y-59384850D01*
X91262727Y-59295000D01*
X91576928Y-59295000D01*
X91589188Y-59419482D01*
X91625498Y-59539180D01*
X91684463Y-59649494D01*
X91763815Y-59746185D01*
X91860506Y-59825537D01*
X91970820Y-59884502D01*
X92090518Y-59920812D01*
X92215000Y-59933072D01*
X92641750Y-59930000D01*
X92800500Y-59771250D01*
X92800500Y-58547000D01*
X93054500Y-58547000D01*
X93054500Y-59771250D01*
X93213250Y-59930000D01*
X93640000Y-59933072D01*
X93764482Y-59920812D01*
X93884180Y-59884502D01*
X93994494Y-59825537D01*
X94091185Y-59746185D01*
X94170537Y-59649494D01*
X94229502Y-59539180D01*
X94265812Y-59419482D01*
X94278072Y-59295000D01*
X94275000Y-58705750D01*
X94116250Y-58547000D01*
X93054500Y-58547000D01*
X92800500Y-58547000D01*
X91738750Y-58547000D01*
X91580000Y-58705750D01*
X91576928Y-59295000D01*
X91262727Y-59295000D01*
X91286008Y-59218254D01*
X91303072Y-59045000D01*
X91303072Y-57795000D01*
X91286008Y-57621746D01*
X91262728Y-57545000D01*
X91576928Y-57545000D01*
X91580000Y-58134250D01*
X91738750Y-58293000D01*
X92800500Y-58293000D01*
X92800500Y-57068750D01*
X93054500Y-57068750D01*
X93054500Y-58293000D01*
X94116250Y-58293000D01*
X94275000Y-58134250D01*
X94278072Y-57545000D01*
X94265812Y-57420518D01*
X94229502Y-57300820D01*
X94170537Y-57190506D01*
X94091185Y-57093815D01*
X93994494Y-57014463D01*
X93884180Y-56955498D01*
X93764482Y-56919188D01*
X93640000Y-56906928D01*
X93213250Y-56910000D01*
X93054500Y-57068750D01*
X92800500Y-57068750D01*
X92641750Y-56910000D01*
X92215000Y-56906928D01*
X92090518Y-56919188D01*
X91970820Y-56955498D01*
X91860506Y-57014463D01*
X91763815Y-57093815D01*
X91684463Y-57190506D01*
X91625498Y-57300820D01*
X91589188Y-57420518D01*
X91576928Y-57545000D01*
X91262728Y-57545000D01*
X91235472Y-57455150D01*
X91153405Y-57301614D01*
X91042962Y-57167038D01*
X90987500Y-57121522D01*
X90987500Y-54443327D01*
X90992506Y-54392499D01*
X90987500Y-54341671D01*
X90987500Y-54341662D01*
X90972524Y-54189605D01*
X90913341Y-53994507D01*
X90862348Y-53899105D01*
X90817234Y-53814702D01*
X90720303Y-53696592D01*
X90687896Y-53657104D01*
X90648408Y-53624697D01*
X85109000Y-48085290D01*
X85109000Y-41830710D01*
X86026711Y-40913000D01*
X101193290Y-40913000D01*
X101890479Y-41610190D01*
G37*
X101890479Y-41610190D02*
X101817006Y-41649463D01*
X101720315Y-41728815D01*
X101640963Y-41825506D01*
X101581998Y-41935820D01*
X101545688Y-42055518D01*
X101533428Y-42180000D01*
X101533428Y-44180000D01*
X101545688Y-44304482D01*
X101581998Y-44424180D01*
X101640963Y-44534494D01*
X101720315Y-44631185D01*
X101817006Y-44710537D01*
X101927320Y-44769502D01*
X102047018Y-44805812D01*
X102171500Y-44818072D01*
X104076500Y-44818072D01*
X104200982Y-44805812D01*
X104320680Y-44769502D01*
X104430994Y-44710537D01*
X104527685Y-44631185D01*
X104607037Y-44534494D01*
X104629000Y-44493404D01*
X104629001Y-47069162D01*
X104623994Y-47120000D01*
X104643977Y-47322895D01*
X104703160Y-47517993D01*
X104799266Y-47697797D01*
X104890212Y-47808614D01*
X104928605Y-47855396D01*
X104968092Y-47887803D01*
X109592197Y-52511908D01*
X109624604Y-52551396D01*
X109664092Y-52583803D01*
X109782202Y-52680734D01*
X109850398Y-52717185D01*
X109962007Y-52776841D01*
X110157105Y-52836024D01*
X110309162Y-52851000D01*
X110309164Y-52851000D01*
X110360000Y-52856007D01*
X110410835Y-52851000D01*
X110907397Y-52851000D01*
X110915820Y-52855502D01*
X111035518Y-52891812D01*
X111160000Y-52904072D01*
X112360000Y-52904072D01*
X112484482Y-52891812D01*
X112604180Y-52855502D01*
X112714494Y-52796537D01*
X112811185Y-52717185D01*
X112890537Y-52620494D01*
X112949502Y-52510180D01*
X112985812Y-52390482D01*
X112998072Y-52266000D01*
X112998072Y-51366000D01*
X112985812Y-51241518D01*
X112949502Y-51121820D01*
X112890537Y-51011506D01*
X112839903Y-50949808D01*
X113732711Y-50057000D01*
X118773822Y-50057000D01*
X118991637Y-50382983D01*
X119289017Y-50680363D01*
X119638698Y-50914012D01*
X120027244Y-51074953D01*
X120439721Y-51157000D01*
X120860279Y-51157000D01*
X121272756Y-51074953D01*
X121661302Y-50914012D01*
X122010983Y-50680363D01*
X122015002Y-50676344D01*
X122015002Y-51963928D01*
X119150000Y-51963928D01*
X119025518Y-51976188D01*
X118905820Y-52012498D01*
X118795506Y-52071463D01*
X118698815Y-52150815D01*
X118619463Y-52247506D01*
X118560498Y-52357820D01*
X118524188Y-52477518D01*
X118511928Y-52602000D01*
X118511928Y-53067000D01*
X116382835Y-53067000D01*
X116332000Y-53061993D01*
X116281165Y-53067000D01*
X116281162Y-53067000D01*
X116129105Y-53081976D01*
X115979415Y-53127385D01*
X115934006Y-53141159D01*
X115754202Y-53237266D01*
X115636092Y-53334197D01*
X115596604Y-53366604D01*
X115564197Y-53406092D01*
X114889290Y-54081000D01*
X112612603Y-54081000D01*
X112604180Y-54076498D01*
X112484482Y-54040188D01*
X112360000Y-54027928D01*
X111160000Y-54027928D01*
X111035518Y-54040188D01*
X110915820Y-54076498D01*
X110805506Y-54135463D01*
X110708815Y-54214815D01*
X110629463Y-54311506D01*
X110570498Y-54421820D01*
X110534188Y-54541518D01*
X110521928Y-54666000D01*
X110521928Y-55566000D01*
X110534188Y-55690482D01*
X110570498Y-55810180D01*
X110629463Y-55920494D01*
X110708815Y-56017185D01*
X110805506Y-56096537D01*
X110915820Y-56155502D01*
X111035518Y-56191812D01*
X111160000Y-56204072D01*
X112360000Y-56204072D01*
X112484482Y-56191812D01*
X112604180Y-56155502D01*
X112612603Y-56151000D01*
X115267172Y-56151000D01*
X115318000Y-56156006D01*
X115368828Y-56151000D01*
X115368838Y-56151000D01*
X115520895Y-56136024D01*
X115715993Y-56076841D01*
X115895797Y-55980734D01*
X116053396Y-55851396D01*
X116085807Y-55811903D01*
X116760711Y-55137000D01*
X118511928Y-55137000D01*
X118511928Y-55602000D01*
X118524188Y-55726482D01*
X118560498Y-55846180D01*
X118619463Y-55956494D01*
X118698815Y-56053185D01*
X118795506Y-56132537D01*
X118905820Y-56191502D01*
X119025518Y-56227812D01*
X119150000Y-56240072D01*
X122015001Y-56240072D01*
X122015001Y-58035655D01*
X122010983Y-58031637D01*
X121661302Y-57797988D01*
X121272756Y-57637047D01*
X120860279Y-57555000D01*
X120439721Y-57555000D01*
X120027244Y-57637047D01*
X119638698Y-57797988D01*
X119289017Y-58031637D01*
X118991637Y-58329017D01*
X118773822Y-58655000D01*
X116128835Y-58655000D01*
X116078000Y-58649993D01*
X116027165Y-58655000D01*
X116027162Y-58655000D01*
X115875105Y-58669976D01*
X115680007Y-58729159D01*
X115596309Y-58773896D01*
X115500202Y-58825266D01*
X115412786Y-58897007D01*
X115342604Y-58954604D01*
X115310197Y-58994092D01*
X113997290Y-60307000D01*
X112612603Y-60307000D01*
X112604180Y-60302498D01*
X112484482Y-60266188D01*
X112360000Y-60253928D01*
X111160000Y-60253928D01*
X111035518Y-60266188D01*
X110915820Y-60302498D01*
X110907397Y-60307000D01*
X110788711Y-60307000D01*
X110006114Y-59524404D01*
X109987803Y-59502092D01*
X109955396Y-59462604D01*
X109915908Y-59430197D01*
X105429000Y-54943290D01*
X105429000Y-50850827D01*
X105434006Y-50799999D01*
X105429000Y-50749171D01*
X105429000Y-50749162D01*
X105414024Y-50597105D01*
X105354841Y-50402007D01*
X105310104Y-50318309D01*
X105258734Y-50222202D01*
X105161803Y-50104092D01*
X105129396Y-50064604D01*
X105089908Y-50032197D01*
X101605807Y-46548097D01*
X101573396Y-46508604D01*
X101415797Y-46379266D01*
X101235993Y-46283159D01*
X101040895Y-46223976D01*
X100888838Y-46209000D01*
X100888828Y-46209000D01*
X100838000Y-46203994D01*
X100787172Y-46209000D01*
X93116711Y-46209000D01*
X91459000Y-44551290D01*
X91459000Y-44431756D01*
X91551963Y-44355463D01*
X91699162Y-44176100D01*
X91854563Y-44361315D01*
X92097077Y-44555969D01*
X92372906Y-44699571D01*
X92591020Y-44770563D01*
X92837000Y-44650594D01*
X92837000Y-43307000D01*
X93091000Y-43307000D01*
X93091000Y-44650594D01*
X93336980Y-44770563D01*
X93555094Y-44699571D01*
X93830923Y-44555969D01*
X94073437Y-44361315D01*
X94273316Y-44123089D01*
X94422879Y-43850446D01*
X94516378Y-43553863D01*
X94389570Y-43307000D01*
X93091000Y-43307000D01*
X92837000Y-43307000D01*
X92817000Y-43307000D01*
X92817000Y-43053000D01*
X92837000Y-43053000D01*
X92837000Y-41709406D01*
X93091000Y-41709406D01*
X93091000Y-43053000D01*
X94389570Y-43053000D01*
X94516378Y-42806137D01*
X94422879Y-42509554D01*
X94273316Y-42236911D01*
X94073437Y-41998685D01*
X93830923Y-41804031D01*
X93555094Y-41660429D01*
X93336980Y-41589437D01*
X93091000Y-41709406D01*
X92837000Y-41709406D01*
X92591020Y-41589437D01*
X92372906Y-41660429D01*
X92097077Y-41804031D01*
X91854563Y-41998685D01*
X91699163Y-42183899D01*
X91551963Y-42004537D01*
X91310234Y-41806155D01*
X91034448Y-41658745D01*
X90735203Y-41567970D01*
X90424000Y-41537319D01*
X90112796Y-41567970D01*
X89813551Y-41658745D01*
X89537765Y-41806155D01*
X89411905Y-41909446D01*
X89367037Y-41825506D01*
X89287685Y-41728815D01*
X89190994Y-41649463D01*
X89080680Y-41590498D01*
X88960982Y-41554188D01*
X88836500Y-41541928D01*
X86931500Y-41541928D01*
X86807018Y-41554188D01*
X86687320Y-41590498D01*
X86577006Y-41649463D01*
X86480315Y-41728815D01*
X86400963Y-41825506D01*
X86341998Y-41935820D01*
X86305688Y-42055518D01*
X86293428Y-42180000D01*
X86293428Y-44180000D01*
X86305688Y-44304482D01*
X86341998Y-44424180D01*
X86400963Y-44534494D01*
X86480315Y-44631185D01*
X86577006Y-44710537D01*
X86687320Y-44769502D01*
X86807018Y-44805812D01*
X86849000Y-44809947D01*
X86849000Y-44929172D01*
X86843994Y-44980000D01*
X86849000Y-45030828D01*
X86849000Y-45030837D01*
X86863976Y-45182894D01*
X86923159Y-45377992D01*
X87019266Y-45557797D01*
X87148604Y-45715396D01*
X87188097Y-45747807D01*
X90680206Y-49239917D01*
X90712614Y-49279406D01*
X90752102Y-49311813D01*
X90870212Y-49408744D01*
X90891258Y-49419993D01*
X91050017Y-49504851D01*
X91245115Y-49564034D01*
X91397172Y-49579010D01*
X91397181Y-49579010D01*
X91448009Y-49584016D01*
X91498837Y-49579010D01*
X94089300Y-49579010D01*
X95558001Y-51047712D01*
X95558000Y-62201522D01*
X95502538Y-62247038D01*
X95392095Y-62381614D01*
X95310028Y-62535150D01*
X95259492Y-62701746D01*
X95242428Y-62875000D01*
X95242428Y-63735000D01*
X84885107Y-63735000D01*
X84766632Y-63616525D01*
X84592240Y-63500000D01*
X84766632Y-63383475D01*
X84885107Y-63265000D01*
X86966672Y-63265000D01*
X87017500Y-63270006D01*
X87068328Y-63265000D01*
X87068338Y-63265000D01*
X87220395Y-63250024D01*
X87415493Y-63190841D01*
X87595297Y-63094734D01*
X87752896Y-62965396D01*
X87785307Y-62925903D01*
X90648408Y-60062803D01*
X90687896Y-60030396D01*
X90770289Y-59930000D01*
X90817234Y-59872798D01*
X90847668Y-59815860D01*
X90908386Y-59783405D01*
X91042962Y-59672962D01*
X91153405Y-59538386D01*
X91235472Y-59384850D01*
X91262727Y-59295000D01*
X91576928Y-59295000D01*
X91589188Y-59419482D01*
X91625498Y-59539180D01*
X91684463Y-59649494D01*
X91763815Y-59746185D01*
X91860506Y-59825537D01*
X91970820Y-59884502D01*
X92090518Y-59920812D01*
X92215000Y-59933072D01*
X92641750Y-59930000D01*
X92800500Y-59771250D01*
X92800500Y-58547000D01*
X93054500Y-58547000D01*
X93054500Y-59771250D01*
X93213250Y-59930000D01*
X93640000Y-59933072D01*
X93764482Y-59920812D01*
X93884180Y-59884502D01*
X93994494Y-59825537D01*
X94091185Y-59746185D01*
X94170537Y-59649494D01*
X94229502Y-59539180D01*
X94265812Y-59419482D01*
X94278072Y-59295000D01*
X94275000Y-58705750D01*
X94116250Y-58547000D01*
X93054500Y-58547000D01*
X92800500Y-58547000D01*
X91738750Y-58547000D01*
X91580000Y-58705750D01*
X91576928Y-59295000D01*
X91262727Y-59295000D01*
X91286008Y-59218254D01*
X91303072Y-59045000D01*
X91303072Y-57795000D01*
X91286008Y-57621746D01*
X91262728Y-57545000D01*
X91576928Y-57545000D01*
X91580000Y-58134250D01*
X91738750Y-58293000D01*
X92800500Y-58293000D01*
X92800500Y-57068750D01*
X93054500Y-57068750D01*
X93054500Y-58293000D01*
X94116250Y-58293000D01*
X94275000Y-58134250D01*
X94278072Y-57545000D01*
X94265812Y-57420518D01*
X94229502Y-57300820D01*
X94170537Y-57190506D01*
X94091185Y-57093815D01*
X93994494Y-57014463D01*
X93884180Y-56955498D01*
X93764482Y-56919188D01*
X93640000Y-56906928D01*
X93213250Y-56910000D01*
X93054500Y-57068750D01*
X92800500Y-57068750D01*
X92641750Y-56910000D01*
X92215000Y-56906928D01*
X92090518Y-56919188D01*
X91970820Y-56955498D01*
X91860506Y-57014463D01*
X91763815Y-57093815D01*
X91684463Y-57190506D01*
X91625498Y-57300820D01*
X91589188Y-57420518D01*
X91576928Y-57545000D01*
X91262728Y-57545000D01*
X91235472Y-57455150D01*
X91153405Y-57301614D01*
X91042962Y-57167038D01*
X90987500Y-57121522D01*
X90987500Y-54443327D01*
X90992506Y-54392499D01*
X90987500Y-54341671D01*
X90987500Y-54341662D01*
X90972524Y-54189605D01*
X90913341Y-53994507D01*
X90862348Y-53899105D01*
X90817234Y-53814702D01*
X90720303Y-53696592D01*
X90687896Y-53657104D01*
X90648408Y-53624697D01*
X85109000Y-48085290D01*
X85109000Y-41830710D01*
X86026711Y-40913000D01*
X101193290Y-40913000D01*
X101890479Y-41610190D01*
M02*
