<?xml version="1.0" standalone="no"?>
<!DOCTYPE svg PUBLIC "-//W3C//DTD SVG 20010904//EN"
 "http://www.w3.org/TR/2001/REC-SVG-20010904/DTD/svg10.dtd">
<svg version="1.0" xmlns="http://www.w3.org/2000/svg"
 width="256.000000pt" height="256.000000pt" viewBox="0 0 256.000000 256.000000"
 preserveAspectRatio="xMidYMid meet">
<metadata>
Created by potrace 1.11, written by Peter Selinger 2001-2013
</metadata>
<g transform="translate(0.000000,256.000000) scale(0.100000,-0.100000)"
fill="#000000" stroke="none">
<path d="M1143 2445 c-23 -7 -44 -11 -46 -9 -12 13 -190 -65 -262 -114 -99
-68 -195 -192 -195 -254 0 -23 -11 -28 -71 -34 -106 -10 -235 -70 -295 -137
-42 -45 -80 -113 -94 -166 -16 -61 -14 -173 4 -216 8 -19 16 -39 17 -43 8 -33
50 -99 92 -144 40 -43 128 -95 203 -119 69 -23 71 -23 759 -22 380 0 713 3
741 6 251 29 437 278 389 522 -33 168 -202 301 -405 320 -19 2 -41 3 -49 4 -8
1 -12 4 -9 7 11 10 -24 98 -57 144 -36 48 -70 81 -125 120 -19 13 -37 27 -40
30 -22 25 -200 93 -281 106 -68 12 -235 11 -276 -1z"/>
<path d="M747 988 c-15 -35 -39 -94 -55 -133 -147 -355 -144 -509 11 -575 96
-41 210 -3 251 85 37 77 30 162 -25 329 -38 115 -139 356 -149 356 -4 0 -19
-28 -33 -62z"/>
<path d="M1757 1013 c-9 -21 -23 -56 -32 -78 -9 -22 -20 -49 -25 -60 -58 -125
-110 -303 -116 -394 -5 -91 18 -138 95 -191 67 -46 188 -30 246 33 55 59 65
122 40 240 -25 121 -165 486 -186 487 -3 0 -13 -17 -22 -37z"/>
<path d="M1263 823 c-153 -346 -203 -527 -173 -620 18 -53 45 -87 92 -113 103
-58 225 -21 277 85 24 49 22 150 -5 235 -10 30 -18 60 -19 65 -5 24 -36 107
-75 200 -23 55 -48 117 -57 138 -18 44 -24 46 -40 10z"/>
</g>
</svg>
